M48
INCH,LZ
;FILE_FORMAT=2:4
;TYPE=PLATED
;Layer: PTH_Through
;EasyEDA v6.5.22, 2022-10-31 13:41:45
;028e3914a6f949ed9ca799ef75e4ed4f,10
;Gerber Generator version 0.2
;Holesize 1 = 0.0280 inch
T01C0.0280
;Holesize 2 = 0.0320 inch
T02C0.0320
;Holesize 3 = 0.0360 inch
T03C0.0360
;Holesize 4 = 0.0390 inch
T04C0.0390
;Holesize 5 = 0.0430 inch
T05C0.0430
;Holesize 6 = 0.0630 inch
T06C0.0630
;Holesize 7 = 0.0990 inch
T07C0.0990
%
G05
G90
T01
X030600Y023050
X032000Y023150
X033500Y023050
X030550Y026350
X031950Y026450
X033450Y026350
X030550Y029700
X031950Y029800
X033450Y029700
X030600Y017550
X032000Y017650
X033500Y017550
X030650Y014200
X032050Y014300
X033550Y014200
X030650Y010600
X032050Y010700
X033550Y010600
T02
X005250Y017800
X004250Y017800
X004300Y015600
X004300Y011600
T03
X025400Y023000
X029400Y023000
X025350Y021250
X029350Y021250
X025350Y026350
X029350Y026350
X025350Y024700
X029350Y024700
X025250Y029650
X029250Y029650
X025250Y028000
X029250Y028000
X025350Y015900
X029350Y015900
X025400Y017550
X029400Y017550
X025350Y012350
X029350Y012350
X025350Y014150
X029350Y014150
X025350Y008850
X029350Y008850
X025350Y010600
X029350Y010600
T04
X036876Y024250
X035876Y024750
X036876Y025250
X035876Y025750
X036876Y026250
X035876Y026750
X036876Y027250
X035876Y027750
X036876Y011700
X035876Y012200
X036876Y012700
X035876Y013200
X036876Y013700
X035876Y014200
X036876Y014700
X035876Y015200
X016100Y020800
X016100Y021800
X016100Y022800
X016100Y023800
X016100Y024800
X016100Y025800
X016100Y026800
X016100Y027800
X016100Y028800
X016100Y029800
X014600Y018100
X009600Y018100
X010600Y018100
X011600Y018100
X012600Y018100
X013600Y018100
X008100Y020800G85X008100Y020800
X008100Y029800
X008100Y028800
X008100Y027800
X008100Y026800
X008100Y025800
X008100Y024800
X008100Y023800
X008100Y022800
X008100Y021800
X008100Y020800
X005200Y025750
X004200Y025750
T05
X009600Y015100
X010600Y015100
X011600Y015100
X012600Y015100
X013600Y015100
X014600Y015100
T06
X040824Y022900
X040824Y029100
X040824Y010350
X040824Y016550
T07
X016100Y031300
X016100Y018300
X008100Y018300
X008100Y031300
M30
