G04 Layer: TopLayer*
G04 EasyEDA v6.5.22, 2022-10-31 13:41:45*
G04 028e3914a6f949ed9ca799ef75e4ed4f,10*
G04 Gerber Generator version 0.2*
G04 Scale: 100 percent, Rotated: No, Reflected: No *
G04 Dimensions in inches *
G04 leading zeros omitted , absolute positions ,3 integer and 6 decimal *
%FSLAX36Y36*%
%MOIN*%

%ADD10C,0.0120*%
%ADD11C,0.0866*%
%ADD12C,0.0630*%
%ADD13C,0.1380*%
%ADD14C,0.0700*%
%ADD15R,0.0650X0.0906*%
%ADD16O,0.064961X0.09055099999999999*%
%ADD17C,0.0709*%
%ADD18R,0.0709X0.0709*%
%ADD19O,0.070866X0.11810999999999999*%
%ADD20R,0.0709X0.1181*%
%ADD21R,0.0591X0.0591*%
%ADD22C,0.0591*%
%ADD23C,0.0600*%
%ADD24C,0.0787*%
%ADD25C,0.0240*%

%LPD*%
D10*
X3687559Y1370000D02*
G01*
X3640000Y1370000D01*
X3640000Y1135000D01*
X2535000Y1135000D01*
X2535000Y1235000D01*
X3687559Y2625000D02*
G01*
X3775000Y2625000D01*
X3775000Y3105000D01*
X2410000Y3105000D01*
X2410000Y2470000D01*
X2535000Y2470000D01*
X3587559Y1220000D02*
G01*
X3560000Y1220000D01*
X3445000Y1335000D01*
X3445000Y2210000D01*
X3350000Y2305000D01*
X1610000Y2080000D02*
G01*
X1840000Y2080000D01*
X1840000Y785000D01*
X3832479Y785000D01*
X4082439Y1034960D01*
X3587559Y2675000D02*
G01*
X3585000Y2675000D01*
X3495000Y2585000D01*
X3495000Y1512559D01*
X3587559Y1420000D01*
X3587559Y2775000D02*
G01*
X3587559Y2757440D01*
X3640000Y2705000D01*
X3640000Y1572440D01*
X3587559Y1520000D01*
X3687559Y2425000D02*
G01*
X3770000Y2342559D01*
X3770000Y1250000D01*
X3767559Y1250000D01*
X3687559Y1170000D01*
X2200000Y2125000D02*
G01*
X2535000Y2125000D01*
X2935000Y2125000D02*
G01*
X3170000Y2125000D01*
X3350000Y2305000D01*
X2935000Y2470000D02*
G01*
X3180000Y2470000D01*
X3345000Y2635000D01*
X2925000Y2800000D02*
G01*
X3175000Y2800000D01*
X3345000Y2970000D01*
X2935000Y1590000D02*
G01*
X3185000Y1590000D01*
X3350000Y1755000D01*
X2935000Y1235000D02*
G01*
X3170000Y1235000D01*
X3355000Y1420000D01*
X810000Y2080000D02*
G01*
X420000Y2080000D01*
X420000Y2575000D01*
X810000Y2080000D02*
G01*
X1610000Y2080000D01*
X2535000Y2635000D02*
G01*
X2535000Y2690000D01*
X3150000Y2690000D01*
X3195000Y2645000D01*
X1610000Y2480000D02*
G01*
X1890000Y2200000D01*
X1890000Y1005000D01*
X2880000Y1005000D01*
X2935000Y1060000D01*
X1610000Y2580000D02*
G01*
X1940000Y2250000D01*
X1940000Y1325000D01*
X2845000Y1325000D01*
X2935000Y1415000D01*
X1610000Y2680000D02*
G01*
X1985000Y2305000D01*
X1985000Y1680000D01*
X2865000Y1680000D01*
X2940000Y1755000D01*
X810000Y2480000D02*
G01*
X1060000Y2730000D01*
X1690000Y2730000D01*
X2040000Y2380000D01*
X2040000Y2215000D01*
X2940000Y2215000D01*
X2940000Y2300000D01*
D11*
G01*
X4082439Y2289960D03*
G01*
X4082439Y2910039D03*
D12*
G01*
X3687559Y2425000D03*
G01*
X3587559Y2475000D03*
G01*
X3687559Y2525000D03*
G01*
X3587559Y2575000D03*
G01*
X3687559Y2625000D03*
G01*
X3587559Y2675000D03*
G01*
X3687559Y2725000D03*
G01*
X3587559Y2775000D03*
D11*
G01*
X4082439Y1034960D03*
G01*
X4082439Y1655039D03*
D12*
G01*
X3687559Y1170000D03*
G01*
X3587559Y1220000D03*
G01*
X3687559Y1270000D03*
G01*
X3587559Y1320000D03*
G01*
X3687559Y1370000D03*
G01*
X3587559Y1420000D03*
G01*
X3687559Y1470000D03*
G01*
X3587559Y1520000D03*
D13*
G01*
X1610000Y3130000D03*
D14*
G01*
X1610000Y2080000D03*
G01*
X1610000Y2180000D03*
G01*
X1610000Y2280000D03*
G01*
X1610000Y2380000D03*
G01*
X1610000Y2480000D03*
G01*
X1610000Y2580000D03*
G01*
X1610000Y2680000D03*
G01*
X1610000Y2780000D03*
G01*
X1610000Y2880000D03*
G01*
X1610000Y2980000D03*
D13*
G01*
X1610000Y1830000D03*
D14*
G01*
X1460000Y1810000D03*
G01*
X960000Y1810000D03*
G01*
X1060000Y1810000D03*
G01*
X1160000Y1810000D03*
G01*
X1260000Y1810000D03*
G01*
X1360000Y1810000D03*
D13*
G01*
X810000Y1830000D03*
D14*
G01*
X810000Y2080000D03*
G01*
X810000Y2980000D03*
G01*
X810000Y2880000D03*
G01*
X810000Y2780000D03*
G01*
X810000Y2680000D03*
G01*
X810000Y2580000D03*
G01*
X810000Y2480000D03*
G01*
X810000Y2380000D03*
G01*
X810000Y2280000D03*
G01*
X810000Y2180000D03*
G01*
X810000Y2080000D03*
D13*
G01*
X810000Y3130000D03*
D15*
G01*
X520000Y2575000D03*
D16*
G01*
X420000Y2575000D03*
D17*
G01*
X525000Y1780000D03*
D18*
G01*
X425000Y1780000D03*
D19*
G01*
X960000Y1510000D03*
G01*
X1060000Y1510000D03*
G01*
X1160000Y1510000D03*
G01*
X1260000Y1510000D03*
G01*
X1360000Y1510000D03*
D20*
G01*
X1460000Y1510000D03*
D21*
G01*
X3060000Y2305000D03*
D22*
G01*
X3200000Y2315000D03*
G01*
X3350000Y2305000D03*
D21*
G01*
X3055000Y2635000D03*
D22*
G01*
X3195000Y2645000D03*
G01*
X3345000Y2635000D03*
D21*
G01*
X3055000Y2970000D03*
D22*
G01*
X3195000Y2980000D03*
G01*
X3345000Y2970000D03*
D21*
G01*
X3060000Y1755000D03*
D22*
G01*
X3200000Y1765000D03*
G01*
X3350000Y1755000D03*
D21*
G01*
X3065000Y1420000D03*
D22*
G01*
X3205000Y1430000D03*
G01*
X3355000Y1420000D03*
D21*
G01*
X3065000Y1060000D03*
D22*
G01*
X3205000Y1070000D03*
G01*
X3355000Y1060000D03*
D23*
G01*
X2540000Y2300000D03*
G01*
X2940000Y2300000D03*
G01*
X2535000Y2125000D03*
G01*
X2935000Y2125000D03*
G01*
X2535000Y2635000D03*
G01*
X2935000Y2635000D03*
G01*
X2535000Y2470000D03*
G01*
X2935000Y2470000D03*
G01*
X2525000Y2965000D03*
G01*
X2925000Y2965000D03*
G01*
X2525000Y2800000D03*
G01*
X2925000Y2800000D03*
G01*
X2535000Y1590000D03*
G01*
X2935000Y1590000D03*
G01*
X2540000Y1755000D03*
G01*
X2940000Y1755000D03*
G01*
X2535000Y1235000D03*
G01*
X2935000Y1235000D03*
G01*
X2535000Y1415000D03*
G01*
X2935000Y1415000D03*
G01*
X2535000Y885000D03*
G01*
X2935000Y885000D03*
G01*
X2535000Y1060000D03*
G01*
X2935000Y1060000D03*
D24*
G01*
X430000Y1560000D03*
G01*
X430000Y1160000D03*
D25*
G01*
X2200000Y2125000D03*
M02*
