G04 Layer: TopSilkscreenLayer*
G04 EasyEDA v6.5.22, 2022-10-31 13:41:45*
G04 028e3914a6f949ed9ca799ef75e4ed4f,10*
G04 Gerber Generator version 0.2*
G04 Scale: 100 percent, Rotated: No, Reflected: No *
G04 Dimensions in inches *
G04 leading zeros omitted , absolute positions ,3 integer and 6 decimal *
%FSLAX36Y36*%
%MOIN*%

%ADD10C,0.0060*%
%ADD11C,0.0080*%
%ADD12C,0.0063*%
%ADD13C,0.0059*%
%ADD14C,0.0100*%
%ADD15C,0.0080*%
%ADD16C,0.0079*%
%ADD17C,0.0180*%

%LPD*%
D10*
X1085000Y1680399D02*
G01*
X1085000Y1637500D01*
X1085000Y1680399D02*
G01*
X1103400Y1680399D01*
X1109499Y1678400D01*
X1111599Y1676300D01*
X1113599Y1672199D01*
X1113599Y1668099D01*
X1111599Y1664000D01*
X1109499Y1661999D01*
X1103400Y1660000D01*
X1085000Y1660000D01*
X1099300Y1660000D02*
G01*
X1113599Y1637500D01*
X1155799Y1674299D02*
G01*
X1151700Y1678400D01*
X1145500Y1680399D01*
X1137399Y1680399D01*
X1131199Y1678400D01*
X1127100Y1674299D01*
X1127100Y1670199D01*
X1129200Y1666100D01*
X1131199Y1664000D01*
X1135299Y1661999D01*
X1147600Y1657899D01*
X1151700Y1655900D01*
X1153699Y1653800D01*
X1155799Y1649699D01*
X1155799Y1643600D01*
X1151700Y1639499D01*
X1145500Y1637500D01*
X1137399Y1637500D01*
X1131199Y1639499D01*
X1127100Y1643600D01*
X1169300Y1655900D02*
G01*
X1206099Y1655900D01*
X1221599Y1670199D02*
G01*
X1221599Y1672199D01*
X1223699Y1676300D01*
X1225699Y1678400D01*
X1229799Y1680399D01*
X1238000Y1680399D01*
X1242100Y1678400D01*
X1244099Y1676300D01*
X1246199Y1672199D01*
X1246199Y1668099D01*
X1244099Y1664000D01*
X1240000Y1657899D01*
X1219600Y1637500D01*
X1248199Y1637500D01*
X1265799Y1680399D02*
G01*
X1288299Y1680399D01*
X1276000Y1664000D01*
X1282200Y1664000D01*
X1286300Y1661999D01*
X1288299Y1660000D01*
X1290399Y1653800D01*
X1290399Y1649699D01*
X1288299Y1643600D01*
X1284200Y1639499D01*
X1278100Y1637500D01*
X1271999Y1637500D01*
X1265799Y1639499D01*
X1263800Y1641500D01*
X1261700Y1645599D01*
X1305900Y1670199D02*
G01*
X1305900Y1672199D01*
X1308000Y1676300D01*
X1310000Y1678400D01*
X1314099Y1680399D01*
X1322299Y1680399D01*
X1326400Y1678400D01*
X1328400Y1676300D01*
X1330500Y1672199D01*
X1330500Y1668099D01*
X1328400Y1664000D01*
X1324300Y1657899D01*
X1303900Y1637500D01*
X1332500Y1637500D01*
D11*
X982700Y1405000D02*
G01*
X937600Y1405000D01*
X982700Y1405000D02*
G01*
X937600Y1374899D01*
X982700Y1374899D02*
G01*
X937600Y1374899D01*
X971899Y1328600D02*
G01*
X976199Y1330700D01*
X980500Y1335000D01*
X982700Y1339299D01*
X982700Y1347899D01*
X980500Y1352199D01*
X976199Y1356500D01*
X971899Y1358600D01*
X965500Y1360799D01*
X954799Y1360799D01*
X948299Y1358600D01*
X943999Y1356500D01*
X939700Y1352199D01*
X937600Y1347899D01*
X937600Y1339299D01*
X939700Y1335000D01*
X943999Y1330700D01*
X948299Y1328600D01*
X1082700Y1395000D02*
G01*
X1037600Y1395000D01*
X1082700Y1410000D02*
G01*
X1082700Y1379899D01*
X1082700Y1365799D02*
G01*
X1037600Y1335700D01*
X1082700Y1335700D02*
G01*
X1037600Y1365799D01*
X1182700Y1405000D02*
G01*
X1137600Y1405000D01*
X1182700Y1405000D02*
G01*
X1182700Y1385700D01*
X1180500Y1379200D01*
X1178400Y1377100D01*
X1174099Y1374899D01*
X1169799Y1374899D01*
X1165500Y1377100D01*
X1163299Y1379200D01*
X1161199Y1385700D01*
X1161199Y1405000D01*
X1161199Y1390000D02*
G01*
X1137600Y1374899D01*
X1182700Y1360799D02*
G01*
X1137600Y1330700D01*
X1182700Y1330700D02*
G01*
X1137600Y1360799D01*
X1287700Y1410000D02*
G01*
X1242600Y1392800D01*
X1287700Y1375599D02*
G01*
X1242600Y1392800D01*
X1287700Y1361500D02*
G01*
X1242600Y1361500D01*
X1287700Y1347300D02*
G01*
X1242600Y1347300D01*
X1287700Y1347300D02*
G01*
X1242600Y1317199D01*
X1287700Y1317199D02*
G01*
X1242600Y1317199D01*
X1387700Y1405000D02*
G01*
X1342600Y1405000D01*
X1387700Y1405000D02*
G01*
X1342600Y1374899D01*
X1387700Y1374899D02*
G01*
X1342600Y1374899D01*
X1376899Y1328600D02*
G01*
X1381199Y1330700D01*
X1385500Y1335000D01*
X1387700Y1339299D01*
X1387700Y1347899D01*
X1385500Y1352199D01*
X1381199Y1356500D01*
X1376899Y1358600D01*
X1370500Y1360799D01*
X1359799Y1360799D01*
X1353299Y1358600D01*
X1348999Y1356500D01*
X1344700Y1352199D01*
X1342600Y1347899D01*
X1342600Y1339299D01*
X1344700Y1335000D01*
X1348999Y1330700D01*
X1353299Y1328600D01*
X1471899Y1382800D02*
G01*
X1476199Y1384899D01*
X1480500Y1389200D01*
X1482700Y1393499D01*
X1482700Y1402100D01*
X1480500Y1406399D01*
X1476199Y1410700D01*
X1471899Y1412899D01*
X1465500Y1415000D01*
X1454799Y1415000D01*
X1448299Y1412899D01*
X1443999Y1410700D01*
X1439700Y1406399D01*
X1437600Y1402100D01*
X1437600Y1393499D01*
X1439700Y1389200D01*
X1443999Y1384899D01*
X1448299Y1382800D01*
X1454799Y1382800D01*
X1454799Y1393499D02*
G01*
X1454799Y1382800D01*
X1482700Y1368600D02*
G01*
X1437600Y1368600D01*
X1482700Y1368600D02*
G01*
X1437600Y1338600D01*
X1482700Y1338600D02*
G01*
X1437600Y1338600D01*
X1482700Y1324400D02*
G01*
X1437600Y1324400D01*
X1482700Y1324400D02*
G01*
X1482700Y1309299D01*
X1480500Y1302899D01*
X1476199Y1298600D01*
X1471899Y1296500D01*
X1465500Y1294299D01*
X1454799Y1294299D01*
X1448299Y1296500D01*
X1443999Y1298600D01*
X1439700Y1302899D01*
X1437600Y1309299D01*
X1437600Y1324400D01*
X2185000Y3294600D02*
G01*
X2185000Y3238200D01*
X2185000Y3294600D02*
G01*
X2219899Y3294600D01*
X2185000Y3267700D02*
G01*
X2206499Y3267700D01*
X2259099Y3294600D02*
G01*
X2237600Y3238200D01*
X2259099Y3294600D02*
G01*
X2280600Y3238200D01*
X2245699Y3256999D02*
G01*
X2272500Y3256999D01*
X2298299Y3294600D02*
G01*
X2298299Y3238200D01*
X2298299Y3294600D02*
G01*
X2322399Y3294600D01*
X2330500Y3291900D01*
X2333199Y3289200D01*
X2335900Y3283899D01*
X2335900Y3278499D01*
X2333199Y3273099D01*
X2330500Y3270399D01*
X2322399Y3267700D01*
X2298299Y3267700D02*
G01*
X2322399Y3267700D01*
X2330500Y3265100D01*
X2333199Y3262399D01*
X2335900Y3256999D01*
X2335900Y3249000D01*
X2333199Y3243600D01*
X2330500Y3240900D01*
X2322399Y3238200D01*
X2298299Y3238200D01*
X2411000Y3294600D02*
G01*
X2403000Y3291900D01*
X2397600Y3283899D01*
X2394899Y3270399D01*
X2394899Y3262399D01*
X2397600Y3249000D01*
X2403000Y3240900D01*
X2411000Y3238200D01*
X2416400Y3238200D01*
X2424399Y3240900D01*
X2429799Y3249000D01*
X2432500Y3262399D01*
X2432500Y3270399D01*
X2429799Y3283899D01*
X2424399Y3291900D01*
X2416400Y3294600D01*
X2411000Y3294600D01*
X2466300Y3294600D02*
G01*
X2458299Y3291900D01*
X2452899Y3283899D01*
X2450200Y3270399D01*
X2450200Y3262399D01*
X2452899Y3249000D01*
X2458299Y3240900D01*
X2466300Y3238200D01*
X2471700Y3238200D01*
X2479700Y3240900D01*
X2485100Y3249000D01*
X2487799Y3262399D01*
X2487799Y3270399D01*
X2485100Y3283899D01*
X2479700Y3291900D01*
X2471700Y3294600D01*
X2466300Y3294600D01*
X2505500Y3283899D02*
G01*
X2510900Y3286500D01*
X2518900Y3294600D01*
X2518900Y3238200D01*
X2552799Y3294600D02*
G01*
X2544700Y3291900D01*
X2539300Y3283899D01*
X2536599Y3270399D01*
X2536599Y3262399D01*
X2539300Y3249000D01*
X2544700Y3240900D01*
X2552799Y3238200D01*
X2558100Y3238200D01*
X2566199Y3240900D01*
X2571499Y3249000D01*
X2574200Y3262399D01*
X2574200Y3270399D01*
X2571499Y3283899D01*
X2566199Y3291900D01*
X2558100Y3294600D01*
X2552799Y3294600D01*
X2608000Y3294600D02*
G01*
X2600000Y3291900D01*
X2594600Y3283899D01*
X2591899Y3270399D01*
X2591899Y3262399D01*
X2594600Y3249000D01*
X2600000Y3240900D01*
X2608000Y3238200D01*
X2613400Y3238200D01*
X2621499Y3240900D01*
X2626800Y3249000D01*
X2629499Y3262399D01*
X2629499Y3270399D01*
X2626800Y3283899D01*
X2621499Y3291900D01*
X2613400Y3294600D01*
X2608000Y3294600D01*
X2649899Y3281199D02*
G01*
X2649899Y3283899D01*
X2652600Y3289200D01*
X2655299Y3291900D01*
X2660699Y3294600D01*
X2671400Y3294600D01*
X2676800Y3291900D01*
X2679499Y3289200D01*
X2682100Y3283899D01*
X2682100Y3278499D01*
X2679499Y3273099D01*
X2674099Y3265100D01*
X2647200Y3238200D01*
X2684799Y3238200D01*
X2765299Y3294600D02*
G01*
X2743900Y3238200D01*
X2765299Y3294600D02*
G01*
X2786800Y3238200D01*
X2751899Y3256999D02*
G01*
X2778800Y3256999D01*
X2842100Y3286500D02*
G01*
X2836800Y3291900D01*
X2828699Y3294600D01*
X2818000Y3294600D01*
X2809899Y3291900D01*
X2804499Y3286500D01*
X2804499Y3281199D01*
X2807200Y3275799D01*
X2809899Y3273099D01*
X2815299Y3270399D01*
X2831400Y3265100D01*
X2836800Y3262399D01*
X2839399Y3259699D01*
X2842100Y3254299D01*
X2842100Y3246300D01*
X2836800Y3240900D01*
X2828699Y3238200D01*
X2818000Y3238200D01*
X2809899Y3240900D01*
X2804499Y3246300D01*
X2897399Y3286500D02*
G01*
X2891999Y3291900D01*
X2883999Y3294600D01*
X2873299Y3294600D01*
X2865200Y3291900D01*
X2859799Y3286500D01*
X2859799Y3281199D01*
X2862500Y3275799D01*
X2865200Y3273099D01*
X2870600Y3270399D01*
X2886700Y3265100D01*
X2891999Y3262399D01*
X2894700Y3259699D01*
X2897399Y3254299D01*
X2897399Y3246300D01*
X2891999Y3240900D01*
X2883999Y3238200D01*
X2873299Y3238200D01*
X2865200Y3240900D01*
X2859799Y3246300D01*
X2915100Y3294600D02*
G01*
X2936599Y3267700D01*
X2936599Y3238200D01*
X2958100Y3294600D02*
G01*
X2936599Y3267700D01*
X3033199Y3294600D02*
G01*
X3025200Y3291900D01*
X3019799Y3283899D01*
X3017100Y3270399D01*
X3017100Y3262399D01*
X3019799Y3249000D01*
X3025200Y3240900D01*
X3033199Y3238200D01*
X3038599Y3238200D01*
X3046700Y3240900D01*
X3051999Y3249000D01*
X3054700Y3262399D01*
X3054700Y3270399D01*
X3051999Y3283899D01*
X3046700Y3291900D01*
X3038599Y3294600D01*
X3033199Y3294600D01*
X3088500Y3294600D02*
G01*
X3080500Y3291900D01*
X3075100Y3283899D01*
X3072399Y3270399D01*
X3072399Y3262399D01*
X3075100Y3249000D01*
X3080500Y3240900D01*
X3088500Y3238200D01*
X3093900Y3238200D01*
X3101999Y3240900D01*
X3107299Y3249000D01*
X3110000Y3262399D01*
X3110000Y3270399D01*
X3107299Y3283899D01*
X3101999Y3291900D01*
X3093900Y3294600D01*
X3088500Y3294600D01*
X3127700Y3283899D02*
G01*
X3133100Y3286500D01*
X3141199Y3294600D01*
X3141199Y3238200D01*
X3175000Y3294600D02*
G01*
X3166899Y3291900D01*
X3161599Y3283899D01*
X3158900Y3270399D01*
X3158900Y3262399D01*
X3161599Y3249000D01*
X3166899Y3240900D01*
X3175000Y3238200D01*
X3180299Y3238200D01*
X3188400Y3240900D01*
X3193800Y3249000D01*
X3196499Y3262399D01*
X3196499Y3270399D01*
X3193800Y3283899D01*
X3188400Y3291900D01*
X3180299Y3294600D01*
X3175000Y3294600D01*
X3230299Y3294600D02*
G01*
X3222200Y3291900D01*
X3216899Y3283899D01*
X3214200Y3270399D01*
X3214200Y3262399D01*
X3216899Y3249000D01*
X3222200Y3240900D01*
X3230299Y3238200D01*
X3235600Y3238200D01*
X3243699Y3240900D01*
X3249099Y3249000D01*
X3251700Y3262399D01*
X3251700Y3270399D01*
X3249099Y3283899D01*
X3243699Y3291900D01*
X3235600Y3294600D01*
X3230299Y3294600D01*
X3272100Y3281199D02*
G01*
X3272100Y3283899D01*
X3274799Y3289200D01*
X3277500Y3291900D01*
X3282899Y3294600D01*
X3293599Y3294600D01*
X3298999Y3291900D01*
X3301700Y3289200D01*
X3304399Y3283899D01*
X3304399Y3278499D01*
X3301700Y3273099D01*
X3296300Y3265100D01*
X3269499Y3238200D01*
X3306999Y3238200D01*
X405000Y1982699D02*
G01*
X405000Y1937600D01*
X405000Y1982699D02*
G01*
X424299Y1982699D01*
X430799Y1980500D01*
X432899Y1978400D01*
X435100Y1974099D01*
X435100Y1967600D01*
X432899Y1963299D01*
X430799Y1961199D01*
X424299Y1959099D01*
X405000Y1959099D01*
X449200Y1982699D02*
G01*
X460000Y1937600D01*
X470700Y1982699D02*
G01*
X460000Y1937600D01*
X470700Y1982699D02*
G01*
X481399Y1937600D01*
X492199Y1982699D02*
G01*
X481399Y1937600D01*
X506399Y1982699D02*
G01*
X506399Y1937600D01*
X506399Y1982699D02*
G01*
X525700Y1982699D01*
X532100Y1980500D01*
X534299Y1978400D01*
X536399Y1974099D01*
X536399Y1969800D01*
X534299Y1965500D01*
X532100Y1963299D01*
X525700Y1961199D01*
X506399Y1961199D01*
X521399Y1961199D02*
G01*
X536399Y1937600D01*
X422199Y2752700D02*
G01*
X405000Y2707600D01*
X422199Y2752700D02*
G01*
X439400Y2707600D01*
X411399Y2722600D02*
G01*
X432899Y2722600D01*
X485700Y2741900D02*
G01*
X483600Y2746199D01*
X479299Y2750500D01*
X475000Y2752700D01*
X466399Y2752700D01*
X462100Y2750500D01*
X457800Y2746199D01*
X455700Y2741900D01*
X453499Y2735500D01*
X453499Y2724800D01*
X455700Y2718299D01*
X457800Y2714000D01*
X462100Y2709699D01*
X466399Y2707600D01*
X475000Y2707600D01*
X479299Y2709699D01*
X483600Y2714000D01*
X485700Y2718299D01*
X514899Y2752700D02*
G01*
X514899Y2707600D01*
X499899Y2752700D02*
G01*
X530000Y2752700D01*
X577600Y958099D02*
G01*
X575100Y963099D01*
X570100Y968099D01*
X565100Y970599D01*
X555000Y970599D01*
X550000Y968099D01*
X545000Y963099D01*
X542500Y958099D01*
X540000Y950599D01*
X540000Y938000D01*
X542500Y930500D01*
X545000Y925500D01*
X550000Y920500D01*
X555000Y918000D01*
X565100Y918000D01*
X570100Y920500D01*
X575100Y925500D01*
X577600Y930500D01*
X606599Y953099D02*
G01*
X601599Y950599D01*
X596599Y945599D01*
X594099Y938000D01*
X594099Y933000D01*
X596599Y925500D01*
X601599Y920500D01*
X606599Y918000D01*
X614200Y918000D01*
X619200Y920500D01*
X624200Y925500D01*
X626700Y933000D01*
X626700Y938000D01*
X624200Y945599D01*
X619200Y950599D01*
X614200Y953099D01*
X606599Y953099D01*
X643200Y953099D02*
G01*
X643200Y900500D01*
X643200Y945599D02*
G01*
X648200Y950599D01*
X653200Y953099D01*
X660799Y953099D01*
X665799Y950599D01*
X670799Y945599D01*
X673299Y938000D01*
X673299Y933000D01*
X670799Y925500D01*
X665799Y920500D01*
X660799Y918000D01*
X653200Y918000D01*
X648200Y920500D01*
X643200Y925500D01*
X692300Y953099D02*
G01*
X707399Y918000D01*
X722399Y953099D02*
G01*
X707399Y918000D01*
X702300Y908000D01*
X697300Y903000D01*
X692300Y900500D01*
X689800Y900500D01*
X738899Y953099D02*
G01*
X738899Y918000D01*
X738899Y938000D02*
G01*
X741399Y945599D01*
X746399Y950599D01*
X751500Y953099D01*
X759000Y953099D01*
X775500Y970599D02*
G01*
X778000Y968099D01*
X780500Y970599D01*
X778000Y973099D01*
X775500Y970599D01*
X778000Y953099D02*
G01*
X778000Y918000D01*
X827100Y953099D02*
G01*
X827100Y913000D01*
X824600Y905500D01*
X822100Y903000D01*
X817100Y900500D01*
X809600Y900500D01*
X804600Y903000D01*
X827100Y945599D02*
G01*
X822100Y950599D01*
X817100Y953099D01*
X809600Y953099D01*
X804600Y950599D01*
X799600Y945599D01*
X797100Y938000D01*
X797100Y933000D01*
X799600Y925500D01*
X804600Y920500D01*
X809600Y918000D01*
X817100Y918000D01*
X822100Y920500D01*
X827100Y925500D01*
X843699Y970599D02*
G01*
X843699Y918000D01*
X843699Y943099D02*
G01*
X851199Y950599D01*
X856199Y953099D01*
X863699Y953099D01*
X868699Y950599D01*
X871199Y943099D01*
X871199Y918000D01*
X895299Y970599D02*
G01*
X895299Y928000D01*
X897799Y920500D01*
X902799Y918000D01*
X907799Y918000D01*
X887700Y953099D02*
G01*
X905299Y953099D01*
X980399Y980599D02*
G01*
X975399Y975599D01*
X970399Y968099D01*
X965399Y958099D01*
X962899Y945599D01*
X962899Y935500D01*
X965399Y923000D01*
X970399Y913000D01*
X975399Y905500D01*
X980399Y900500D01*
X1026999Y945599D02*
G01*
X1021999Y950599D01*
X1016999Y953099D01*
X1009499Y953099D01*
X1004499Y950599D01*
X999499Y945599D01*
X996999Y938000D01*
X996999Y933000D01*
X999499Y925500D01*
X1004499Y920500D01*
X1009499Y918000D01*
X1016999Y918000D01*
X1021999Y920500D01*
X1026999Y925500D01*
X1043599Y980599D02*
G01*
X1048599Y975599D01*
X1053599Y968099D01*
X1058599Y958099D01*
X1061099Y945599D01*
X1061099Y935500D01*
X1058599Y923000D01*
X1053599Y913000D01*
X1048599Y905500D01*
X1043599Y900500D01*
X1118699Y958099D02*
G01*
X1118699Y960599D01*
X1121199Y965599D01*
X1123699Y968099D01*
X1128800Y970599D01*
X1138800Y970599D01*
X1143800Y968099D01*
X1146300Y965599D01*
X1148800Y960599D01*
X1148800Y955599D01*
X1146300Y950599D01*
X1141300Y943099D01*
X1116199Y918000D01*
X1151300Y918000D01*
X1182899Y970599D02*
G01*
X1175399Y968099D01*
X1170299Y960599D01*
X1167799Y948099D01*
X1167799Y940599D01*
X1170299Y928000D01*
X1175399Y920500D01*
X1182899Y918000D01*
X1187899Y918000D01*
X1195399Y920500D01*
X1200399Y928000D01*
X1202899Y940599D01*
X1202899Y948099D01*
X1200399Y960599D01*
X1195399Y968099D01*
X1187899Y970599D01*
X1182899Y970599D01*
X1221999Y958099D02*
G01*
X1221999Y960599D01*
X1224499Y965599D01*
X1226999Y968099D01*
X1231999Y970599D01*
X1241999Y970599D01*
X1246999Y968099D01*
X1249499Y965599D01*
X1251999Y960599D01*
X1251999Y955599D01*
X1249499Y950599D01*
X1244499Y943099D01*
X1219499Y918000D01*
X1254499Y918000D01*
X1273599Y958099D02*
G01*
X1273599Y960599D01*
X1276099Y965599D01*
X1278599Y968099D01*
X1283599Y970599D01*
X1293599Y970599D01*
X1298599Y968099D01*
X1301099Y965599D01*
X1303599Y960599D01*
X1303599Y955599D01*
X1301099Y950599D01*
X1296099Y943099D01*
X1271099Y918000D01*
X1306099Y918000D01*
X1398800Y958099D02*
G01*
X1396300Y963099D01*
X1391300Y968099D01*
X1386300Y970599D01*
X1376300Y970599D01*
X1371300Y968099D01*
X1366300Y963099D01*
X1363800Y958099D01*
X1361300Y950599D01*
X1361300Y938000D01*
X1363800Y930500D01*
X1366300Y925500D01*
X1371300Y920500D01*
X1376300Y918000D01*
X1386300Y918000D01*
X1391300Y920500D01*
X1396300Y925500D01*
X1398800Y930500D01*
X1417899Y953099D02*
G01*
X1432899Y918000D01*
X1447899Y953099D02*
G01*
X1432899Y918000D01*
X1427899Y908000D01*
X1422899Y903000D01*
X1417899Y900500D01*
X1415399Y900500D01*
X1464499Y953099D02*
G01*
X1464499Y918000D01*
X1464499Y938000D02*
G01*
X1466999Y945599D01*
X1471999Y950599D01*
X1476999Y953099D01*
X1484499Y953099D01*
X1501099Y953099D02*
G01*
X1501099Y928000D01*
X1503599Y920500D01*
X1508599Y918000D01*
X1516099Y918000D01*
X1521099Y920500D01*
X1528599Y928000D01*
X1528599Y953099D02*
G01*
X1528599Y918000D01*
X1572700Y945599D02*
G01*
X1570200Y950599D01*
X1562700Y953099D01*
X1555200Y953099D01*
X1547700Y950599D01*
X1545200Y945599D01*
X1547700Y940599D01*
X1552700Y938000D01*
X1565200Y935500D01*
X1570200Y933000D01*
X1572700Y928000D01*
X1572700Y925500D01*
X1570200Y920500D01*
X1562700Y918000D01*
X1555200Y918000D01*
X1547700Y920500D01*
X1545200Y925500D01*
X1627799Y970599D02*
G01*
X1627799Y918000D01*
X1627799Y970599D02*
G01*
X1650399Y970599D01*
X1657899Y968099D01*
X1660399Y965599D01*
X1662899Y960599D01*
X1662899Y955599D01*
X1660399Y950599D01*
X1657899Y948099D01*
X1650399Y945599D01*
X1627799Y945599D02*
G01*
X1650399Y945599D01*
X1657899Y943099D01*
X1660399Y940599D01*
X1662899Y935500D01*
X1662899Y928000D01*
X1660399Y923000D01*
X1657899Y920500D01*
X1650399Y918000D01*
X1627799Y918000D01*
X1679399Y953099D02*
G01*
X1679399Y918000D01*
X1679399Y938000D02*
G01*
X1681899Y945599D01*
X1686999Y950599D01*
X1691999Y953099D01*
X1699499Y953099D01*
X1716000Y953099D02*
G01*
X1716000Y928000D01*
X1718500Y920500D01*
X1723500Y918000D01*
X1731000Y918000D01*
X1736099Y920500D01*
X1743599Y928000D01*
X1743599Y953099D02*
G01*
X1743599Y918000D01*
X1760100Y953099D02*
G01*
X1760100Y918000D01*
X1760100Y943099D02*
G01*
X1767600Y950599D01*
X1772600Y953099D01*
X1780200Y953099D01*
X1785200Y950599D01*
X1787700Y943099D01*
X1787700Y918000D01*
X1804200Y953099D02*
G01*
X1804200Y918000D01*
X1804200Y943099D02*
G01*
X1811700Y950599D01*
X1816700Y953099D01*
X1824200Y953099D01*
X1829300Y950599D01*
X1831800Y943099D01*
X1831800Y918000D01*
X1848299Y938000D02*
G01*
X1878400Y938000D01*
X1878400Y943099D01*
X1875900Y948099D01*
X1873400Y950599D01*
X1868299Y953099D01*
X1860799Y953099D01*
X1855799Y950599D01*
X1850799Y945599D01*
X1848299Y938000D01*
X1848299Y933000D01*
X1850799Y925500D01*
X1855799Y920500D01*
X1860799Y918000D01*
X1868299Y918000D01*
X1873400Y920500D01*
X1878400Y925500D01*
X1894899Y953099D02*
G01*
X1894899Y918000D01*
X1894899Y938000D02*
G01*
X1897399Y945599D01*
X1902399Y950599D01*
X1907399Y953099D01*
X1914899Y953099D01*
X797200Y847699D02*
G01*
X791800Y853099D01*
X786499Y855799D01*
X778400Y855799D01*
X773100Y853099D01*
X767700Y847699D01*
X765000Y839699D01*
X765000Y834299D01*
X767700Y826300D01*
X773100Y820900D01*
X778400Y818200D01*
X786499Y818200D01*
X791800Y820900D01*
X797200Y826300D01*
X817600Y855799D02*
G01*
X833699Y818200D01*
X849799Y855799D02*
G01*
X833699Y818200D01*
X828299Y807500D01*
X823000Y802100D01*
X817600Y799400D01*
X814899Y799400D01*
X867500Y855799D02*
G01*
X867500Y818200D01*
X867500Y839699D02*
G01*
X870200Y847699D01*
X875600Y853099D01*
X881000Y855799D01*
X888999Y855799D01*
X906700Y855799D02*
G01*
X906700Y829000D01*
X909399Y820900D01*
X914799Y818200D01*
X922799Y818200D01*
X928199Y820900D01*
X936300Y829000D01*
X936300Y855799D02*
G01*
X936300Y818200D01*
X983500Y847699D02*
G01*
X980799Y853099D01*
X972799Y855799D01*
X964700Y855799D01*
X956700Y853099D01*
X953999Y847699D01*
X956700Y842399D01*
X961999Y839699D01*
X975500Y836999D01*
X980799Y834299D01*
X983500Y829000D01*
X983500Y826300D01*
X980799Y820900D01*
X972799Y818200D01*
X964700Y818200D01*
X956700Y820900D01*
X953999Y826300D01*
X1001199Y874600D02*
G01*
X1001199Y818200D01*
X1001199Y847699D02*
G01*
X1006599Y853099D01*
X1011999Y855799D01*
X1020000Y855799D01*
X1025399Y853099D01*
X1030699Y847699D01*
X1033400Y839699D01*
X1033400Y834299D01*
X1030699Y826300D01*
X1025399Y820900D01*
X1020000Y818200D01*
X1011999Y818200D01*
X1006599Y820900D01*
X1001199Y826300D01*
X1051099Y855799D02*
G01*
X1051099Y829000D01*
X1053800Y820900D01*
X1059200Y818200D01*
X1067299Y818200D01*
X1072600Y820900D01*
X1080699Y829000D01*
X1080699Y855799D02*
G01*
X1080699Y818200D01*
X1098400Y874600D02*
G01*
X1101099Y871900D01*
X1103800Y874600D01*
X1101099Y877300D01*
X1098400Y874600D01*
X1101099Y855799D02*
G01*
X1101099Y818200D01*
X1121499Y874600D02*
G01*
X1121499Y818200D01*
X1147200Y874600D02*
G01*
X1147200Y829000D01*
X1149899Y820900D01*
X1155299Y818200D01*
X1160699Y818200D01*
X1139200Y855799D02*
G01*
X1158000Y855799D01*
X1218599Y853099D02*
G01*
X1216000Y858499D01*
X1210600Y861199D01*
X1202500Y861199D01*
X1197200Y858499D01*
X1194499Y855799D01*
X1191800Y847699D01*
X1191800Y839699D01*
X1194499Y834299D01*
X1199899Y831599D01*
X1207899Y831599D01*
X1213299Y834299D01*
X1216000Y839699D01*
X1202500Y861199D02*
G01*
X1197200Y855799D01*
X1194499Y847699D01*
X1194499Y839699D01*
X1197200Y834299D01*
X1199899Y831599D01*
X1218599Y861199D02*
G01*
X1216000Y839699D01*
X1216000Y834299D01*
X1221300Y831599D01*
X1226700Y831599D01*
X1232100Y836999D01*
X1234799Y845100D01*
X1234799Y850399D01*
X1232100Y858499D01*
X1229399Y863899D01*
X1223999Y869200D01*
X1218599Y871900D01*
X1210600Y874600D01*
X1202500Y874600D01*
X1194499Y871900D01*
X1189099Y869200D01*
X1183800Y863899D01*
X1181099Y858499D01*
X1178400Y850399D01*
X1178400Y842399D01*
X1181099Y834299D01*
X1183800Y829000D01*
X1189099Y823600D01*
X1194499Y820900D01*
X1202500Y818200D01*
X1210600Y818200D01*
X1218599Y820900D01*
X1223999Y823600D01*
X1226700Y826300D01*
X1221300Y861199D02*
G01*
X1218599Y839699D01*
X1218599Y834299D01*
X1221300Y831599D01*
X1284700Y855799D02*
G01*
X1284700Y812899D01*
X1281999Y804800D01*
X1279300Y802100D01*
X1273900Y799400D01*
X1265900Y799400D01*
X1260500Y802100D01*
X1284700Y847699D02*
G01*
X1279300Y853099D01*
X1273900Y855799D01*
X1265900Y855799D01*
X1260500Y853099D01*
X1255200Y847699D01*
X1252500Y839699D01*
X1252500Y834299D01*
X1255200Y826300D01*
X1260500Y820900D01*
X1265900Y818200D01*
X1273900Y818200D01*
X1279300Y820900D01*
X1284700Y826300D01*
X1302399Y855799D02*
G01*
X1302399Y818200D01*
X1302399Y845100D02*
G01*
X1310500Y853099D01*
X1315799Y855799D01*
X1323900Y855799D01*
X1329200Y853099D01*
X1331899Y845100D01*
X1331899Y818200D01*
X1331899Y845100D02*
G01*
X1340000Y853099D01*
X1345299Y855799D01*
X1353400Y855799D01*
X1358800Y853099D01*
X1361499Y845100D01*
X1361499Y818200D01*
X1411400Y855799D02*
G01*
X1411400Y818200D01*
X1411400Y847699D02*
G01*
X1406000Y853099D01*
X1400600Y855799D01*
X1392600Y855799D01*
X1387200Y853099D01*
X1381899Y847699D01*
X1379200Y839699D01*
X1379200Y834299D01*
X1381899Y826300D01*
X1387200Y820900D01*
X1392600Y818200D01*
X1400600Y818200D01*
X1406000Y820900D01*
X1411400Y826300D01*
X1429099Y874600D02*
G01*
X1431800Y871900D01*
X1434499Y874600D01*
X1431800Y877300D01*
X1429099Y874600D01*
X1431800Y855799D02*
G01*
X1431800Y818200D01*
X1452200Y874600D02*
G01*
X1452200Y818200D01*
X1472600Y831599D02*
G01*
X1469899Y829000D01*
X1472600Y826300D01*
X1475299Y829000D01*
X1472600Y831599D01*
X1525200Y847699D02*
G01*
X1519799Y853099D01*
X1514499Y855799D01*
X1506400Y855799D01*
X1501000Y853099D01*
X1495699Y847699D01*
X1493000Y839699D01*
X1493000Y834299D01*
X1495699Y826300D01*
X1501000Y820900D01*
X1506400Y818200D01*
X1514499Y818200D01*
X1519799Y820900D01*
X1525200Y826300D01*
X1556300Y855799D02*
G01*
X1551000Y853099D01*
X1545600Y847699D01*
X1542899Y839699D01*
X1542899Y834299D01*
X1545600Y826300D01*
X1551000Y820900D01*
X1556300Y818200D01*
X1564399Y818200D01*
X1569799Y820900D01*
X1575100Y826300D01*
X1577799Y834299D01*
X1577799Y839699D01*
X1575100Y847699D01*
X1569799Y853099D01*
X1564399Y855799D01*
X1556300Y855799D01*
X1595500Y855799D02*
G01*
X1595500Y818200D01*
X1595500Y845100D02*
G01*
X1603599Y853099D01*
X1608900Y855799D01*
X1616999Y855799D01*
X1622399Y853099D01*
X1625100Y845100D01*
X1625100Y818200D01*
X1625100Y845100D02*
G01*
X1633100Y853099D01*
X1638500Y855799D01*
X1646499Y855799D01*
X1651899Y853099D01*
X1654600Y845100D01*
X1654600Y818200D01*
X3456899Y1172600D02*
G01*
X3451899Y1170100D01*
X3446899Y1165100D01*
X3444399Y1160100D01*
X3444399Y1150000D01*
X3446899Y1145000D01*
X3451899Y1140000D01*
X3456899Y1137500D01*
X3464399Y1135000D01*
X3476999Y1135000D01*
X3484499Y1137500D01*
X3489499Y1140000D01*
X3494499Y1145000D01*
X3496999Y1150000D01*
X3496999Y1160100D01*
X3494499Y1165100D01*
X3489499Y1170100D01*
X3484499Y1172600D01*
X3461899Y1201599D02*
G01*
X3464399Y1196599D01*
X3469399Y1191599D01*
X3476999Y1189099D01*
X3481999Y1189099D01*
X3489499Y1191599D01*
X3494499Y1196599D01*
X3496999Y1201599D01*
X3496999Y1209200D01*
X3494499Y1214200D01*
X3489499Y1219200D01*
X3481999Y1221700D01*
X3476999Y1221700D01*
X3469399Y1219200D01*
X3464399Y1214200D01*
X3461899Y1209200D01*
X3461899Y1201599D01*
X3461899Y1238200D02*
G01*
X3496999Y1238200D01*
X3471899Y1238200D02*
G01*
X3464399Y1245700D01*
X3461899Y1250700D01*
X3461899Y1258299D01*
X3464399Y1263299D01*
X3471899Y1265799D01*
X3496999Y1265799D01*
X3444399Y1289800D02*
G01*
X3486999Y1289800D01*
X3494499Y1292300D01*
X3496999Y1297300D01*
X3496999Y1302399D01*
X3461899Y1282300D02*
G01*
X3461899Y1299899D01*
X3461899Y1318899D02*
G01*
X3496999Y1318899D01*
X3476999Y1318899D02*
G01*
X3469399Y1321399D01*
X3464399Y1326399D01*
X3461899Y1331399D01*
X3461899Y1338899D01*
X3461899Y1368000D02*
G01*
X3464399Y1363000D01*
X3469399Y1358000D01*
X3476999Y1355500D01*
X3481999Y1355500D01*
X3489499Y1358000D01*
X3494499Y1363000D01*
X3496999Y1368000D01*
X3496999Y1375500D01*
X3494499Y1380500D01*
X3489499Y1385500D01*
X3481999Y1388000D01*
X3476999Y1388000D01*
X3469399Y1385500D01*
X3464399Y1380500D01*
X3461899Y1375500D01*
X3461899Y1368000D01*
X3444399Y1404600D02*
G01*
X3496999Y1404600D01*
X3444399Y1459699D02*
G01*
X3496999Y1459699D01*
X3444399Y1459699D02*
G01*
X3444399Y1482199D01*
X3446899Y1489800D01*
X3449399Y1492300D01*
X3454399Y1494800D01*
X3461899Y1494800D01*
X3466899Y1492300D01*
X3469399Y1489800D01*
X3471899Y1482199D01*
X3471899Y1459699D01*
X3461899Y1541399D02*
G01*
X3496999Y1541399D01*
X3469399Y1541399D02*
G01*
X3464399Y1536399D01*
X3461899Y1531300D01*
X3461899Y1523800D01*
X3464399Y1518800D01*
X3469399Y1513800D01*
X3476999Y1511300D01*
X3481999Y1511300D01*
X3489499Y1513800D01*
X3494499Y1518800D01*
X3496999Y1523800D01*
X3496999Y1531300D01*
X3494499Y1536399D01*
X3489499Y1541399D01*
X3444399Y1588000D02*
G01*
X3496999Y1588000D01*
X3469399Y1588000D02*
G01*
X3464399Y1583000D01*
X3461899Y1577899D01*
X3461899Y1570399D01*
X3464399Y1565399D01*
X3469399Y1560399D01*
X3476999Y1557899D01*
X3481999Y1557899D01*
X3489499Y1560399D01*
X3494499Y1565399D01*
X3496999Y1570399D01*
X3496999Y1577899D01*
X3494499Y1583000D01*
X3489499Y1588000D01*
X3444399Y2310000D02*
G01*
X3496999Y2310000D01*
X3444399Y2310000D02*
G01*
X3444399Y2327500D01*
X3446899Y2335100D01*
X3451899Y2340100D01*
X3456899Y2342600D01*
X3464399Y2345100D01*
X3476999Y2345100D01*
X3484499Y2342600D01*
X3489499Y2340100D01*
X3494499Y2335100D01*
X3496999Y2327500D01*
X3496999Y2310000D01*
X3476999Y2361599D02*
G01*
X3476999Y2391700D01*
X3471899Y2391700D01*
X3466899Y2389200D01*
X3464399Y2386700D01*
X3461899Y2381700D01*
X3461899Y2374099D01*
X3464399Y2369099D01*
X3469399Y2364099D01*
X3476999Y2361599D01*
X3481999Y2361599D01*
X3489499Y2364099D01*
X3494499Y2369099D01*
X3496999Y2374099D01*
X3496999Y2381700D01*
X3494499Y2386700D01*
X3489499Y2391700D01*
X3469399Y2435799D02*
G01*
X3464399Y2433299D01*
X3461899Y2425700D01*
X3461899Y2418200D01*
X3464399Y2410700D01*
X3469399Y2408200D01*
X3474399Y2410700D01*
X3476999Y2415700D01*
X3479499Y2428299D01*
X3481999Y2433299D01*
X3486999Y2435799D01*
X3489499Y2435799D01*
X3494499Y2433299D01*
X3496999Y2425700D01*
X3496999Y2418200D01*
X3494499Y2410700D01*
X3489499Y2408200D01*
X3444399Y2452300D02*
G01*
X3496999Y2452300D01*
X3461899Y2477399D02*
G01*
X3486999Y2452300D01*
X3476999Y2462300D02*
G01*
X3496999Y2479899D01*
X3456899Y2572600D02*
G01*
X3451899Y2570100D01*
X3446899Y2565000D01*
X3444399Y2560000D01*
X3444399Y2550000D01*
X3446899Y2545000D01*
X3451899Y2540000D01*
X3456899Y2537500D01*
X3464399Y2535000D01*
X3476999Y2535000D01*
X3484499Y2537500D01*
X3489499Y2540000D01*
X3494499Y2545000D01*
X3496999Y2550000D01*
X3496999Y2560000D01*
X3494499Y2565000D01*
X3489499Y2570100D01*
X3484499Y2572600D01*
X3461899Y2601599D02*
G01*
X3464399Y2596599D01*
X3469399Y2591599D01*
X3476999Y2589099D01*
X3481999Y2589099D01*
X3489499Y2591599D01*
X3494499Y2596599D01*
X3496999Y2601599D01*
X3496999Y2609099D01*
X3494499Y2614200D01*
X3489499Y2619200D01*
X3481999Y2621700D01*
X3476999Y2621700D01*
X3469399Y2619200D01*
X3464399Y2614200D01*
X3461899Y2609099D01*
X3461899Y2601599D01*
X3461899Y2638200D02*
G01*
X3496999Y2638200D01*
X3471899Y2638200D02*
G01*
X3464399Y2645700D01*
X3461899Y2650700D01*
X3461899Y2658200D01*
X3464399Y2663299D01*
X3471899Y2665799D01*
X3496999Y2665799D01*
X3444399Y2689800D02*
G01*
X3486999Y2689800D01*
X3494499Y2692300D01*
X3496999Y2697300D01*
X3496999Y2702300D01*
X3461899Y2682300D02*
G01*
X3461899Y2699800D01*
X3461899Y2718899D02*
G01*
X3496999Y2718899D01*
X3476999Y2718899D02*
G01*
X3469399Y2721399D01*
X3464399Y2726399D01*
X3461899Y2731399D01*
X3461899Y2738899D01*
X3461899Y2768000D02*
G01*
X3464399Y2763000D01*
X3469399Y2758000D01*
X3476999Y2755500D01*
X3481999Y2755500D01*
X3489499Y2758000D01*
X3494499Y2763000D01*
X3496999Y2768000D01*
X3496999Y2775500D01*
X3494499Y2780500D01*
X3489499Y2785500D01*
X3481999Y2788000D01*
X3476999Y2788000D01*
X3469399Y2785500D01*
X3464399Y2780500D01*
X3461899Y2775500D01*
X3461899Y2768000D01*
X3444399Y2804600D02*
G01*
X3496999Y2804600D01*
X3444399Y2821100D02*
G01*
X3496999Y2821100D01*
X3476999Y2837600D02*
G01*
X3476999Y2867700D01*
X3471899Y2867700D01*
X3466899Y2865200D01*
X3464399Y2862700D01*
X3461899Y2857700D01*
X3461899Y2850200D01*
X3464399Y2845100D01*
X3469399Y2840100D01*
X3476999Y2837600D01*
X3481999Y2837600D01*
X3489499Y2840100D01*
X3494499Y2845100D01*
X3496999Y2850200D01*
X3496999Y2857700D01*
X3494499Y2862700D01*
X3489499Y2867700D01*
X3461899Y2884200D02*
G01*
X3496999Y2884200D01*
X3476999Y2884200D02*
G01*
X3469399Y2886700D01*
X3464399Y2891700D01*
X3461899Y2896799D01*
X3461899Y2904299D01*
X645799Y1104299D02*
G01*
X610000Y1010399D01*
X645799Y1104299D02*
G01*
X681599Y1010399D01*
X623400Y1041700D02*
G01*
X668200Y1041700D01*
X711100Y1073000D02*
G01*
X711100Y1010399D01*
X711100Y1046199D02*
G01*
X715599Y1059600D01*
X724499Y1068499D01*
X733499Y1073000D01*
X746900Y1073000D01*
X830100Y1104299D02*
G01*
X830100Y1010399D01*
X830100Y1059600D02*
G01*
X821199Y1068499D01*
X812200Y1073000D01*
X798800Y1073000D01*
X789799Y1068499D01*
X780900Y1059600D01*
X776400Y1046199D01*
X776400Y1037199D01*
X780900Y1023800D01*
X789799Y1014800D01*
X798800Y1010399D01*
X812200Y1010399D01*
X821199Y1014800D01*
X830100Y1023800D01*
X859600Y1073000D02*
G01*
X859600Y1028299D01*
X864099Y1014800D01*
X873100Y1010399D01*
X886499Y1010399D01*
X895399Y1014800D01*
X908900Y1028299D01*
X908900Y1073000D02*
G01*
X908900Y1010399D01*
X938400Y1104299D02*
G01*
X938400Y1010399D01*
X938400Y1104299D02*
G01*
X969700Y1104299D01*
X983100Y1099800D01*
X992100Y1090900D01*
X996499Y1081999D01*
X1001000Y1068499D01*
X1001000Y1046199D01*
X996499Y1032699D01*
X992100Y1023800D01*
X983100Y1014800D01*
X969700Y1010399D01*
X938400Y1010399D01*
X1030500Y1046199D02*
G01*
X1084200Y1046199D01*
X1084200Y1055100D01*
X1079799Y1064099D01*
X1075299Y1068499D01*
X1066300Y1073000D01*
X1052899Y1073000D01*
X1043999Y1068499D01*
X1035000Y1059600D01*
X1030500Y1046199D01*
X1030500Y1037199D01*
X1035000Y1023800D01*
X1043999Y1014800D01*
X1052899Y1010399D01*
X1066300Y1010399D01*
X1075299Y1014800D01*
X1084200Y1023800D01*
X1163000Y1059600D02*
G01*
X1158500Y1068499D01*
X1145100Y1073000D01*
X1131700Y1073000D01*
X1118199Y1068499D01*
X1113800Y1059600D01*
X1118199Y1050599D01*
X1127200Y1046199D01*
X1149499Y1041700D01*
X1158500Y1037199D01*
X1163000Y1028299D01*
X1163000Y1023800D01*
X1158500Y1014800D01*
X1145100Y1010399D01*
X1131700Y1010399D01*
X1118199Y1014800D01*
X1113800Y1023800D01*
X1192500Y1104299D02*
G01*
X1192500Y1010399D01*
X1237200Y1073000D02*
G01*
X1192500Y1028299D01*
X1210399Y1046199D02*
G01*
X1241700Y1010399D01*
X1340100Y1104299D02*
G01*
X1340100Y1010399D01*
X1340100Y1104299D02*
G01*
X1380399Y1104299D01*
X1393800Y1099800D01*
X1398299Y1095399D01*
X1402799Y1086399D01*
X1402799Y1077500D01*
X1398299Y1068499D01*
X1393800Y1064099D01*
X1380399Y1059600D01*
X1340100Y1059600D01*
X1371499Y1059600D02*
G01*
X1402799Y1010399D01*
X1432299Y1046199D02*
G01*
X1486000Y1046199D01*
X1486000Y1055100D01*
X1481499Y1064099D01*
X1476999Y1068499D01*
X1468100Y1073000D01*
X1454700Y1073000D01*
X1445699Y1068499D01*
X1436800Y1059600D01*
X1432299Y1046199D01*
X1432299Y1037199D01*
X1436800Y1023800D01*
X1445699Y1014800D01*
X1454700Y1010399D01*
X1468100Y1010399D01*
X1476999Y1014800D01*
X1486000Y1023800D01*
X1515500Y1073000D02*
G01*
X1542399Y1010399D01*
X1569200Y1073000D02*
G01*
X1542399Y1010399D01*
X1667600Y1086399D02*
G01*
X1676599Y1090900D01*
X1690000Y1104299D01*
X1690000Y1010399D01*
X1723999Y1032699D02*
G01*
X1719499Y1028299D01*
X1723999Y1023800D01*
X1728500Y1028299D01*
X1723999Y1032699D01*
X1784799Y1104299D02*
G01*
X1771400Y1099800D01*
X1762500Y1086399D01*
X1758000Y1064099D01*
X1758000Y1050599D01*
X1762500Y1028299D01*
X1771400Y1014800D01*
X1784799Y1010399D01*
X1793800Y1010399D01*
X1807200Y1014800D01*
X1816199Y1028299D01*
X1820600Y1050599D01*
X1820600Y1064099D01*
X1816199Y1086399D01*
X1807200Y1099800D01*
X1793800Y1104299D01*
X1784799Y1104299D01*
D10*
X1782299Y2780399D02*
G01*
X1778199Y2778400D01*
X1774099Y2774299D01*
X1771999Y2770200D01*
X1770000Y2764000D01*
X1770000Y2753800D01*
X1771999Y2747700D01*
X1774099Y2743600D01*
X1778199Y2739499D01*
X1782299Y2737500D01*
X1790500Y2737500D01*
X1794499Y2739499D01*
X1798599Y2743600D01*
X1800699Y2747700D01*
X1802700Y2753800D01*
X1802700Y2764000D01*
X1800699Y2770200D01*
X1798599Y2774299D01*
X1794499Y2778400D01*
X1790500Y2780399D01*
X1782299Y2780399D01*
X1816199Y2780399D02*
G01*
X1816199Y2737500D01*
X1816199Y2780399D02*
G01*
X1834600Y2780399D01*
X1840799Y2778400D01*
X1842799Y2776300D01*
X1844899Y2772199D01*
X1844899Y2766100D01*
X1842799Y2761999D01*
X1840799Y2760000D01*
X1834600Y2757899D01*
X1816199Y2757899D01*
X1858400Y2780399D02*
G01*
X1858400Y2737500D01*
X1858400Y2780399D02*
G01*
X1885000Y2780399D01*
X1858400Y2760000D02*
G01*
X1874700Y2760000D01*
X1858400Y2737500D02*
G01*
X1885000Y2737500D01*
X1898500Y2780399D02*
G01*
X1898500Y2737500D01*
X1898500Y2780399D02*
G01*
X1927100Y2737500D01*
X1927100Y2780399D02*
G01*
X1927100Y2737500D01*
X1940600Y2755900D02*
G01*
X1977399Y2755900D01*
X1990900Y2780399D02*
G01*
X1990900Y2737500D01*
X2019499Y2780399D02*
G01*
X2019499Y2737500D01*
X1990900Y2760000D02*
G01*
X2019499Y2760000D01*
X2049399Y2780399D02*
G01*
X2033000Y2737500D01*
X2049399Y2780399D02*
G01*
X2065799Y2737500D01*
X2039200Y2751799D02*
G01*
X2059600Y2751799D01*
X2079300Y2780399D02*
G01*
X2079300Y2737500D01*
X2079300Y2780399D02*
G01*
X2097700Y2780399D01*
X2103800Y2778400D01*
X2105900Y2776300D01*
X2107899Y2772199D01*
X2107899Y2768099D01*
X2105900Y2764000D01*
X2103800Y2761999D01*
X2097700Y2760000D01*
X2079300Y2760000D01*
X2093599Y2760000D02*
G01*
X2107899Y2737500D01*
X2121400Y2780399D02*
G01*
X2121400Y2737500D01*
X2121400Y2780399D02*
G01*
X2135699Y2780399D01*
X2141899Y2778400D01*
X2146000Y2774299D01*
X2148000Y2770200D01*
X2150000Y2764000D01*
X2150000Y2753800D01*
X2148000Y2747700D01*
X2146000Y2743600D01*
X2141899Y2739499D01*
X2135699Y2737500D01*
X2121400Y2737500D01*
X2163500Y2780399D02*
G01*
X2173800Y2737500D01*
X2183999Y2780399D02*
G01*
X2173800Y2737500D01*
X2183999Y2780399D02*
G01*
X2194200Y2737500D01*
X2204499Y2780399D02*
G01*
X2194200Y2737500D01*
X2234300Y2780399D02*
G01*
X2218000Y2737500D01*
X2234300Y2780399D02*
G01*
X2250699Y2737500D01*
X2224099Y2751799D02*
G01*
X2244499Y2751799D01*
X2264200Y2780399D02*
G01*
X2264200Y2737500D01*
X2264200Y2780399D02*
G01*
X2282600Y2780399D01*
X2288699Y2778400D01*
X2290799Y2776300D01*
X2292799Y2772199D01*
X2292799Y2768099D01*
X2290799Y2764000D01*
X2288699Y2761999D01*
X2282600Y2760000D01*
X2264200Y2760000D01*
X2278500Y2760000D02*
G01*
X2292799Y2737500D01*
X2306300Y2780399D02*
G01*
X2306300Y2737500D01*
X2306300Y2780399D02*
G01*
X2332899Y2780399D01*
X2306300Y2760000D02*
G01*
X2322700Y2760000D01*
X2306300Y2737500D02*
G01*
X2332899Y2737500D01*
X3529540Y2930000D02*
G01*
X3572541Y2930000D01*
X3529540Y2930000D02*
G01*
X3529540Y2948400D01*
X3531640Y2954499D01*
X3533640Y2956599D01*
X3537740Y2958600D01*
X3541841Y2958600D01*
X3545941Y2956599D01*
X3548041Y2954499D01*
X3550041Y2948400D01*
X3550041Y2930000D01*
X3550041Y2944299D02*
G01*
X3572541Y2958600D01*
X3529540Y2992600D02*
G01*
X3562340Y2992600D01*
X3568441Y2990500D01*
X3570541Y2988499D01*
X3572541Y2984400D01*
X3572541Y2980300D01*
X3570541Y2976199D01*
X3568441Y2974200D01*
X3562340Y2972100D01*
X3558240Y2972100D01*
X3537740Y3006100D02*
G01*
X3535740Y3010200D01*
X3529540Y3016300D01*
X3572541Y3016300D01*
X3529540Y1675000D02*
G01*
X3572541Y1675000D01*
X3529540Y1675000D02*
G01*
X3529540Y1693400D01*
X3531640Y1699499D01*
X3533640Y1701599D01*
X3537740Y1703600D01*
X3541841Y1703600D01*
X3545941Y1701599D01*
X3548041Y1699499D01*
X3550041Y1693400D01*
X3550041Y1675000D01*
X3550041Y1689299D02*
G01*
X3572541Y1703600D01*
X3529540Y1737600D02*
G01*
X3562340Y1737600D01*
X3568441Y1735500D01*
X3570541Y1733499D01*
X3572541Y1729400D01*
X3572541Y1725300D01*
X3570541Y1721199D01*
X3568441Y1719200D01*
X3562340Y1717100D01*
X3558240Y1717100D01*
X3539840Y1753099D02*
G01*
X3537740Y1753099D01*
X3533640Y1755199D01*
X3531640Y1757199D01*
X3529540Y1761300D01*
X3529540Y1769499D01*
X3531640Y1773600D01*
X3533640Y1775599D01*
X3537740Y1777699D01*
X3541841Y1777699D01*
X3545941Y1775599D01*
X3552040Y1771500D01*
X3572541Y1751100D01*
X3572541Y1779699D01*
X1170000Y3275399D02*
G01*
X1170000Y3244699D01*
X1171999Y3238600D01*
X1176099Y3234499D01*
X1182299Y3232500D01*
X1186400Y3232500D01*
X1192500Y3234499D01*
X1196599Y3238600D01*
X1198599Y3244699D01*
X1198599Y3275399D01*
X1212100Y3267199D02*
G01*
X1216199Y3269299D01*
X1222399Y3275399D01*
X1222399Y3232500D01*
D11*
X1250699Y3095000D02*
G01*
X1174399Y3095000D01*
X1250699Y3044099D02*
G01*
X1174399Y3044099D01*
X1214399Y3095000D02*
G01*
X1214399Y3044099D01*
X1225299Y3020100D02*
G01*
X1188900Y3020100D01*
X1178000Y3016500D01*
X1174399Y3009200D01*
X1174399Y2998299D01*
X1178000Y2990999D01*
X1188900Y2980100D01*
X1225299Y2980100D02*
G01*
X1174399Y2980100D01*
X1225299Y2916100D02*
G01*
X1174399Y2956100D01*
X1225299Y2956100D02*
G01*
X1225299Y2916100D01*
X1174399Y2956100D02*
G01*
X1174399Y2916100D01*
X1225299Y2852100D02*
G01*
X1174399Y2892100D01*
X1225299Y2892100D02*
G01*
X1225299Y2852100D01*
X1174399Y2892100D02*
G01*
X1174399Y2852100D01*
X1225299Y2784499D02*
G01*
X1174399Y2784499D01*
X1214399Y2784499D02*
G01*
X1221599Y2791700D01*
X1225299Y2799000D01*
X1225299Y2809899D01*
X1221599Y2817199D01*
X1214399Y2824499D01*
X1203500Y2828099D01*
X1196199Y2828099D01*
X1185299Y2824499D01*
X1178000Y2817199D01*
X1174399Y2809899D01*
X1174399Y2799000D01*
X1178000Y2791700D01*
X1185299Y2784499D01*
X1250699Y2760500D02*
G01*
X1174399Y2760500D01*
X1210699Y2760500D02*
G01*
X1221599Y2749499D01*
X1225299Y2742300D01*
X1225299Y2731399D01*
X1221599Y2724099D01*
X1210699Y2720500D01*
X1174399Y2720500D01*
X1250699Y2640500D02*
G01*
X1174399Y2640500D01*
X1250699Y2640500D02*
G01*
X1250699Y2593200D01*
X1214399Y2640500D02*
G01*
X1214399Y2611399D01*
X1174399Y2640500D02*
G01*
X1174399Y2593200D01*
X1239799Y2518299D02*
G01*
X1247100Y2525500D01*
X1250699Y2536500D01*
X1250699Y2550999D01*
X1247100Y2561900D01*
X1239799Y2569200D01*
X1232500Y2569200D01*
X1225299Y2565500D01*
X1221599Y2561900D01*
X1218000Y2554600D01*
X1210699Y2532800D01*
X1207100Y2525500D01*
X1203500Y2521900D01*
X1196199Y2518299D01*
X1185299Y2518299D01*
X1178000Y2525500D01*
X1174399Y2536500D01*
X1174399Y2550999D01*
X1178000Y2561900D01*
X1185299Y2569200D01*
X1250699Y2494299D02*
G01*
X1174399Y2494299D01*
X1250699Y2494299D02*
G01*
X1250699Y2461500D01*
X1247100Y2450599D01*
X1243500Y2446999D01*
X1236199Y2443400D01*
X1225299Y2443400D01*
X1218000Y2446999D01*
X1214399Y2450599D01*
X1210699Y2461500D01*
X1210699Y2494299D01*
X1250699Y2401199D02*
G01*
X1247100Y2412100D01*
X1239799Y2415700D01*
X1232500Y2415700D01*
X1225299Y2412100D01*
X1221599Y2404800D01*
X1218000Y2390300D01*
X1214399Y2379400D01*
X1207100Y2372100D01*
X1199799Y2368499D01*
X1188900Y2368499D01*
X1181599Y2372100D01*
X1178000Y2375700D01*
X1174399Y2386599D01*
X1174399Y2401199D01*
X1178000Y2412100D01*
X1181599Y2415700D01*
X1188900Y2419400D01*
X1199799Y2419400D01*
X1207100Y2415700D01*
X1214399Y2408499D01*
X1218000Y2397500D01*
X1221599Y2383000D01*
X1225299Y2375700D01*
X1232500Y2372100D01*
X1239799Y2372100D01*
X1247100Y2375700D01*
X1250699Y2386599D01*
X1250699Y2401199D01*
X1232500Y2340799D02*
G01*
X1236199Y2340799D01*
X1243500Y2337199D01*
X1247100Y2333499D01*
X1250699Y2326300D01*
X1250699Y2311700D01*
X1247100Y2304499D01*
X1243500Y2300799D01*
X1236199Y2297199D01*
X1228900Y2297199D01*
X1221599Y2300799D01*
X1210699Y2308099D01*
X1174399Y2344499D01*
X1174399Y2293499D01*
X1239799Y2225900D02*
G01*
X1247100Y2229499D01*
X1250699Y2240500D01*
X1250699Y2247700D01*
X1247100Y2258600D01*
X1236199Y2265900D01*
X1218000Y2269499D01*
X1199799Y2269499D01*
X1185299Y2265900D01*
X1178000Y2258600D01*
X1174399Y2247700D01*
X1174399Y2244099D01*
X1178000Y2233200D01*
X1185299Y2225900D01*
X1196199Y2222300D01*
X1199799Y2222300D01*
X1210699Y2225900D01*
X1218000Y2233200D01*
X1221599Y2244099D01*
X1221599Y2247700D01*
X1218000Y2258600D01*
X1210699Y2265900D01*
X1199799Y2269499D01*
X1239799Y2154600D02*
G01*
X1247100Y2158299D01*
X1250699Y2169200D01*
X1250699Y2176500D01*
X1247100Y2187399D01*
X1236199Y2194600D01*
X1218000Y2198299D01*
X1199799Y2198299D01*
X1185299Y2194600D01*
X1178000Y2187399D01*
X1174399Y2176500D01*
X1174399Y2172800D01*
X1178000Y2161900D01*
X1185299Y2154600D01*
X1196199Y2150999D01*
X1199799Y2150999D01*
X1210699Y2154600D01*
X1218000Y2161900D01*
X1221599Y2172800D01*
X1221599Y2176500D01*
X1218000Y2187399D01*
X1210699Y2194600D01*
X1199799Y2198299D01*
D10*
X600000Y2555399D02*
G01*
X600000Y2512500D01*
X600000Y2555399D02*
G01*
X614299Y2555399D01*
X620500Y2553400D01*
X624499Y2549299D01*
X626599Y2545200D01*
X628600Y2539000D01*
X628600Y2528800D01*
X626599Y2522700D01*
X624499Y2518600D01*
X620500Y2514499D01*
X614299Y2512500D01*
X600000Y2512500D01*
X642100Y2547199D02*
G01*
X646199Y2549299D01*
X652399Y2555399D01*
X652399Y2512500D01*
X620000Y1725399D02*
G01*
X620000Y1682500D01*
X620000Y1725399D02*
G01*
X634299Y1725399D01*
X640500Y1723400D01*
X644499Y1719299D01*
X646599Y1715199D01*
X648600Y1709000D01*
X648600Y1698800D01*
X646599Y1692699D01*
X644499Y1688600D01*
X640500Y1684499D01*
X634299Y1682500D01*
X620000Y1682500D01*
X664200Y1715199D02*
G01*
X664200Y1717199D01*
X666199Y1721300D01*
X668299Y1723400D01*
X672399Y1725399D01*
X680500Y1725399D01*
X684600Y1723400D01*
X686700Y1721300D01*
X688699Y1717199D01*
X688699Y1713099D01*
X686700Y1709000D01*
X682600Y1702899D01*
X662100Y1682500D01*
X690799Y1682500D01*
X1535000Y1490399D02*
G01*
X1535000Y1447500D01*
X1563599Y1490399D02*
G01*
X1563599Y1447500D01*
X1535000Y1470000D02*
G01*
X1563599Y1470000D01*
X1577100Y1482199D02*
G01*
X1581199Y1484299D01*
X1587399Y1490399D01*
X1587399Y1447500D01*
X3212299Y2490399D02*
G01*
X3208199Y2488400D01*
X3204099Y2484299D01*
X3201999Y2480200D01*
X3200000Y2474000D01*
X3200000Y2463800D01*
X3201999Y2457700D01*
X3204099Y2453600D01*
X3208199Y2449499D01*
X3212299Y2447500D01*
X3220500Y2447500D01*
X3224499Y2449499D01*
X3228599Y2453600D01*
X3230699Y2457700D01*
X3232700Y2463800D01*
X3232700Y2474000D01*
X3230699Y2480200D01*
X3228599Y2484299D01*
X3224499Y2488400D01*
X3220500Y2490399D01*
X3212299Y2490399D01*
X3218400Y2455599D02*
G01*
X3230699Y2443400D01*
X3246199Y2482199D02*
G01*
X3250299Y2484299D01*
X3256499Y2490399D01*
X3256499Y2447500D01*
X3207299Y2820399D02*
G01*
X3203199Y2818400D01*
X3199099Y2814299D01*
X3196999Y2810200D01*
X3195000Y2804000D01*
X3195000Y2793800D01*
X3196999Y2787700D01*
X3199099Y2783600D01*
X3203199Y2779499D01*
X3207299Y2777500D01*
X3215500Y2777500D01*
X3219499Y2779499D01*
X3223599Y2783600D01*
X3225699Y2787700D01*
X3227700Y2793800D01*
X3227700Y2804000D01*
X3225699Y2810200D01*
X3223599Y2814299D01*
X3219499Y2818400D01*
X3215500Y2820399D01*
X3207299Y2820399D01*
X3213400Y2785599D02*
G01*
X3225699Y2773400D01*
X3243299Y2810200D02*
G01*
X3243299Y2812199D01*
X3245299Y2816300D01*
X3247399Y2818400D01*
X3251499Y2820399D01*
X3259600Y2820399D01*
X3263699Y2818400D01*
X3265799Y2816300D01*
X3267799Y2812199D01*
X3267799Y2808099D01*
X3265799Y2804000D01*
X3261700Y2797899D01*
X3241199Y2777500D01*
X3269899Y2777500D01*
X3207299Y3155399D02*
G01*
X3203199Y3153400D01*
X3199099Y3149299D01*
X3196999Y3145200D01*
X3195000Y3139000D01*
X3195000Y3128800D01*
X3196999Y3122700D01*
X3199099Y3118600D01*
X3203199Y3114499D01*
X3207299Y3112500D01*
X3215500Y3112500D01*
X3219499Y3114499D01*
X3223599Y3118600D01*
X3225699Y3122700D01*
X3227700Y3128800D01*
X3227700Y3139000D01*
X3225699Y3145200D01*
X3223599Y3149299D01*
X3219499Y3153400D01*
X3215500Y3155399D01*
X3207299Y3155399D01*
X3213400Y3120599D02*
G01*
X3225699Y3108400D01*
X3245299Y3155399D02*
G01*
X3267799Y3155399D01*
X3255500Y3139000D01*
X3261700Y3139000D01*
X3265799Y3136999D01*
X3267799Y3135000D01*
X3269899Y3128800D01*
X3269899Y3124699D01*
X3267799Y3118600D01*
X3263699Y3114499D01*
X3257600Y3112500D01*
X3251499Y3112500D01*
X3245299Y3114499D01*
X3243299Y3116500D01*
X3241199Y3120599D01*
X3212299Y1940399D02*
G01*
X3208199Y1938400D01*
X3204099Y1934299D01*
X3201999Y1930199D01*
X3200000Y1924000D01*
X3200000Y1913800D01*
X3201999Y1907699D01*
X3204099Y1903600D01*
X3208199Y1899499D01*
X3212299Y1897500D01*
X3220500Y1897500D01*
X3224499Y1899499D01*
X3228599Y1903600D01*
X3230699Y1907699D01*
X3232700Y1913800D01*
X3232700Y1924000D01*
X3230699Y1930199D01*
X3228599Y1934299D01*
X3224499Y1938400D01*
X3220500Y1940399D01*
X3212299Y1940399D01*
X3218400Y1905599D02*
G01*
X3230699Y1893400D01*
X3266700Y1940399D02*
G01*
X3246199Y1911799D01*
X3276899Y1911799D01*
X3266700Y1940399D02*
G01*
X3266700Y1897500D01*
X3217299Y1605399D02*
G01*
X3213199Y1603400D01*
X3209099Y1599299D01*
X3206999Y1595199D01*
X3205000Y1589000D01*
X3205000Y1578800D01*
X3206999Y1572699D01*
X3209099Y1568600D01*
X3213199Y1564499D01*
X3217299Y1562500D01*
X3225500Y1562500D01*
X3229499Y1564499D01*
X3233599Y1568600D01*
X3235699Y1572699D01*
X3237700Y1578800D01*
X3237700Y1589000D01*
X3235699Y1595199D01*
X3233599Y1599299D01*
X3229499Y1603400D01*
X3225500Y1605399D01*
X3217299Y1605399D01*
X3223400Y1570599D02*
G01*
X3235699Y1558400D01*
X3275799Y1605399D02*
G01*
X3255299Y1605399D01*
X3253299Y1586999D01*
X3255299Y1589000D01*
X3261499Y1591100D01*
X3267600Y1591100D01*
X3273699Y1589000D01*
X3277799Y1585000D01*
X3279899Y1578800D01*
X3279899Y1574699D01*
X3277799Y1568600D01*
X3273699Y1564499D01*
X3267600Y1562500D01*
X3261499Y1562500D01*
X3255299Y1564499D01*
X3253299Y1566500D01*
X3251199Y1570599D01*
X3217299Y1245399D02*
G01*
X3213199Y1243400D01*
X3209099Y1239299D01*
X3206999Y1235199D01*
X3205000Y1229000D01*
X3205000Y1218800D01*
X3206999Y1212699D01*
X3209099Y1208600D01*
X3213199Y1204499D01*
X3217299Y1202500D01*
X3225500Y1202500D01*
X3229499Y1204499D01*
X3233599Y1208600D01*
X3235699Y1212699D01*
X3237700Y1218800D01*
X3237700Y1229000D01*
X3235699Y1235199D01*
X3233599Y1239299D01*
X3229499Y1243400D01*
X3225500Y1245399D01*
X3217299Y1245399D01*
X3223400Y1210599D02*
G01*
X3235699Y1198400D01*
X3275799Y1239299D02*
G01*
X3273699Y1243400D01*
X3267600Y1245399D01*
X3263500Y1245399D01*
X3257399Y1243400D01*
X3253299Y1237199D01*
X3251199Y1226999D01*
X3251199Y1216799D01*
X3253299Y1208600D01*
X3257399Y1204499D01*
X3263500Y1202500D01*
X3265500Y1202500D01*
X3271700Y1204499D01*
X3275799Y1208600D01*
X3277799Y1214699D01*
X3277799Y1216799D01*
X3275799Y1222899D01*
X3271700Y1226999D01*
X3265500Y1229000D01*
X3263500Y1229000D01*
X3257399Y1226999D01*
X3253299Y1222899D01*
X3251199Y1216799D01*
X2740000Y2405399D02*
G01*
X2740000Y2362500D01*
X2740000Y2405399D02*
G01*
X2758400Y2405399D01*
X2764499Y2403400D01*
X2766599Y2401300D01*
X2768599Y2397199D01*
X2768599Y2393099D01*
X2766599Y2389000D01*
X2764499Y2386999D01*
X2758400Y2385000D01*
X2740000Y2385000D01*
X2754300Y2385000D02*
G01*
X2768599Y2362500D01*
X2782100Y2397199D02*
G01*
X2786199Y2399299D01*
X2792399Y2405399D01*
X2792399Y2362500D01*
D12*
X2690000Y2312600D02*
G01*
X2693599Y2314400D01*
X2698900Y2319699D01*
X2698900Y2282100D01*
X2721499Y2319699D02*
G01*
X2716099Y2317899D01*
X2712500Y2312600D01*
X2710799Y2303600D01*
X2710799Y2298299D01*
X2712500Y2289299D01*
X2716099Y2283899D01*
X2721499Y2282100D01*
X2725100Y2282100D01*
X2730399Y2283899D01*
X2733999Y2289299D01*
X2735799Y2298299D01*
X2735799Y2303600D01*
X2733999Y2312600D01*
X2730399Y2317899D01*
X2725100Y2319699D01*
X2721499Y2319699D01*
X2747600Y2319699D02*
G01*
X2747600Y2282100D01*
X2772700Y2319699D02*
G01*
X2747600Y2294699D01*
X2756599Y2303600D02*
G01*
X2772700Y2282100D01*
D10*
X2735000Y2230399D02*
G01*
X2735000Y2187500D01*
X2735000Y2230399D02*
G01*
X2753400Y2230399D01*
X2759499Y2228400D01*
X2761599Y2226300D01*
X2763599Y2222199D01*
X2763599Y2218099D01*
X2761599Y2214000D01*
X2759499Y2211999D01*
X2753400Y2210000D01*
X2735000Y2210000D01*
X2749300Y2210000D02*
G01*
X2763599Y2187500D01*
X2779200Y2220200D02*
G01*
X2779200Y2222199D01*
X2781199Y2226300D01*
X2783299Y2228400D01*
X2787399Y2230399D01*
X2795500Y2230399D01*
X2799600Y2228400D01*
X2801700Y2226300D01*
X2803699Y2222199D01*
X2803699Y2218099D01*
X2801700Y2214000D01*
X2797600Y2207899D01*
X2777100Y2187500D01*
X2805799Y2187500D01*
D12*
X2685000Y2137600D02*
G01*
X2688599Y2139400D01*
X2693900Y2144699D01*
X2693900Y2107100D01*
X2716499Y2144699D02*
G01*
X2711099Y2142899D01*
X2707500Y2137600D01*
X2705799Y2128600D01*
X2705799Y2123299D01*
X2707500Y2114299D01*
X2711099Y2108899D01*
X2716499Y2107100D01*
X2720100Y2107100D01*
X2725399Y2108899D01*
X2728999Y2114299D01*
X2730799Y2123299D01*
X2730799Y2128600D01*
X2728999Y2137600D01*
X2725399Y2142899D01*
X2720100Y2144699D01*
X2716499Y2144699D01*
X2742600Y2144699D02*
G01*
X2742600Y2107100D01*
X2767700Y2144699D02*
G01*
X2742600Y2119699D01*
X2751599Y2128600D02*
G01*
X2767700Y2107100D01*
D10*
X2735000Y2740399D02*
G01*
X2735000Y2697500D01*
X2735000Y2740399D02*
G01*
X2753400Y2740399D01*
X2759499Y2738400D01*
X2761599Y2736300D01*
X2763599Y2732199D01*
X2763599Y2728099D01*
X2761599Y2724000D01*
X2759499Y2721999D01*
X2753400Y2720000D01*
X2735000Y2720000D01*
X2749300Y2720000D02*
G01*
X2763599Y2697500D01*
X2781199Y2740399D02*
G01*
X2803699Y2740399D01*
X2791499Y2724000D01*
X2797600Y2724000D01*
X2801700Y2721999D01*
X2803699Y2720000D01*
X2805799Y2713800D01*
X2805799Y2709699D01*
X2803699Y2703600D01*
X2799600Y2699499D01*
X2793500Y2697500D01*
X2787399Y2697500D01*
X2781199Y2699499D01*
X2779200Y2701500D01*
X2777100Y2705599D01*
D12*
X2685000Y2647600D02*
G01*
X2688599Y2649400D01*
X2693900Y2654699D01*
X2693900Y2617100D01*
X2716499Y2654699D02*
G01*
X2711099Y2652899D01*
X2707500Y2647600D01*
X2705799Y2638600D01*
X2705799Y2633299D01*
X2707500Y2624299D01*
X2711099Y2618899D01*
X2716499Y2617100D01*
X2720100Y2617100D01*
X2725399Y2618899D01*
X2728999Y2624299D01*
X2730799Y2633299D01*
X2730799Y2638600D01*
X2728999Y2647600D01*
X2725399Y2652899D01*
X2720100Y2654699D01*
X2716499Y2654699D01*
X2742600Y2654699D02*
G01*
X2742600Y2617100D01*
X2767700Y2654699D02*
G01*
X2742600Y2629699D01*
X2751599Y2638600D02*
G01*
X2767700Y2617100D01*
D10*
X2735000Y2575399D02*
G01*
X2735000Y2532500D01*
X2735000Y2575399D02*
G01*
X2753400Y2575399D01*
X2759499Y2573400D01*
X2761599Y2571300D01*
X2763599Y2567199D01*
X2763599Y2563099D01*
X2761599Y2559000D01*
X2759499Y2556999D01*
X2753400Y2555000D01*
X2735000Y2555000D01*
X2749300Y2555000D02*
G01*
X2763599Y2532500D01*
X2797600Y2575399D02*
G01*
X2777100Y2546799D01*
X2807799Y2546799D01*
X2797600Y2575399D02*
G01*
X2797600Y2532500D01*
D12*
X2685000Y2482600D02*
G01*
X2688599Y2484400D01*
X2693900Y2489699D01*
X2693900Y2452100D01*
X2716499Y2489699D02*
G01*
X2711099Y2487899D01*
X2707500Y2482600D01*
X2705799Y2473600D01*
X2705799Y2468299D01*
X2707500Y2459299D01*
X2711099Y2453899D01*
X2716499Y2452100D01*
X2720100Y2452100D01*
X2725399Y2453899D01*
X2728999Y2459299D01*
X2730799Y2468299D01*
X2730799Y2473600D01*
X2728999Y2482600D01*
X2725399Y2487899D01*
X2720100Y2489699D01*
X2716499Y2489699D01*
X2742600Y2489699D02*
G01*
X2742600Y2452100D01*
X2767700Y2489699D02*
G01*
X2742600Y2464699D01*
X2751599Y2473600D02*
G01*
X2767700Y2452100D01*
D10*
X2720000Y3075399D02*
G01*
X2720000Y3032500D01*
X2720000Y3075399D02*
G01*
X2738400Y3075399D01*
X2744499Y3073400D01*
X2746599Y3071300D01*
X2748599Y3067199D01*
X2748599Y3063099D01*
X2746599Y3059000D01*
X2744499Y3056999D01*
X2738400Y3055000D01*
X2720000Y3055000D01*
X2734300Y3055000D02*
G01*
X2748599Y3032500D01*
X2786700Y3075399D02*
G01*
X2766199Y3075399D01*
X2764200Y3056999D01*
X2766199Y3059000D01*
X2772399Y3061100D01*
X2778500Y3061100D01*
X2784600Y3059000D01*
X2788699Y3055000D01*
X2790799Y3048800D01*
X2790799Y3044699D01*
X2788699Y3038600D01*
X2784600Y3034499D01*
X2778500Y3032500D01*
X2772399Y3032500D01*
X2766199Y3034499D01*
X2764200Y3036500D01*
X2762100Y3040599D01*
D12*
X2675000Y2977600D02*
G01*
X2678599Y2979400D01*
X2683900Y2984699D01*
X2683900Y2947100D01*
X2706499Y2984699D02*
G01*
X2701099Y2982899D01*
X2697500Y2977600D01*
X2695799Y2968600D01*
X2695799Y2963299D01*
X2697500Y2954299D01*
X2701099Y2948899D01*
X2706499Y2947100D01*
X2710100Y2947100D01*
X2715399Y2948899D01*
X2718999Y2954299D01*
X2720799Y2963299D01*
X2720799Y2968600D01*
X2718999Y2977600D01*
X2715399Y2982899D01*
X2710100Y2984699D01*
X2706499Y2984699D01*
X2732600Y2984699D02*
G01*
X2732600Y2947100D01*
X2757700Y2984699D02*
G01*
X2732600Y2959699D01*
X2741599Y2968600D02*
G01*
X2757700Y2947100D01*
D10*
X2725000Y2905399D02*
G01*
X2725000Y2862500D01*
X2725000Y2905399D02*
G01*
X2743400Y2905399D01*
X2749499Y2903400D01*
X2751599Y2901300D01*
X2753599Y2897199D01*
X2753599Y2893099D01*
X2751599Y2889000D01*
X2749499Y2886999D01*
X2743400Y2885000D01*
X2725000Y2885000D01*
X2739300Y2885000D02*
G01*
X2753599Y2862500D01*
X2791700Y2899299D02*
G01*
X2789600Y2903400D01*
X2783500Y2905399D01*
X2779399Y2905399D01*
X2773299Y2903400D01*
X2769200Y2897199D01*
X2767100Y2886999D01*
X2767100Y2876799D01*
X2769200Y2868600D01*
X2773299Y2864499D01*
X2779399Y2862500D01*
X2781499Y2862500D01*
X2787600Y2864499D01*
X2791700Y2868600D01*
X2793699Y2874699D01*
X2793699Y2876799D01*
X2791700Y2882899D01*
X2787600Y2886999D01*
X2781499Y2889000D01*
X2779399Y2889000D01*
X2773299Y2886999D01*
X2769200Y2882899D01*
X2767100Y2876799D01*
D12*
X2675000Y2812600D02*
G01*
X2678599Y2814400D01*
X2683900Y2819699D01*
X2683900Y2782100D01*
X2706499Y2819699D02*
G01*
X2701099Y2817899D01*
X2697500Y2812600D01*
X2695799Y2803600D01*
X2695799Y2798299D01*
X2697500Y2789299D01*
X2701099Y2783899D01*
X2706499Y2782100D01*
X2710100Y2782100D01*
X2715399Y2783899D01*
X2718999Y2789299D01*
X2720799Y2798299D01*
X2720799Y2803600D01*
X2718999Y2812600D01*
X2715399Y2817899D01*
X2710100Y2819699D01*
X2706499Y2819699D01*
X2732600Y2819699D02*
G01*
X2732600Y2782100D01*
X2757700Y2819699D02*
G01*
X2732600Y2794699D01*
X2741599Y2803600D02*
G01*
X2757700Y2782100D01*
D10*
X2735000Y1695399D02*
G01*
X2735000Y1652500D01*
X2735000Y1695399D02*
G01*
X2753400Y1695399D01*
X2759499Y1693400D01*
X2761599Y1691300D01*
X2763599Y1687199D01*
X2763599Y1683099D01*
X2761599Y1679000D01*
X2759499Y1676999D01*
X2753400Y1675000D01*
X2735000Y1675000D01*
X2749300Y1675000D02*
G01*
X2763599Y1652500D01*
X2805799Y1695399D02*
G01*
X2785299Y1652500D01*
X2777100Y1695399D02*
G01*
X2805799Y1695399D01*
D12*
X2685000Y1602600D02*
G01*
X2688599Y1604400D01*
X2693900Y1609699D01*
X2693900Y1572100D01*
X2716499Y1609699D02*
G01*
X2711099Y1607899D01*
X2707500Y1602600D01*
X2705799Y1593600D01*
X2705799Y1588299D01*
X2707500Y1579299D01*
X2711099Y1573899D01*
X2716499Y1572100D01*
X2720100Y1572100D01*
X2725399Y1573899D01*
X2728999Y1579299D01*
X2730799Y1588299D01*
X2730799Y1593600D01*
X2728999Y1602600D01*
X2725399Y1607899D01*
X2720100Y1609699D01*
X2716499Y1609699D01*
X2742600Y1609699D02*
G01*
X2742600Y1572100D01*
X2767700Y1609699D02*
G01*
X2742600Y1584699D01*
X2751599Y1593600D02*
G01*
X2767700Y1572100D01*
D10*
X2740000Y1860399D02*
G01*
X2740000Y1817500D01*
X2740000Y1860399D02*
G01*
X2758400Y1860399D01*
X2764499Y1858400D01*
X2766599Y1856300D01*
X2768599Y1852199D01*
X2768599Y1848099D01*
X2766599Y1844000D01*
X2764499Y1841999D01*
X2758400Y1840000D01*
X2740000Y1840000D01*
X2754300Y1840000D02*
G01*
X2768599Y1817500D01*
X2792399Y1860399D02*
G01*
X2786199Y1858400D01*
X2784200Y1854299D01*
X2784200Y1850199D01*
X2786199Y1846100D01*
X2790299Y1844000D01*
X2798500Y1841999D01*
X2804600Y1840000D01*
X2808699Y1835900D01*
X2810799Y1831799D01*
X2810799Y1825599D01*
X2808699Y1821500D01*
X2806700Y1819499D01*
X2800500Y1817500D01*
X2792399Y1817500D01*
X2786199Y1819499D01*
X2784200Y1821500D01*
X2782100Y1825599D01*
X2782100Y1831799D01*
X2784200Y1835900D01*
X2788299Y1840000D01*
X2794399Y1841999D01*
X2802600Y1844000D01*
X2806700Y1846100D01*
X2808699Y1850199D01*
X2808699Y1854299D01*
X2806700Y1858400D01*
X2800500Y1860399D01*
X2792399Y1860399D01*
D12*
X2690000Y1767600D02*
G01*
X2693599Y1769400D01*
X2698900Y1774699D01*
X2698900Y1737100D01*
X2721499Y1774699D02*
G01*
X2716099Y1772899D01*
X2712500Y1767600D01*
X2710799Y1758600D01*
X2710799Y1753299D01*
X2712500Y1744299D01*
X2716099Y1738899D01*
X2721499Y1737100D01*
X2725100Y1737100D01*
X2730399Y1738899D01*
X2733999Y1744299D01*
X2735799Y1753299D01*
X2735799Y1758600D01*
X2733999Y1767600D01*
X2730399Y1772899D01*
X2725100Y1774699D01*
X2721499Y1774699D01*
X2747600Y1774699D02*
G01*
X2747600Y1737100D01*
X2772700Y1774699D02*
G01*
X2747600Y1749699D01*
X2756599Y1758600D02*
G01*
X2772700Y1737100D01*
D10*
X2750000Y1340399D02*
G01*
X2750000Y1297500D01*
X2750000Y1340399D02*
G01*
X2768400Y1340399D01*
X2774499Y1338400D01*
X2776599Y1336300D01*
X2778599Y1332199D01*
X2778599Y1328099D01*
X2776599Y1324000D01*
X2774499Y1321999D01*
X2768400Y1320000D01*
X2750000Y1320000D01*
X2764300Y1320000D02*
G01*
X2778599Y1297500D01*
X2818699Y1326100D02*
G01*
X2816700Y1320000D01*
X2812600Y1315900D01*
X2806499Y1313800D01*
X2804399Y1313800D01*
X2798299Y1315900D01*
X2794200Y1320000D01*
X2792100Y1326100D01*
X2792100Y1328099D01*
X2794200Y1334299D01*
X2798299Y1338400D01*
X2804399Y1340399D01*
X2806499Y1340399D01*
X2812600Y1338400D01*
X2816700Y1334299D01*
X2818699Y1326100D01*
X2818699Y1315900D01*
X2816700Y1305599D01*
X2812600Y1299499D01*
X2806499Y1297500D01*
X2802399Y1297500D01*
X2796199Y1299499D01*
X2794200Y1303600D01*
D12*
X2685000Y1247600D02*
G01*
X2688599Y1249400D01*
X2693900Y1254699D01*
X2693900Y1217100D01*
X2716499Y1254699D02*
G01*
X2711099Y1252899D01*
X2707500Y1247600D01*
X2705799Y1238600D01*
X2705799Y1233299D01*
X2707500Y1224299D01*
X2711099Y1218899D01*
X2716499Y1217100D01*
X2720100Y1217100D01*
X2725399Y1218899D01*
X2728999Y1224299D01*
X2730799Y1233299D01*
X2730799Y1238600D01*
X2728999Y1247600D01*
X2725399Y1252899D01*
X2720100Y1254699D01*
X2716499Y1254699D01*
X2742600Y1254699D02*
G01*
X2742600Y1217100D01*
X2767700Y1254699D02*
G01*
X2742600Y1229699D01*
X2751599Y1238600D02*
G01*
X2767700Y1217100D01*
D10*
X2735000Y1520399D02*
G01*
X2735000Y1477500D01*
X2735000Y1520399D02*
G01*
X2753400Y1520399D01*
X2759499Y1518400D01*
X2761599Y1516300D01*
X2763599Y1512199D01*
X2763599Y1508099D01*
X2761599Y1504000D01*
X2759499Y1501999D01*
X2753400Y1500000D01*
X2735000Y1500000D01*
X2749300Y1500000D02*
G01*
X2763599Y1477500D01*
X2777100Y1512199D02*
G01*
X2781199Y1514299D01*
X2787399Y1520399D01*
X2787399Y1477500D01*
X2813100Y1520399D02*
G01*
X2806999Y1518400D01*
X2802899Y1512199D01*
X2800900Y1501999D01*
X2800900Y1495900D01*
X2802899Y1485599D01*
X2806999Y1479499D01*
X2813100Y1477500D01*
X2817200Y1477500D01*
X2823400Y1479499D01*
X2827500Y1485599D01*
X2829499Y1495900D01*
X2829499Y1501999D01*
X2827500Y1512199D01*
X2823400Y1518400D01*
X2817200Y1520399D01*
X2813100Y1520399D01*
D12*
X2685000Y1427600D02*
G01*
X2688599Y1429400D01*
X2693900Y1434699D01*
X2693900Y1397100D01*
X2716499Y1434699D02*
G01*
X2711099Y1432899D01*
X2707500Y1427600D01*
X2705799Y1418600D01*
X2705799Y1413299D01*
X2707500Y1404299D01*
X2711099Y1398899D01*
X2716499Y1397100D01*
X2720100Y1397100D01*
X2725399Y1398899D01*
X2728999Y1404299D01*
X2730799Y1413299D01*
X2730799Y1418600D01*
X2728999Y1427600D01*
X2725399Y1432899D01*
X2720100Y1434699D01*
X2716499Y1434699D01*
X2742600Y1434699D02*
G01*
X2742600Y1397100D01*
X2767700Y1434699D02*
G01*
X2742600Y1409699D01*
X2751599Y1418600D02*
G01*
X2767700Y1397100D01*
D10*
X2735000Y990399D02*
G01*
X2735000Y947500D01*
X2735000Y990399D02*
G01*
X2753400Y990399D01*
X2759499Y988400D01*
X2761599Y986300D01*
X2763599Y982199D01*
X2763599Y978099D01*
X2761599Y974000D01*
X2759499Y971999D01*
X2753400Y970000D01*
X2735000Y970000D01*
X2749300Y970000D02*
G01*
X2763599Y947500D01*
X2777100Y982199D02*
G01*
X2781199Y984299D01*
X2787399Y990399D01*
X2787399Y947500D01*
X2800900Y982199D02*
G01*
X2805000Y984299D01*
X2811099Y990399D01*
X2811099Y947500D01*
D12*
X2685000Y897600D02*
G01*
X2688599Y899400D01*
X2693900Y904699D01*
X2693900Y867100D01*
X2716499Y904699D02*
G01*
X2711099Y902899D01*
X2707500Y897600D01*
X2705799Y888600D01*
X2705799Y883299D01*
X2707500Y874299D01*
X2711099Y868899D01*
X2716499Y867100D01*
X2720100Y867100D01*
X2725399Y868899D01*
X2728999Y874299D01*
X2730799Y883299D01*
X2730799Y888600D01*
X2728999Y897600D01*
X2725399Y902899D01*
X2720100Y904699D01*
X2716499Y904699D01*
X2742600Y904699D02*
G01*
X2742600Y867100D01*
X2767700Y904699D02*
G01*
X2742600Y879699D01*
X2751599Y888600D02*
G01*
X2767700Y867100D01*
D10*
X2735000Y1165399D02*
G01*
X2735000Y1122500D01*
X2735000Y1165399D02*
G01*
X2753400Y1165399D01*
X2759499Y1163400D01*
X2761599Y1161300D01*
X2763599Y1157199D01*
X2763599Y1153099D01*
X2761599Y1149000D01*
X2759499Y1146999D01*
X2753400Y1145000D01*
X2735000Y1145000D01*
X2749300Y1145000D02*
G01*
X2763599Y1122500D01*
X2777100Y1157199D02*
G01*
X2781199Y1159299D01*
X2787399Y1165399D01*
X2787399Y1122500D01*
X2802899Y1155199D02*
G01*
X2802899Y1157199D01*
X2805000Y1161300D01*
X2806999Y1163400D01*
X2811099Y1165399D01*
X2819300Y1165399D01*
X2823400Y1163400D01*
X2825399Y1161300D01*
X2827500Y1157199D01*
X2827500Y1153099D01*
X2825399Y1149000D01*
X2821300Y1142899D01*
X2800900Y1122500D01*
X2829499Y1122500D01*
D12*
X2685000Y1072600D02*
G01*
X2688599Y1074400D01*
X2693900Y1079699D01*
X2693900Y1042100D01*
X2716499Y1079699D02*
G01*
X2711099Y1077899D01*
X2707500Y1072600D01*
X2705799Y1063600D01*
X2705799Y1058299D01*
X2707500Y1049299D01*
X2711099Y1043899D01*
X2716499Y1042100D01*
X2720100Y1042100D01*
X2725399Y1043899D01*
X2728999Y1049299D01*
X2730799Y1058299D01*
X2730799Y1063600D01*
X2728999Y1072600D01*
X2725399Y1077899D01*
X2720100Y1079699D01*
X2716499Y1079699D01*
X2742600Y1079699D02*
G01*
X2742600Y1042100D01*
X2767700Y1079699D02*
G01*
X2742600Y1054699D01*
X2751599Y1063600D02*
G01*
X2767700Y1042100D01*
D10*
X535399Y1360000D02*
G01*
X492500Y1360000D01*
X535399Y1360000D02*
G01*
X535399Y1341599D01*
X533400Y1335500D01*
X531300Y1333400D01*
X527199Y1331399D01*
X523099Y1331399D01*
X519000Y1333400D01*
X516999Y1335500D01*
X515000Y1341599D01*
X515000Y1360000D01*
X515000Y1345700D02*
G01*
X492500Y1331399D01*
X527199Y1317899D02*
G01*
X529299Y1313800D01*
X535399Y1307600D01*
X492500Y1307600D01*
X535399Y1290000D02*
G01*
X535399Y1267500D01*
X519000Y1279800D01*
X519000Y1273699D01*
X516999Y1269600D01*
X515000Y1267500D01*
X508800Y1265500D01*
X504699Y1265500D01*
X498600Y1267500D01*
X494499Y1271599D01*
X492500Y1277800D01*
X492500Y1283899D01*
X494499Y1290000D01*
X496500Y1292100D01*
X500599Y1294099D01*
G36*
X2028200Y3051780D02*
G01*
X2023680Y3007320D01*
X2013640Y3004380D01*
X2003959Y3000400D01*
X1994800Y2995340D01*
X1960160Y3023580D01*
X1936420Y2999840D01*
X1964660Y2965200D01*
X1959620Y2956040D01*
X1955600Y2946360D01*
X1952700Y2936300D01*
X1908240Y2931800D01*
X1908240Y2898200D01*
X1952700Y2893700D01*
X1955600Y2883639D01*
X1959620Y2873960D01*
X1964660Y2864800D01*
X1936420Y2830160D01*
X1960160Y2806420D01*
X1994800Y2834660D01*
X2001620Y2830779D01*
X2008740Y2827480D01*
X2028520Y2875220D01*
X2023959Y2877420D01*
X2019700Y2880160D01*
X2015780Y2883380D01*
X2012260Y2887040D01*
X2009180Y2891080D01*
X2006620Y2895460D01*
X2004600Y2900100D01*
X2003140Y2904940D01*
X2002240Y2909940D01*
X2001940Y2915000D01*
X2002260Y2920299D01*
X2003240Y2925520D01*
X2004860Y2930580D01*
X2007080Y2935419D01*
X2009880Y2939920D01*
X2013200Y2944060D01*
X2017040Y2947740D01*
X2021279Y2950940D01*
X2025880Y2953580D01*
X2030780Y2955659D01*
X2035880Y2957080D01*
X2041140Y2957900D01*
X2046459Y2958039D01*
X2051720Y2957540D01*
X2056920Y2956380D01*
X2061920Y2954600D01*
X2066680Y2952220D01*
X2071080Y2949260D01*
X2075100Y2945800D01*
X2078680Y2941840D01*
X2081720Y2937500D01*
X2084220Y2932799D01*
X2086100Y2927840D01*
X2087380Y2922679D01*
X2087980Y2917420D01*
X2087960Y2912100D01*
X2087280Y2906840D01*
X2085960Y2901680D01*
X2084000Y2896760D01*
X2081459Y2892080D01*
X2078360Y2887780D01*
X2074760Y2883880D01*
X2070700Y2880460D01*
X2066260Y2877559D01*
X2061480Y2875220D01*
X2081260Y2827480D01*
X2088380Y2830779D01*
X2095200Y2834660D01*
X2129840Y2806420D01*
X2153580Y2830160D01*
X2125340Y2864800D01*
X2130380Y2873960D01*
X2134400Y2883639D01*
X2137300Y2893700D01*
X2181760Y2898200D01*
X2181760Y2931800D01*
X2137300Y2936300D01*
X2134400Y2946360D01*
X2130380Y2956040D01*
X2125340Y2965200D01*
X2153580Y2999840D01*
X2129840Y3023580D01*
X2095200Y2995340D01*
X2086040Y3000400D01*
X2076360Y3004380D01*
X2066320Y3007320D01*
X2061800Y3051780D01*
G37*
D13*
X2095200Y2834659D02*
G01*
X2129830Y2806419D01*
X2153580Y2830169D01*
X2125339Y2864800D01*
X2137309Y2893690D02*
G01*
X2181769Y2898209D01*
X2181769Y2931790D01*
X2137309Y2936309D01*
X2125339Y2965200D02*
G01*
X2153580Y2999830D01*
X2129830Y3023580D01*
X2095200Y2995340D01*
X2066310Y3007310D02*
G01*
X2061790Y3051770D01*
X2028209Y3051770D01*
X2023689Y3007310D01*
X1994799Y2995340D02*
G01*
X1960169Y3023580D01*
X1936419Y2999830D01*
X1964660Y2965200D01*
X1952690Y2936309D02*
G01*
X1908230Y2931790D01*
X1908230Y2898209D01*
X1952690Y2893690D01*
X1964660Y2864800D02*
G01*
X1936419Y2830169D01*
X1960169Y2806419D01*
X1994799Y2834659D01*
X2008739Y2827480D02*
G01*
X2028519Y2875219D01*
X2061480Y2875219D02*
G01*
X2081260Y2827480D01*
D14*
X4030033Y2910000D02*
G01*
X3525000Y2910000D01*
X3525000Y2290000D01*
X4365000Y2910000D02*
G01*
X4134848Y2910000D01*
X4030033Y2290000D02*
G01*
X3525000Y2290000D01*
X4365000Y2910000D02*
G01*
X4365000Y2290000D01*
X4134848Y2290000D01*
X4030033Y1655000D02*
G01*
X3525000Y1655000D01*
X3525000Y1035000D01*
X4365000Y1655000D02*
G01*
X4134848Y1655000D01*
X4030033Y1035000D02*
G01*
X3525000Y1035000D01*
X4365000Y1655000D02*
G01*
X4365000Y1035000D01*
X4134848Y1035000D01*
X725000Y3220000D02*
G01*
X1700000Y3220000D01*
X1700000Y1735000D01*
X725000Y1735000D01*
X725000Y3220000D01*
X382206Y2626181D02*
G01*
X382206Y2523818D01*
X375000Y1855000D02*
G01*
X375000Y1705000D01*
D15*
X910000Y1439133D02*
G01*
X1510000Y1439133D01*
D11*
X1510000Y1439133D02*
G01*
X1510000Y1580866D01*
X910000Y1580866D01*
X910000Y1439133D01*
D14*
X3060000Y2205000D02*
G01*
X3350000Y2205000D01*
X3055000Y2535000D02*
G01*
X3345000Y2535000D01*
X3055000Y2870000D02*
G01*
X3345000Y2870000D01*
X3060000Y1655000D02*
G01*
X3350000Y1655000D01*
X3065000Y1320000D02*
G01*
X3355000Y1320000D01*
X3065000Y960000D02*
G01*
X3355000Y960000D01*
D16*
X2615000Y2265000D02*
G01*
X2615000Y2335000D01*
X2625000Y2345000D02*
G01*
X2640000Y2345000D01*
X2645000Y2340000D02*
G01*
X2640000Y2345000D01*
X2625000Y2255000D02*
G01*
X2640000Y2255000D01*
X2645000Y2260000D02*
G01*
X2640000Y2255000D01*
X2835000Y2340000D02*
G01*
X2840000Y2345000D01*
X2835000Y2260000D02*
G01*
X2840000Y2255000D01*
X2855000Y2345000D02*
G01*
X2840000Y2345000D01*
X2855000Y2255000D02*
G01*
X2840000Y2255000D01*
X2865000Y2265000D02*
G01*
X2865000Y2335000D01*
X2835000Y2260000D02*
G01*
X2645000Y2260000D01*
X2835000Y2340000D02*
G01*
X2645000Y2340000D01*
X2610000Y2090000D02*
G01*
X2610000Y2160000D01*
X2620000Y2170000D02*
G01*
X2635000Y2170000D01*
X2640000Y2165000D02*
G01*
X2635000Y2170000D01*
X2620000Y2080000D02*
G01*
X2635000Y2080000D01*
X2640000Y2085000D02*
G01*
X2635000Y2080000D01*
X2830000Y2165000D02*
G01*
X2835000Y2170000D01*
X2830000Y2085000D02*
G01*
X2835000Y2080000D01*
X2850000Y2170000D02*
G01*
X2835000Y2170000D01*
X2850000Y2080000D02*
G01*
X2835000Y2080000D01*
X2860000Y2090000D02*
G01*
X2860000Y2160000D01*
X2830000Y2085000D02*
G01*
X2640000Y2085000D01*
X2830000Y2165000D02*
G01*
X2640000Y2165000D01*
X2610000Y2600000D02*
G01*
X2610000Y2670000D01*
X2620000Y2680000D02*
G01*
X2635000Y2680000D01*
X2640000Y2675000D02*
G01*
X2635000Y2680000D01*
X2620000Y2590000D02*
G01*
X2635000Y2590000D01*
X2640000Y2595000D02*
G01*
X2635000Y2590000D01*
X2830000Y2675000D02*
G01*
X2835000Y2680000D01*
X2830000Y2595000D02*
G01*
X2835000Y2590000D01*
X2850000Y2680000D02*
G01*
X2835000Y2680000D01*
X2850000Y2590000D02*
G01*
X2835000Y2590000D01*
X2860000Y2600000D02*
G01*
X2860000Y2670000D01*
X2830000Y2595000D02*
G01*
X2640000Y2595000D01*
X2830000Y2675000D02*
G01*
X2640000Y2675000D01*
X2610000Y2435000D02*
G01*
X2610000Y2505000D01*
X2620000Y2515000D02*
G01*
X2635000Y2515000D01*
X2640000Y2510000D02*
G01*
X2635000Y2515000D01*
X2620000Y2425000D02*
G01*
X2635000Y2425000D01*
X2640000Y2430000D02*
G01*
X2635000Y2425000D01*
X2830000Y2510000D02*
G01*
X2835000Y2515000D01*
X2830000Y2430000D02*
G01*
X2835000Y2425000D01*
X2850000Y2515000D02*
G01*
X2835000Y2515000D01*
X2850000Y2425000D02*
G01*
X2835000Y2425000D01*
X2860000Y2435000D02*
G01*
X2860000Y2505000D01*
X2830000Y2430000D02*
G01*
X2640000Y2430000D01*
X2830000Y2510000D02*
G01*
X2640000Y2510000D01*
X2600000Y2930000D02*
G01*
X2600000Y3000000D01*
X2610000Y3010000D02*
G01*
X2625000Y3010000D01*
X2630000Y3005000D02*
G01*
X2625000Y3010000D01*
X2610000Y2920000D02*
G01*
X2625000Y2920000D01*
X2630000Y2925000D02*
G01*
X2625000Y2920000D01*
X2820000Y3005000D02*
G01*
X2825000Y3010000D01*
X2820000Y2925000D02*
G01*
X2825000Y2920000D01*
X2840000Y3010000D02*
G01*
X2825000Y3010000D01*
X2840000Y2920000D02*
G01*
X2825000Y2920000D01*
X2850000Y2930000D02*
G01*
X2850000Y3000000D01*
X2820000Y2925000D02*
G01*
X2630000Y2925000D01*
X2820000Y3005000D02*
G01*
X2630000Y3005000D01*
X2600000Y2765000D02*
G01*
X2600000Y2835000D01*
X2610000Y2845000D02*
G01*
X2625000Y2845000D01*
X2630000Y2840000D02*
G01*
X2625000Y2845000D01*
X2610000Y2755000D02*
G01*
X2625000Y2755000D01*
X2630000Y2760000D02*
G01*
X2625000Y2755000D01*
X2820000Y2840000D02*
G01*
X2825000Y2845000D01*
X2820000Y2760000D02*
G01*
X2825000Y2755000D01*
X2840000Y2845000D02*
G01*
X2825000Y2845000D01*
X2840000Y2755000D02*
G01*
X2825000Y2755000D01*
X2850000Y2765000D02*
G01*
X2850000Y2835000D01*
X2820000Y2760000D02*
G01*
X2630000Y2760000D01*
X2820000Y2840000D02*
G01*
X2630000Y2840000D01*
X2610000Y1555000D02*
G01*
X2610000Y1625000D01*
X2620000Y1635000D02*
G01*
X2635000Y1635000D01*
X2640000Y1630000D02*
G01*
X2635000Y1635000D01*
X2620000Y1545000D02*
G01*
X2635000Y1545000D01*
X2640000Y1550000D02*
G01*
X2635000Y1545000D01*
X2830000Y1630000D02*
G01*
X2835000Y1635000D01*
X2830000Y1550000D02*
G01*
X2835000Y1545000D01*
X2850000Y1635000D02*
G01*
X2835000Y1635000D01*
X2850000Y1545000D02*
G01*
X2835000Y1545000D01*
X2860000Y1555000D02*
G01*
X2860000Y1625000D01*
X2830000Y1550000D02*
G01*
X2640000Y1550000D01*
X2830000Y1630000D02*
G01*
X2640000Y1630000D01*
X2615000Y1720000D02*
G01*
X2615000Y1790000D01*
X2625000Y1800000D02*
G01*
X2640000Y1800000D01*
X2645000Y1795000D02*
G01*
X2640000Y1800000D01*
X2625000Y1710000D02*
G01*
X2640000Y1710000D01*
X2645000Y1715000D02*
G01*
X2640000Y1710000D01*
X2835000Y1795000D02*
G01*
X2840000Y1800000D01*
X2835000Y1715000D02*
G01*
X2840000Y1710000D01*
X2855000Y1800000D02*
G01*
X2840000Y1800000D01*
X2855000Y1710000D02*
G01*
X2840000Y1710000D01*
X2865000Y1720000D02*
G01*
X2865000Y1790000D01*
X2835000Y1715000D02*
G01*
X2645000Y1715000D01*
X2835000Y1795000D02*
G01*
X2645000Y1795000D01*
X2610000Y1200000D02*
G01*
X2610000Y1270000D01*
X2620000Y1280000D02*
G01*
X2635000Y1280000D01*
X2640000Y1275000D02*
G01*
X2635000Y1280000D01*
X2620000Y1190000D02*
G01*
X2635000Y1190000D01*
X2640000Y1195000D02*
G01*
X2635000Y1190000D01*
X2830000Y1275000D02*
G01*
X2835000Y1280000D01*
X2830000Y1195000D02*
G01*
X2835000Y1190000D01*
X2850000Y1280000D02*
G01*
X2835000Y1280000D01*
X2850000Y1190000D02*
G01*
X2835000Y1190000D01*
X2860000Y1200000D02*
G01*
X2860000Y1270000D01*
X2830000Y1195000D02*
G01*
X2640000Y1195000D01*
X2830000Y1275000D02*
G01*
X2640000Y1275000D01*
X2610000Y1380000D02*
G01*
X2610000Y1450000D01*
X2620000Y1460000D02*
G01*
X2635000Y1460000D01*
X2640000Y1455000D02*
G01*
X2635000Y1460000D01*
X2620000Y1370000D02*
G01*
X2635000Y1370000D01*
X2640000Y1375000D02*
G01*
X2635000Y1370000D01*
X2830000Y1455000D02*
G01*
X2835000Y1460000D01*
X2830000Y1375000D02*
G01*
X2835000Y1370000D01*
X2850000Y1460000D02*
G01*
X2835000Y1460000D01*
X2850000Y1370000D02*
G01*
X2835000Y1370000D01*
X2860000Y1380000D02*
G01*
X2860000Y1450000D01*
X2830000Y1375000D02*
G01*
X2640000Y1375000D01*
X2830000Y1455000D02*
G01*
X2640000Y1455000D01*
X2610000Y850000D02*
G01*
X2610000Y920000D01*
X2620000Y930000D02*
G01*
X2635000Y930000D01*
X2640000Y925000D02*
G01*
X2635000Y930000D01*
X2620000Y840000D02*
G01*
X2635000Y840000D01*
X2640000Y845000D02*
G01*
X2635000Y840000D01*
X2830000Y925000D02*
G01*
X2835000Y930000D01*
X2830000Y845000D02*
G01*
X2835000Y840000D01*
X2850000Y930000D02*
G01*
X2835000Y930000D01*
X2850000Y840000D02*
G01*
X2835000Y840000D01*
X2860000Y850000D02*
G01*
X2860000Y920000D01*
X2830000Y845000D02*
G01*
X2640000Y845000D01*
X2830000Y925000D02*
G01*
X2640000Y925000D01*
X2610000Y1025000D02*
G01*
X2610000Y1095000D01*
X2620000Y1105000D02*
G01*
X2635000Y1105000D01*
X2640000Y1100000D02*
G01*
X2635000Y1105000D01*
X2620000Y1015000D02*
G01*
X2635000Y1015000D01*
X2640000Y1020000D02*
G01*
X2635000Y1015000D01*
X2830000Y1100000D02*
G01*
X2835000Y1105000D01*
X2830000Y1020000D02*
G01*
X2835000Y1015000D01*
X2850000Y1105000D02*
G01*
X2835000Y1105000D01*
X2850000Y1015000D02*
G01*
X2835000Y1015000D01*
X2860000Y1025000D02*
G01*
X2860000Y1095000D01*
X2830000Y1020000D02*
G01*
X2640000Y1020000D01*
X2830000Y1100000D02*
G01*
X2640000Y1100000D01*
D14*
X470000Y1435000D02*
G01*
X394450Y1435000D01*
X470000Y1415000D02*
G01*
X393000Y1415000D01*
X470000Y1395000D02*
G01*
X391999Y1395000D01*
X470000Y1285000D02*
G01*
X390000Y1285000D01*
X430000Y1510000D02*
G01*
X430000Y1485000D01*
X470000Y1485000D01*
X480000Y1475000D01*
X480000Y1455000D01*
X470000Y1445000D01*
X470000Y1275000D01*
X480000Y1265000D01*
X480000Y1245000D01*
X470000Y1235000D01*
X390000Y1235000D01*
X380000Y1245000D01*
X380000Y1265000D01*
X390000Y1275000D01*
X390000Y1445000D01*
X380000Y1455000D01*
X380000Y1475000D01*
X390000Y1485000D01*
X460000Y1485000D01*
X430000Y1210000D02*
G01*
X430000Y1235000D01*
D13*
G75*
G01*
X2081260Y2827480D02*
G03*
X2095200Y2834660I-36258J87517D01*
G75*
G01*
X2125340Y2864800D02*
G03*
X2137310Y2893690I-80330J50208D01*
G75*
G01*
X2137310Y2936310D02*
G03*
X2125340Y2965200I-92300J-21318D01*
G75*
G01*
X2095200Y2995340D02*
G03*
X2066310Y3007310I-50208J-80330D01*
G75*
G01*
X2023690Y3007310D02*
G03*
X1994800Y2995340I21318J-92300D01*
G75*
G01*
X1964660Y2965200D02*
G03*
X1952690Y2936310I80330J-50208D01*
G75*
G01*
X1952690Y2893690D02*
G03*
X1964660Y2864800I92300J21318D01*
G75*
G01*
X1994800Y2834660D02*
G03*
X2008740Y2827480I50198J80337D01*
G75*
G01*
X2028520Y2875220D02*
G02*
X2001940Y2915000I16480J39782D01*
G75*
G01*
X2001940Y2915000D02*
G02*
X2061480Y2875220I43060J2D01*
D14*
G75*
G01*
X383320Y2520600D02*
G03*
X383320Y2629400I86710J54400D01*
G75*
G01*
X375000Y1855000D02*
G02*
X375000Y1705000I100000J-75000D01*
G75*
G01*
X3060000Y2205000D02*
G02*
X3350000Y2205000I145000J68603D01*
G75*
G01*
X3055000Y2535000D02*
G02*
X3345000Y2535000I145000J68603D01*
G75*
G01*
X3055000Y2870000D02*
G02*
X3345000Y2870000I145000J68603D01*
G75*
G01*
X3060000Y1655000D02*
G02*
X3350000Y1655000I145000J68603D01*
G75*
G01*
X3065000Y1320000D02*
G02*
X3355000Y1320000I145000J68603D01*
G75*
G01*
X3065000Y960000D02*
G02*
X3355000Y960000I145000J68603D01*
D16*
G75*
G01*
X2615000Y2335000D02*
G02*
X2625000Y2345000I10000J0D01*
G75*
G01*
X2615000Y2265000D02*
G03*
X2625000Y2255000I10000J0D01*
G75*
G01*
X2855000Y2255000D02*
G03*
X2865000Y2265000I0J10000D01*
G75*
G01*
X2855000Y2345000D02*
G02*
X2865000Y2335000I0J-10000D01*
G75*
G01*
X2610000Y2160000D02*
G02*
X2620000Y2170000I10000J0D01*
G75*
G01*
X2610000Y2090000D02*
G03*
X2620000Y2080000I10000J0D01*
G75*
G01*
X2850000Y2080000D02*
G03*
X2860000Y2090000I0J10000D01*
G75*
G01*
X2850000Y2170000D02*
G02*
X2860000Y2160000I0J-10000D01*
G75*
G01*
X2610000Y2670000D02*
G02*
X2620000Y2680000I10000J0D01*
G75*
G01*
X2610000Y2600000D02*
G03*
X2620000Y2590000I10000J0D01*
G75*
G01*
X2850000Y2590000D02*
G03*
X2860000Y2600000I0J10000D01*
G75*
G01*
X2850000Y2680000D02*
G02*
X2860000Y2670000I0J-10000D01*
G75*
G01*
X2610000Y2505000D02*
G02*
X2620000Y2515000I10000J0D01*
G75*
G01*
X2610000Y2435000D02*
G03*
X2620000Y2425000I10000J0D01*
G75*
G01*
X2850000Y2425000D02*
G03*
X2860000Y2435000I0J10000D01*
G75*
G01*
X2850000Y2515000D02*
G02*
X2860000Y2505000I0J-10000D01*
G75*
G01*
X2600000Y3000000D02*
G02*
X2610000Y3010000I10000J0D01*
G75*
G01*
X2600000Y2930000D02*
G03*
X2610000Y2920000I10000J0D01*
G75*
G01*
X2840000Y2920000D02*
G03*
X2850000Y2930000I0J10000D01*
G75*
G01*
X2840000Y3010000D02*
G02*
X2850000Y3000000I0J-10000D01*
G75*
G01*
X2600000Y2835000D02*
G02*
X2610000Y2845000I10000J0D01*
G75*
G01*
X2600000Y2765000D02*
G03*
X2610000Y2755000I10000J0D01*
G75*
G01*
X2840000Y2755000D02*
G03*
X2850000Y2765000I0J10000D01*
G75*
G01*
X2840000Y2845000D02*
G02*
X2850000Y2835000I0J-10000D01*
G75*
G01*
X2610000Y1625000D02*
G02*
X2620000Y1635000I10000J0D01*
G75*
G01*
X2610000Y1555000D02*
G03*
X2620000Y1545000I10000J0D01*
G75*
G01*
X2850000Y1545000D02*
G03*
X2860000Y1555000I0J10000D01*
G75*
G01*
X2850000Y1635000D02*
G02*
X2860000Y1625000I0J-10000D01*
G75*
G01*
X2615000Y1790000D02*
G02*
X2625000Y1800000I10000J0D01*
G75*
G01*
X2615000Y1720000D02*
G03*
X2625000Y1710000I10000J0D01*
G75*
G01*
X2855000Y1710000D02*
G03*
X2865000Y1720000I0J10000D01*
G75*
G01*
X2855000Y1800000D02*
G02*
X2865000Y1790000I0J-10000D01*
G75*
G01*
X2610000Y1270000D02*
G02*
X2620000Y1280000I10000J0D01*
G75*
G01*
X2610000Y1200000D02*
G03*
X2620000Y1190000I10000J0D01*
G75*
G01*
X2850000Y1190000D02*
G03*
X2860000Y1200000I0J10000D01*
G75*
G01*
X2850000Y1280000D02*
G02*
X2860000Y1270000I0J-10000D01*
G75*
G01*
X2610000Y1450000D02*
G02*
X2620000Y1460000I10000J0D01*
G75*
G01*
X2610000Y1380000D02*
G03*
X2620000Y1370000I10000J0D01*
G75*
G01*
X2850000Y1370000D02*
G03*
X2860000Y1380000I0J10000D01*
G75*
G01*
X2850000Y1460000D02*
G02*
X2860000Y1450000I0J-10000D01*
G75*
G01*
X2610000Y920000D02*
G02*
X2620000Y930000I10000J0D01*
G75*
G01*
X2610000Y850000D02*
G03*
X2620000Y840000I10000J0D01*
G75*
G01*
X2850000Y840000D02*
G03*
X2860000Y850000I0J10000D01*
G75*
G01*
X2850000Y930000D02*
G02*
X2860000Y920000I0J-10000D01*
G75*
G01*
X2610000Y1095000D02*
G02*
X2620000Y1105000I10000J0D01*
G75*
G01*
X2610000Y1025000D02*
G03*
X2620000Y1015000I10000J0D01*
G75*
G01*
X2850000Y1015000D02*
G03*
X2860000Y1025000I0J10000D01*
G75*
G01*
X2850000Y1105000D02*
G02*
X2860000Y1095000I0J-10000D01*
D14*
G75*
G01
X575000Y1780000D02*
G03X575000Y1780000I-100000J0D01*
M02*
