G04 Layer: BottomLayer*
G04 EasyEDA v6.5.22, 2022-10-31 13:41:45*
G04 028e3914a6f949ed9ca799ef75e4ed4f,10*
G04 Gerber Generator version 0.2*
G04 Scale: 100 percent, Rotated: No, Reflected: No *
G04 Dimensions in inches *
G04 leading zeros omitted , absolute positions ,3 integer and 6 decimal *
%FSLAX36Y36*%
%MOIN*%

%ADD10C,0.0120*%
%ADD11C,0.0866*%
%ADD12C,0.0630*%
%ADD13C,0.1380*%
%ADD14C,0.0700*%
%ADD15R,0.0650X0.0906*%
%ADD16O,0.064961X0.09055099999999999*%
%ADD17C,0.0709*%
%ADD18R,0.0709X0.0709*%
%ADD19O,0.070866X0.11810999999999999*%
%ADD20R,0.0709X0.1181*%
%ADD21R,0.0591X0.0591*%
%ADD22C,0.0591*%
%ADD23C,0.0600*%
%ADD24C,0.0787*%
%ADD25C,0.0240*%
%ADD26C,0.0194*%

%LPD*%
G36*
X289800Y650000D02*
G01*
X288260Y650300D01*
X286960Y651180D01*
X286100Y652460D01*
X285800Y654000D01*
X285800Y3316000D01*
X286100Y3317540D01*
X286960Y3318820D01*
X288260Y3319700D01*
X289800Y3320000D01*
X308780Y3320000D01*
X309220Y3320120D01*
X309160Y3321540D01*
X309600Y3322900D01*
X310500Y3324020D01*
X311720Y3324740D01*
X313120Y3325000D01*
X4343340Y3325000D01*
X4344880Y3324700D01*
X4346180Y3323820D01*
X4348820Y3321180D01*
X4349700Y3319880D01*
X4350000Y3318340D01*
X4350000Y654000D01*
X4349700Y652460D01*
X4348820Y651180D01*
X4347540Y650300D01*
X4346000Y650000D01*
G37*

%LPC*%
G36*
X4241300Y686900D02*
G01*
X4248700Y686900D01*
X4256080Y687660D01*
X4263340Y689140D01*
X4270420Y691360D01*
X4277240Y694300D01*
X4283720Y697900D01*
X4289800Y702120D01*
X4295420Y706960D01*
X4300540Y712320D01*
X4305060Y718199D01*
X4309000Y724479D01*
X4312260Y731140D01*
X4314840Y738100D01*
X4316680Y745260D01*
X4317820Y752600D01*
X4318180Y760000D01*
X4317820Y767400D01*
X4316680Y774740D01*
X4314840Y781900D01*
X4312260Y788860D01*
X4309000Y795520D01*
X4305060Y801800D01*
X4300540Y807680D01*
X4295420Y813040D01*
X4289800Y817880D01*
X4283720Y822099D01*
X4277240Y825699D01*
X4270420Y828640D01*
X4263340Y830860D01*
X4256080Y832340D01*
X4248700Y833100D01*
X4241300Y833100D01*
X4233920Y832340D01*
X4226660Y830860D01*
X4219580Y828640D01*
X4212760Y825699D01*
X4206280Y822099D01*
X4200200Y817880D01*
X4194580Y813040D01*
X4189460Y807680D01*
X4184940Y801800D01*
X4181000Y795520D01*
X4177740Y788860D01*
X4175160Y781900D01*
X4173320Y774740D01*
X4172180Y767400D01*
X4171820Y760000D01*
X4172180Y752600D01*
X4173320Y745260D01*
X4175160Y738100D01*
X4177740Y731140D01*
X4181000Y724479D01*
X4184940Y718199D01*
X4189460Y712320D01*
X4194580Y706960D01*
X4200200Y702120D01*
X4206280Y697900D01*
X4212760Y694300D01*
X4219580Y691360D01*
X4226660Y689140D01*
X4233920Y687660D01*
G37*
G36*
X406300Y691900D02*
G01*
X413700Y691900D01*
X421079Y692660D01*
X428340Y694140D01*
X435420Y696360D01*
X442239Y699300D01*
X448720Y702900D01*
X454799Y707120D01*
X460420Y711960D01*
X465540Y717320D01*
X470060Y723199D01*
X474000Y729479D01*
X477260Y736140D01*
X479840Y743100D01*
X481680Y750260D01*
X482819Y757600D01*
X483180Y765000D01*
X482819Y772400D01*
X481680Y779740D01*
X479840Y786900D01*
X477260Y793860D01*
X474000Y800520D01*
X470060Y806800D01*
X465540Y812680D01*
X460420Y818040D01*
X454799Y822880D01*
X448720Y827099D01*
X442239Y830699D01*
X435420Y833640D01*
X428340Y835860D01*
X421079Y837340D01*
X413700Y838100D01*
X406300Y838100D01*
X398920Y837340D01*
X391659Y835860D01*
X384580Y833640D01*
X377760Y830699D01*
X371280Y827099D01*
X365200Y822880D01*
X359580Y818040D01*
X354460Y812680D01*
X349940Y806800D01*
X346000Y800520D01*
X342740Y793860D01*
X340160Y786900D01*
X338320Y779740D01*
X337180Y772400D01*
X336820Y765000D01*
X337180Y757600D01*
X338320Y750260D01*
X340160Y743100D01*
X342740Y736140D01*
X346000Y729479D01*
X349940Y723199D01*
X354460Y717320D01*
X359580Y711960D01*
X365200Y707120D01*
X371280Y702900D01*
X377760Y699300D01*
X384580Y696360D01*
X391659Y694140D01*
X398920Y692660D01*
G37*
G36*
X2933660Y844840D02*
G01*
X2939020Y845020D01*
X2944320Y845900D01*
X2949440Y847500D01*
X2954320Y849760D01*
X2958840Y852640D01*
X2962940Y856100D01*
X2966540Y860100D01*
X2969580Y864520D01*
X2970640Y866600D01*
X2971520Y867760D01*
X2972760Y868540D01*
X2974200Y868800D01*
X3179800Y868800D01*
X3183159Y869140D01*
X3186200Y870060D01*
X3188980Y871540D01*
X3191600Y873680D01*
X3339040Y1021140D01*
X3340160Y1021919D01*
X3341460Y1022280D01*
X3342820Y1022200D01*
X3348399Y1020840D01*
X3353680Y1020300D01*
X3358980Y1020480D01*
X3364200Y1021360D01*
X3369280Y1022940D01*
X3374080Y1025160D01*
X3378560Y1028020D01*
X3382620Y1031440D01*
X3386180Y1035380D01*
X3389180Y1039760D01*
X3390100Y1041600D01*
X3391000Y1042760D01*
X3392240Y1043540D01*
X3393680Y1043800D01*
X3577360Y1043800D01*
X3580720Y1044140D01*
X3583759Y1045060D01*
X3586540Y1046540D01*
X3589160Y1048680D01*
X3670100Y1129640D01*
X3671320Y1130480D01*
X3672760Y1130800D01*
X3674220Y1130600D01*
X3676760Y1129740D01*
X3682120Y1128660D01*
X3687559Y1128320D01*
X3693000Y1128660D01*
X3698340Y1129740D01*
X3703519Y1131480D01*
X3708399Y1133900D01*
X3712940Y1136920D01*
X3717040Y1140520D01*
X3720640Y1144620D01*
X3723660Y1149160D01*
X3726080Y1154040D01*
X3727820Y1159220D01*
X3728880Y1164560D01*
X3729240Y1170000D01*
X3728880Y1175440D01*
X3727820Y1180780D01*
X3726080Y1185960D01*
X3723660Y1190840D01*
X3720640Y1195380D01*
X3717040Y1199480D01*
X3712940Y1203080D01*
X3708399Y1206100D01*
X3703519Y1208520D01*
X3698340Y1210260D01*
X3693000Y1211340D01*
X3687559Y1211680D01*
X3682120Y1211340D01*
X3676760Y1210260D01*
X3671600Y1208520D01*
X3666720Y1206100D01*
X3662180Y1203080D01*
X3658080Y1199480D01*
X3654480Y1195380D01*
X3651460Y1190840D01*
X3649040Y1185960D01*
X3647300Y1180780D01*
X3646220Y1175440D01*
X3645880Y1170000D01*
X3646220Y1164560D01*
X3647300Y1159220D01*
X3648159Y1156660D01*
X3648360Y1155200D01*
X3648039Y1153760D01*
X3647200Y1152540D01*
X3572020Y1077380D01*
X3570720Y1076500D01*
X3569200Y1076200D01*
X3393680Y1076200D01*
X3392240Y1076460D01*
X3391000Y1077240D01*
X3390100Y1078400D01*
X3389180Y1080240D01*
X3386180Y1084620D01*
X3382620Y1088560D01*
X3378560Y1091980D01*
X3374080Y1094840D01*
X3369280Y1097060D01*
X3364200Y1098640D01*
X3358980Y1099520D01*
X3353680Y1099700D01*
X3348399Y1099160D01*
X3343240Y1097940D01*
X3338279Y1096020D01*
X3333620Y1093480D01*
X3329360Y1090340D01*
X3325539Y1086640D01*
X3322260Y1082480D01*
X3319560Y1077920D01*
X3317480Y1073020D01*
X3316080Y1067920D01*
X3315380Y1062660D01*
X3315380Y1057340D01*
X3316080Y1052080D01*
X3317200Y1047980D01*
X3317340Y1046580D01*
X3316980Y1045240D01*
X3316180Y1044080D01*
X3174460Y902380D01*
X3173159Y901500D01*
X3171640Y901200D01*
X2974200Y901200D01*
X2972760Y901460D01*
X2971520Y902240D01*
X2970640Y903400D01*
X2969580Y905480D01*
X2966540Y909900D01*
X2962940Y913900D01*
X2958840Y917360D01*
X2954320Y920240D01*
X2949440Y922500D01*
X2944320Y924100D01*
X2939020Y924980D01*
X2933660Y925160D01*
X2928320Y924640D01*
X2923100Y923379D01*
X2918080Y921460D01*
X2913380Y918880D01*
X2909060Y915699D01*
X2905200Y911960D01*
X2901860Y907740D01*
X2899120Y903120D01*
X2897040Y898180D01*
X2895620Y893000D01*
X2894900Y887680D01*
X2894900Y882320D01*
X2895620Y877000D01*
X2897040Y871820D01*
X2899120Y866880D01*
X2901860Y862260D01*
X2905200Y858040D01*
X2909060Y854300D01*
X2913380Y851120D01*
X2918080Y848540D01*
X2923100Y846620D01*
X2928320Y845360D01*
G37*
G36*
X2533660Y844840D02*
G01*
X2539020Y845020D01*
X2544320Y845900D01*
X2549440Y847500D01*
X2554320Y849760D01*
X2558840Y852640D01*
X2562940Y856100D01*
X2566540Y860100D01*
X2569580Y864520D01*
X2570640Y866600D01*
X2571520Y867760D01*
X2572760Y868540D01*
X2574200Y868800D01*
X2644800Y868800D01*
X2648159Y869140D01*
X2651200Y870060D01*
X2653980Y871540D01*
X2656440Y873560D01*
X2658460Y876020D01*
X2659940Y878800D01*
X2660860Y881840D01*
X2661200Y885200D01*
X2661200Y2119800D01*
X2660980Y2122900D01*
X2661200Y2125200D01*
X2661200Y2799800D01*
X2660860Y2803159D01*
X2659940Y2806200D01*
X2658460Y2808980D01*
X2656440Y2811440D01*
X2653980Y2813460D01*
X2651200Y2814940D01*
X2648159Y2815860D01*
X2644800Y2816200D01*
X2564200Y2816200D01*
X2562760Y2816460D01*
X2561520Y2817240D01*
X2560640Y2818399D01*
X2559580Y2820480D01*
X2556540Y2824900D01*
X2552940Y2828900D01*
X2548840Y2832360D01*
X2544320Y2835240D01*
X2539440Y2837500D01*
X2534320Y2839100D01*
X2529020Y2839980D01*
X2523660Y2840160D01*
X2518320Y2839640D01*
X2513100Y2838380D01*
X2508080Y2836460D01*
X2503380Y2833880D01*
X2499060Y2830700D01*
X2495200Y2826960D01*
X2491860Y2822740D01*
X2489120Y2818120D01*
X2487040Y2813180D01*
X2485620Y2808000D01*
X2484900Y2802679D01*
X2484900Y2797320D01*
X2485620Y2792000D01*
X2487040Y2786820D01*
X2489120Y2781880D01*
X2491860Y2777260D01*
X2495200Y2773039D01*
X2499060Y2769300D01*
X2503380Y2766120D01*
X2508080Y2763540D01*
X2513100Y2761620D01*
X2518320Y2760360D01*
X2523660Y2759840D01*
X2529020Y2760020D01*
X2534320Y2760899D01*
X2539440Y2762500D01*
X2544320Y2764760D01*
X2548840Y2767640D01*
X2552940Y2771100D01*
X2556540Y2775100D01*
X2559580Y2779520D01*
X2560640Y2781600D01*
X2561520Y2782760D01*
X2562760Y2783540D01*
X2564200Y2783800D01*
X2624800Y2783800D01*
X2626340Y2783500D01*
X2627620Y2782620D01*
X2628500Y2781340D01*
X2628800Y2779800D01*
X2628800Y2490200D01*
X2628500Y2488660D01*
X2627620Y2487380D01*
X2626340Y2486500D01*
X2624800Y2486200D01*
X2574200Y2486200D01*
X2572760Y2486460D01*
X2571520Y2487240D01*
X2570640Y2488400D01*
X2569580Y2490480D01*
X2566540Y2494900D01*
X2562940Y2498900D01*
X2558840Y2502360D01*
X2554320Y2505240D01*
X2549440Y2507500D01*
X2544320Y2509100D01*
X2539020Y2509980D01*
X2533660Y2510160D01*
X2528320Y2509640D01*
X2523100Y2508380D01*
X2518080Y2506460D01*
X2513380Y2503880D01*
X2509060Y2500700D01*
X2505200Y2496960D01*
X2501860Y2492740D01*
X2499120Y2488120D01*
X2497040Y2483180D01*
X2495620Y2478000D01*
X2494900Y2472680D01*
X2494900Y2467320D01*
X2495620Y2462000D01*
X2497040Y2456820D01*
X2499120Y2451880D01*
X2501860Y2447260D01*
X2505200Y2443040D01*
X2509060Y2439300D01*
X2513380Y2436120D01*
X2518080Y2433540D01*
X2523100Y2431620D01*
X2528320Y2430360D01*
X2533660Y2429840D01*
X2539020Y2430020D01*
X2544320Y2430900D01*
X2549440Y2432500D01*
X2554320Y2434760D01*
X2558840Y2437640D01*
X2562940Y2441100D01*
X2566540Y2445100D01*
X2569580Y2449520D01*
X2570640Y2451600D01*
X2571520Y2452760D01*
X2572760Y2453540D01*
X2574200Y2453800D01*
X2624800Y2453800D01*
X2626340Y2453500D01*
X2627620Y2452620D01*
X2628500Y2451340D01*
X2628800Y2449800D01*
X2628800Y2145200D01*
X2628500Y2143660D01*
X2627620Y2142380D01*
X2626340Y2141500D01*
X2624800Y2141200D01*
X2574200Y2141200D01*
X2572760Y2141460D01*
X2571520Y2142240D01*
X2570640Y2143400D01*
X2569580Y2145480D01*
X2566540Y2149900D01*
X2562940Y2153900D01*
X2558840Y2157360D01*
X2554320Y2160240D01*
X2549440Y2162500D01*
X2544320Y2164100D01*
X2539020Y2164980D01*
X2533660Y2165160D01*
X2528320Y2164640D01*
X2523100Y2163380D01*
X2518080Y2161460D01*
X2513380Y2158880D01*
X2509060Y2155700D01*
X2505200Y2151960D01*
X2501860Y2147740D01*
X2499120Y2143120D01*
X2497040Y2138180D01*
X2495620Y2133000D01*
X2494900Y2127680D01*
X2494900Y2122320D01*
X2495620Y2117000D01*
X2497040Y2111820D01*
X2499120Y2106880D01*
X2501860Y2102260D01*
X2505200Y2098040D01*
X2509060Y2094300D01*
X2513380Y2091120D01*
X2518080Y2088540D01*
X2523100Y2086620D01*
X2528320Y2085360D01*
X2533660Y2084840D01*
X2539020Y2085020D01*
X2544320Y2085900D01*
X2549440Y2087500D01*
X2554320Y2089760D01*
X2558840Y2092640D01*
X2562940Y2096100D01*
X2566540Y2100100D01*
X2569580Y2104520D01*
X2570640Y2106600D01*
X2571520Y2107760D01*
X2572760Y2108540D01*
X2574200Y2108800D01*
X2624800Y2108800D01*
X2626340Y2108500D01*
X2627620Y2107620D01*
X2628500Y2106340D01*
X2628800Y2104800D01*
X2628800Y1610200D01*
X2628500Y1608660D01*
X2627620Y1607380D01*
X2626340Y1606500D01*
X2624800Y1606200D01*
X2574200Y1606200D01*
X2572760Y1606459D01*
X2571520Y1607240D01*
X2570640Y1608400D01*
X2569580Y1610480D01*
X2566540Y1614900D01*
X2562940Y1618899D01*
X2558840Y1622360D01*
X2554320Y1625240D01*
X2549440Y1627500D01*
X2544320Y1629100D01*
X2539020Y1629980D01*
X2533660Y1630160D01*
X2528320Y1629640D01*
X2523100Y1628380D01*
X2518080Y1626459D01*
X2513380Y1623880D01*
X2509060Y1620700D01*
X2505200Y1616960D01*
X2501860Y1612740D01*
X2499120Y1608120D01*
X2497040Y1603180D01*
X2495620Y1598000D01*
X2494900Y1592680D01*
X2494900Y1587320D01*
X2495620Y1582000D01*
X2497040Y1576819D01*
X2499120Y1571879D01*
X2501860Y1567260D01*
X2505200Y1563040D01*
X2509060Y1559300D01*
X2513380Y1556120D01*
X2518080Y1553540D01*
X2523100Y1551620D01*
X2528320Y1550360D01*
X2533660Y1549840D01*
X2539020Y1550020D01*
X2544320Y1550900D01*
X2549440Y1552500D01*
X2554320Y1554760D01*
X2558840Y1557640D01*
X2562940Y1561100D01*
X2566540Y1565100D01*
X2569580Y1569520D01*
X2570640Y1571600D01*
X2571520Y1572760D01*
X2572760Y1573540D01*
X2574200Y1573800D01*
X2624800Y1573800D01*
X2626340Y1573500D01*
X2627620Y1572620D01*
X2628500Y1571339D01*
X2628800Y1569800D01*
X2628800Y1255200D01*
X2628500Y1253660D01*
X2627620Y1252380D01*
X2626340Y1251500D01*
X2624800Y1251200D01*
X2574200Y1251200D01*
X2572760Y1251460D01*
X2571520Y1252240D01*
X2570640Y1253400D01*
X2569580Y1255480D01*
X2566540Y1259900D01*
X2562940Y1263900D01*
X2558840Y1267360D01*
X2554320Y1270240D01*
X2549440Y1272500D01*
X2544320Y1274100D01*
X2539020Y1274980D01*
X2533660Y1275160D01*
X2528320Y1274640D01*
X2523100Y1273380D01*
X2518080Y1271460D01*
X2513380Y1268880D01*
X2509060Y1265700D01*
X2505200Y1261960D01*
X2501860Y1257740D01*
X2499120Y1253120D01*
X2497040Y1248180D01*
X2495620Y1243000D01*
X2494900Y1237680D01*
X2494900Y1232320D01*
X2495620Y1227000D01*
X2497040Y1221820D01*
X2499120Y1216880D01*
X2501860Y1212260D01*
X2505200Y1208040D01*
X2509060Y1204300D01*
X2513380Y1201120D01*
X2518080Y1198540D01*
X2523100Y1196620D01*
X2528320Y1195360D01*
X2533660Y1194840D01*
X2539020Y1195020D01*
X2544320Y1195900D01*
X2549440Y1197500D01*
X2554320Y1199760D01*
X2558840Y1202640D01*
X2562940Y1206100D01*
X2566540Y1210100D01*
X2569580Y1214520D01*
X2570640Y1216600D01*
X2571520Y1217760D01*
X2572760Y1218540D01*
X2574200Y1218800D01*
X2624800Y1218800D01*
X2626340Y1218500D01*
X2627620Y1217620D01*
X2628500Y1216340D01*
X2628800Y1214800D01*
X2628800Y905200D01*
X2628500Y903660D01*
X2627620Y902380D01*
X2626340Y901500D01*
X2624800Y901200D01*
X2574200Y901200D01*
X2572760Y901460D01*
X2571520Y902240D01*
X2570640Y903400D01*
X2569580Y905480D01*
X2566540Y909900D01*
X2562940Y913900D01*
X2558840Y917360D01*
X2554320Y920240D01*
X2549440Y922500D01*
X2544320Y924100D01*
X2539020Y924980D01*
X2533660Y925160D01*
X2528320Y924640D01*
X2523100Y923379D01*
X2518080Y921460D01*
X2513380Y918880D01*
X2509060Y915699D01*
X2505200Y911960D01*
X2501860Y907740D01*
X2499120Y903120D01*
X2497040Y898180D01*
X2495620Y893000D01*
X2494900Y887680D01*
X2494900Y882320D01*
X2495620Y877000D01*
X2497040Y871820D01*
X2499120Y866880D01*
X2501860Y862260D01*
X2505200Y858040D01*
X2509060Y854300D01*
X2513380Y851120D01*
X2518080Y848540D01*
X2523100Y846620D01*
X2528320Y845360D01*
G37*
G36*
X4058279Y987240D02*
G01*
X4058279Y1010800D01*
X4034800Y1010800D01*
X4036100Y1008220D01*
X4039520Y1003020D01*
X4043519Y998240D01*
X4048060Y993980D01*
X4053039Y990260D01*
G37*
G36*
X4106600Y987240D02*
G01*
X4111840Y990260D01*
X4116840Y993980D01*
X4121360Y998240D01*
X4125360Y1003020D01*
X4128780Y1008220D01*
X4130080Y1010800D01*
X4106600Y1010800D01*
G37*
G36*
X2933660Y1019840D02*
G01*
X2939020Y1020020D01*
X2944320Y1020900D01*
X2949440Y1022500D01*
X2954320Y1024760D01*
X2958840Y1027640D01*
X2962940Y1031100D01*
X2966540Y1035100D01*
X2969580Y1039520D01*
X2970640Y1041600D01*
X2971520Y1042760D01*
X2972760Y1043540D01*
X2974200Y1043800D01*
X3021280Y1043800D01*
X3022799Y1043500D01*
X3024100Y1042620D01*
X3024960Y1041340D01*
X3025280Y1039800D01*
X3025280Y1030699D01*
X3025560Y1028199D01*
X3026300Y1026060D01*
X3027520Y1024120D01*
X3029120Y1022520D01*
X3031060Y1021300D01*
X3033200Y1020560D01*
X3035700Y1020280D01*
X3094300Y1020280D01*
X3096800Y1020560D01*
X3098940Y1021300D01*
X3100880Y1022520D01*
X3102480Y1024120D01*
X3103700Y1026060D01*
X3104440Y1028199D01*
X3104720Y1030699D01*
X3104720Y1045260D01*
X3105120Y1046979D01*
X3108460Y1051020D01*
X3109940Y1053800D01*
X3110860Y1056840D01*
X3111180Y1060000D01*
X3110860Y1063160D01*
X3109940Y1066200D01*
X3108460Y1068980D01*
X3105120Y1073020D01*
X3104720Y1074740D01*
X3104720Y1089300D01*
X3104440Y1091800D01*
X3103700Y1093940D01*
X3102480Y1095880D01*
X3100880Y1097480D01*
X3098940Y1098700D01*
X3096800Y1099440D01*
X3094300Y1099720D01*
X3035700Y1099720D01*
X3033200Y1099440D01*
X3031060Y1098700D01*
X3029120Y1097480D01*
X3027520Y1095880D01*
X3026300Y1093940D01*
X3025560Y1091800D01*
X3025280Y1089300D01*
X3025280Y1080200D01*
X3024960Y1078660D01*
X3024100Y1077380D01*
X3022799Y1076500D01*
X3021280Y1076200D01*
X2974200Y1076200D01*
X2972760Y1076460D01*
X2971520Y1077240D01*
X2970640Y1078400D01*
X2969580Y1080480D01*
X2966540Y1084900D01*
X2962940Y1088900D01*
X2958840Y1092360D01*
X2954320Y1095240D01*
X2949440Y1097500D01*
X2944320Y1099100D01*
X2939020Y1099980D01*
X2933660Y1100160D01*
X2928320Y1099640D01*
X2923100Y1098380D01*
X2918080Y1096460D01*
X2913380Y1093880D01*
X2909060Y1090700D01*
X2905200Y1086960D01*
X2901860Y1082740D01*
X2899120Y1078120D01*
X2897040Y1073180D01*
X2895620Y1068000D01*
X2894900Y1062680D01*
X2894900Y1057320D01*
X2895620Y1052000D01*
X2897040Y1046820D01*
X2899120Y1041880D01*
X2901860Y1037260D01*
X2905200Y1033040D01*
X2909060Y1029300D01*
X2913380Y1026120D01*
X2918080Y1023540D01*
X2923100Y1021620D01*
X2928320Y1020360D01*
G37*
G36*
X2533660Y1019840D02*
G01*
X2539020Y1020020D01*
X2544320Y1020900D01*
X2549440Y1022500D01*
X2554320Y1024760D01*
X2558840Y1027640D01*
X2562940Y1031100D01*
X2566540Y1035100D01*
X2569580Y1039520D01*
X2572000Y1044300D01*
X2573759Y1049380D01*
X2574840Y1054640D01*
X2575200Y1060000D01*
X2574840Y1065360D01*
X2573759Y1070620D01*
X2572000Y1075700D01*
X2569580Y1080480D01*
X2566540Y1084900D01*
X2562940Y1088900D01*
X2558840Y1092360D01*
X2554320Y1095240D01*
X2549440Y1097500D01*
X2544320Y1099100D01*
X2539020Y1099980D01*
X2533660Y1100160D01*
X2528320Y1099640D01*
X2523100Y1098380D01*
X2518080Y1096460D01*
X2513380Y1093880D01*
X2509060Y1090700D01*
X2505200Y1086960D01*
X2501860Y1082740D01*
X2499140Y1078160D01*
X2498260Y1077120D01*
X2497060Y1076440D01*
X2495700Y1076200D01*
X2425200Y1076200D01*
X2423660Y1076500D01*
X2422380Y1077380D01*
X2421500Y1078660D01*
X2421200Y1080200D01*
X2421200Y1394800D01*
X2421500Y1396339D01*
X2422380Y1397620D01*
X2423660Y1398500D01*
X2425200Y1398800D01*
X2495700Y1398800D01*
X2497060Y1398560D01*
X2498260Y1397880D01*
X2499140Y1396840D01*
X2501860Y1392260D01*
X2505200Y1388040D01*
X2509060Y1384300D01*
X2513380Y1381120D01*
X2518080Y1378540D01*
X2523100Y1376620D01*
X2528320Y1375360D01*
X2533660Y1374840D01*
X2539020Y1375020D01*
X2544320Y1375900D01*
X2549440Y1377500D01*
X2554320Y1379760D01*
X2558840Y1382640D01*
X2562940Y1386100D01*
X2566540Y1390100D01*
X2569580Y1394520D01*
X2572000Y1399300D01*
X2573759Y1404379D01*
X2574840Y1409640D01*
X2575200Y1415000D01*
X2574840Y1420360D01*
X2573759Y1425620D01*
X2572000Y1430700D01*
X2569580Y1435480D01*
X2566540Y1439900D01*
X2562940Y1443899D01*
X2558840Y1447360D01*
X2554320Y1450240D01*
X2549440Y1452500D01*
X2544320Y1454100D01*
X2539020Y1454980D01*
X2533660Y1455160D01*
X2528320Y1454640D01*
X2523100Y1453380D01*
X2518080Y1451459D01*
X2513380Y1448880D01*
X2509060Y1445700D01*
X2505200Y1441960D01*
X2501860Y1437740D01*
X2499140Y1433160D01*
X2498260Y1432120D01*
X2497060Y1431440D01*
X2495700Y1431200D01*
X2425200Y1431200D01*
X2423660Y1431500D01*
X2422380Y1432380D01*
X2421500Y1433660D01*
X2421200Y1435200D01*
X2421200Y1734800D01*
X2421500Y1736339D01*
X2422380Y1737620D01*
X2423660Y1738500D01*
X2425200Y1738800D01*
X2500700Y1738800D01*
X2502060Y1738560D01*
X2503260Y1737880D01*
X2504140Y1736840D01*
X2506860Y1732260D01*
X2510200Y1728040D01*
X2514060Y1724300D01*
X2518380Y1721120D01*
X2523080Y1718540D01*
X2528100Y1716620D01*
X2533320Y1715360D01*
X2538660Y1714840D01*
X2544020Y1715020D01*
X2549320Y1715900D01*
X2554440Y1717500D01*
X2559320Y1719760D01*
X2563840Y1722640D01*
X2567940Y1726100D01*
X2571540Y1730100D01*
X2574580Y1734520D01*
X2577000Y1739300D01*
X2578759Y1744379D01*
X2579840Y1749640D01*
X2580200Y1755000D01*
X2579840Y1760360D01*
X2578759Y1765620D01*
X2577000Y1770700D01*
X2574580Y1775480D01*
X2571540Y1779900D01*
X2567940Y1783899D01*
X2563840Y1787360D01*
X2559320Y1790240D01*
X2554440Y1792500D01*
X2549320Y1794100D01*
X2544020Y1794980D01*
X2538660Y1795160D01*
X2533320Y1794640D01*
X2528100Y1793380D01*
X2523080Y1791459D01*
X2518380Y1788880D01*
X2514060Y1785700D01*
X2510200Y1781960D01*
X2506860Y1777740D01*
X2504140Y1773160D01*
X2503260Y1772120D01*
X2502060Y1771440D01*
X2500700Y1771200D01*
X2425200Y1771200D01*
X2423660Y1771500D01*
X2422380Y1772380D01*
X2421500Y1773660D01*
X2421200Y1775200D01*
X2421200Y2279800D01*
X2421500Y2281340D01*
X2422380Y2282620D01*
X2423660Y2283500D01*
X2425200Y2283800D01*
X2500700Y2283800D01*
X2502060Y2283560D01*
X2503260Y2282880D01*
X2504140Y2281840D01*
X2506860Y2277260D01*
X2510200Y2273040D01*
X2514060Y2269300D01*
X2518380Y2266120D01*
X2523080Y2263540D01*
X2528100Y2261620D01*
X2533320Y2260360D01*
X2538660Y2259840D01*
X2544020Y2260020D01*
X2549320Y2260900D01*
X2554440Y2262500D01*
X2559320Y2264760D01*
X2563840Y2267640D01*
X2567940Y2271100D01*
X2571540Y2275100D01*
X2574580Y2279520D01*
X2577000Y2284300D01*
X2578759Y2289380D01*
X2579840Y2294640D01*
X2580200Y2300000D01*
X2579840Y2305360D01*
X2578759Y2310620D01*
X2577000Y2315700D01*
X2574580Y2320480D01*
X2571540Y2324900D01*
X2567940Y2328900D01*
X2563840Y2332360D01*
X2559320Y2335240D01*
X2554440Y2337500D01*
X2549320Y2339100D01*
X2544020Y2339980D01*
X2538660Y2340160D01*
X2533320Y2339640D01*
X2528100Y2338380D01*
X2523080Y2336460D01*
X2518380Y2333880D01*
X2514060Y2330700D01*
X2510200Y2326960D01*
X2506860Y2322740D01*
X2504140Y2318160D01*
X2503260Y2317120D01*
X2502060Y2316440D01*
X2500700Y2316200D01*
X2425200Y2316200D01*
X2423660Y2316500D01*
X2422380Y2317380D01*
X2421500Y2318660D01*
X2421200Y2320200D01*
X2421200Y2614800D01*
X2421500Y2616340D01*
X2422380Y2617620D01*
X2423660Y2618500D01*
X2425200Y2618800D01*
X2495700Y2618800D01*
X2497060Y2618560D01*
X2498260Y2617880D01*
X2499140Y2616840D01*
X2501860Y2612260D01*
X2505200Y2608039D01*
X2509060Y2604300D01*
X2513380Y2601120D01*
X2518080Y2598540D01*
X2523100Y2596620D01*
X2528320Y2595360D01*
X2533660Y2594840D01*
X2539020Y2595020D01*
X2544320Y2595899D01*
X2549440Y2597500D01*
X2554320Y2599760D01*
X2558840Y2602640D01*
X2562940Y2606100D01*
X2566540Y2610100D01*
X2569580Y2614520D01*
X2572000Y2619300D01*
X2573759Y2624380D01*
X2574840Y2629640D01*
X2575200Y2635000D01*
X2574840Y2640360D01*
X2573759Y2645620D01*
X2572000Y2650700D01*
X2569580Y2655480D01*
X2566540Y2659900D01*
X2562940Y2663900D01*
X2558840Y2667360D01*
X2554320Y2670240D01*
X2549440Y2672500D01*
X2544320Y2674100D01*
X2539020Y2674980D01*
X2533660Y2675160D01*
X2528320Y2674640D01*
X2523100Y2673380D01*
X2518080Y2671460D01*
X2513380Y2668880D01*
X2509060Y2665700D01*
X2505200Y2661960D01*
X2501860Y2657740D01*
X2499140Y2653159D01*
X2498260Y2652120D01*
X2497060Y2651440D01*
X2495700Y2651200D01*
X2425200Y2651200D01*
X2423660Y2651500D01*
X2422380Y2652380D01*
X2421500Y2653660D01*
X2421200Y2655200D01*
X2421200Y2944800D01*
X2421500Y2946340D01*
X2422380Y2947620D01*
X2423660Y2948500D01*
X2425200Y2948800D01*
X2485700Y2948800D01*
X2487060Y2948560D01*
X2488260Y2947880D01*
X2489140Y2946840D01*
X2491860Y2942260D01*
X2495200Y2938039D01*
X2499060Y2934300D01*
X2503380Y2931120D01*
X2508080Y2928540D01*
X2513100Y2926620D01*
X2518320Y2925360D01*
X2523660Y2924840D01*
X2529020Y2925020D01*
X2534320Y2925899D01*
X2539440Y2927500D01*
X2544320Y2929760D01*
X2548840Y2932640D01*
X2552940Y2936100D01*
X2556540Y2940100D01*
X2559580Y2944520D01*
X2562000Y2949300D01*
X2563759Y2954380D01*
X2564840Y2959640D01*
X2565200Y2965000D01*
X2564840Y2970360D01*
X2563759Y2975620D01*
X2562000Y2980700D01*
X2559580Y2985480D01*
X2556540Y2989900D01*
X2552940Y2993900D01*
X2548840Y2997360D01*
X2544320Y3000240D01*
X2539440Y3002500D01*
X2534320Y3004100D01*
X2529020Y3004980D01*
X2523660Y3005160D01*
X2518320Y3004640D01*
X2513100Y3003380D01*
X2508080Y3001460D01*
X2503380Y2998880D01*
X2499060Y2995700D01*
X2495200Y2991960D01*
X2491860Y2987740D01*
X2489140Y2983159D01*
X2488260Y2982120D01*
X2487060Y2981440D01*
X2485700Y2981200D01*
X2405200Y2981200D01*
X2401840Y2980860D01*
X2398800Y2979940D01*
X2396020Y2978460D01*
X2393560Y2976440D01*
X2391540Y2973980D01*
X2390060Y2971200D01*
X2389140Y2968159D01*
X2388800Y2964800D01*
X2388800Y2299060D01*
X2388500Y2297520D01*
X2387620Y2296220D01*
X2386340Y2295360D01*
X2384800Y2295060D01*
X1655300Y2295060D01*
X1653839Y2295340D01*
X1652560Y2296140D01*
X1651680Y2297340D01*
X1649600Y2301780D01*
X1646560Y2306560D01*
X1642940Y2310940D01*
X1638800Y2314820D01*
X1634220Y2318160D01*
X1629240Y2320900D01*
X1623959Y2322980D01*
X1618460Y2324400D01*
X1612840Y2325100D01*
X1607160Y2325100D01*
X1601540Y2324400D01*
X1596040Y2322980D01*
X1590760Y2320900D01*
X1585780Y2318160D01*
X1581200Y2314820D01*
X1577060Y2310940D01*
X1573440Y2306560D01*
X1570400Y2301780D01*
X1567980Y2296640D01*
X1566220Y2291240D01*
X1565160Y2285660D01*
X1564800Y2280000D01*
X1565160Y2274340D01*
X1566220Y2268760D01*
X1567980Y2263360D01*
X1570400Y2258220D01*
X1573440Y2253440D01*
X1577060Y2249060D01*
X1581200Y2245180D01*
X1585780Y2241840D01*
X1590760Y2239100D01*
X1596040Y2237020D01*
X1601540Y2235600D01*
X1607160Y2234900D01*
X1612840Y2234900D01*
X1618460Y2235600D01*
X1623959Y2237020D01*
X1629240Y2239100D01*
X1634220Y2241840D01*
X1638800Y2245180D01*
X1642940Y2249060D01*
X1646560Y2253440D01*
X1649600Y2258220D01*
X1650600Y2260360D01*
X1651480Y2261560D01*
X1652740Y2262380D01*
X1654220Y2262660D01*
X2384800Y2262660D01*
X2386340Y2262340D01*
X2387620Y2261480D01*
X2388500Y2260180D01*
X2388800Y2258660D01*
X2388800Y1060200D01*
X2389140Y1056840D01*
X2390060Y1053800D01*
X2391540Y1051020D01*
X2393560Y1048560D01*
X2396020Y1046540D01*
X2398800Y1045060D01*
X2401840Y1044140D01*
X2405200Y1043800D01*
X2495700Y1043800D01*
X2497060Y1043560D01*
X2498260Y1042880D01*
X2499140Y1041840D01*
X2501860Y1037260D01*
X2505200Y1033040D01*
X2509060Y1029300D01*
X2513380Y1026120D01*
X2518080Y1023540D01*
X2523100Y1021620D01*
X2528320Y1020360D01*
G37*
G36*
X3203680Y1030300D02*
G01*
X3208980Y1030480D01*
X3214200Y1031360D01*
X3219280Y1032940D01*
X3224080Y1035160D01*
X3228560Y1038020D01*
X3232620Y1041440D01*
X3236180Y1045380D01*
X3239180Y1049760D01*
X3241560Y1054500D01*
X3243300Y1059500D01*
X3244360Y1064700D01*
X3244720Y1070000D01*
X3244360Y1075300D01*
X3243300Y1080500D01*
X3241560Y1085500D01*
X3239180Y1090240D01*
X3236180Y1094620D01*
X3232620Y1098560D01*
X3228560Y1101980D01*
X3222300Y1105980D01*
X3221480Y1107240D01*
X3221200Y1108720D01*
X3221200Y1391279D01*
X3221480Y1392760D01*
X3222300Y1394019D01*
X3228560Y1398020D01*
X3232620Y1401440D01*
X3236180Y1405380D01*
X3239180Y1409760D01*
X3241560Y1414500D01*
X3243300Y1419500D01*
X3244360Y1424700D01*
X3244720Y1430000D01*
X3244360Y1435300D01*
X3243300Y1440500D01*
X3241560Y1445500D01*
X3239180Y1450240D01*
X3236180Y1454620D01*
X3232620Y1458560D01*
X3228560Y1461980D01*
X3222300Y1465980D01*
X3221480Y1467240D01*
X3221200Y1468720D01*
X3221200Y1729319D01*
X3221420Y1730640D01*
X3222060Y1731800D01*
X3227620Y1736440D01*
X3231180Y1740380D01*
X3234180Y1744760D01*
X3236560Y1749500D01*
X3238300Y1754500D01*
X3239360Y1759700D01*
X3239720Y1765000D01*
X3239360Y1770300D01*
X3238300Y1775500D01*
X3236560Y1780500D01*
X3234180Y1785240D01*
X3231180Y1789620D01*
X3227620Y1793560D01*
X3223560Y1796980D01*
X3217300Y1800980D01*
X3216480Y1802240D01*
X3216200Y1803720D01*
X3216200Y2276280D01*
X3216480Y2277760D01*
X3217300Y2279020D01*
X3223560Y2283020D01*
X3227620Y2286440D01*
X3231180Y2290380D01*
X3234180Y2294760D01*
X3236560Y2299500D01*
X3238300Y2304500D01*
X3239360Y2309700D01*
X3239720Y2315000D01*
X3239360Y2320300D01*
X3238300Y2325500D01*
X3236560Y2330500D01*
X3234180Y2335240D01*
X3231180Y2339620D01*
X3227620Y2343560D01*
X3223560Y2346980D01*
X3217300Y2350980D01*
X3216480Y2352240D01*
X3216200Y2353720D01*
X3216200Y2609320D01*
X3216420Y2610640D01*
X3217060Y2611800D01*
X3222620Y2616440D01*
X3226180Y2620380D01*
X3229180Y2624760D01*
X3231560Y2629500D01*
X3233300Y2634500D01*
X3234360Y2639700D01*
X3234720Y2645000D01*
X3234360Y2650299D01*
X3233300Y2655500D01*
X3231560Y2660500D01*
X3229180Y2665240D01*
X3226180Y2669620D01*
X3222620Y2673560D01*
X3217060Y2678200D01*
X3216420Y2679360D01*
X3216200Y2680680D01*
X3216200Y2684800D01*
X3215860Y2688159D01*
X3214940Y2691200D01*
X3213460Y2693980D01*
X3212100Y2695620D01*
X3211440Y2696820D01*
X3211200Y2698159D01*
X3211200Y2941280D01*
X3211480Y2942760D01*
X3212300Y2944020D01*
X3218560Y2948020D01*
X3222620Y2951440D01*
X3226180Y2955380D01*
X3229180Y2959760D01*
X3231560Y2964500D01*
X3233300Y2969500D01*
X3234360Y2974700D01*
X3234720Y2980000D01*
X3234360Y2985299D01*
X3233300Y2990500D01*
X3231560Y2995500D01*
X3229180Y3000240D01*
X3226180Y3004620D01*
X3222620Y3008560D01*
X3218560Y3011980D01*
X3214080Y3014840D01*
X3209280Y3017060D01*
X3204200Y3018639D01*
X3198980Y3019520D01*
X3193680Y3019700D01*
X3188399Y3019160D01*
X3183240Y3017940D01*
X3178279Y3016019D01*
X3173620Y3013480D01*
X3169360Y3010340D01*
X3165539Y3006640D01*
X3162260Y3002480D01*
X3159560Y2997919D01*
X3157480Y2993020D01*
X3156080Y2987919D01*
X3155380Y2982660D01*
X3155380Y2977340D01*
X3156080Y2972080D01*
X3157480Y2966980D01*
X3159560Y2962080D01*
X3162260Y2957520D01*
X3165539Y2953360D01*
X3169360Y2949660D01*
X3173620Y2946520D01*
X3176720Y2944820D01*
X3177820Y2943940D01*
X3178540Y2942720D01*
X3178800Y2941320D01*
X3178800Y2683680D01*
X3178540Y2682280D01*
X3177820Y2681060D01*
X3176720Y2680179D01*
X3173620Y2678480D01*
X3169360Y2675340D01*
X3165539Y2671640D01*
X3162260Y2667480D01*
X3159560Y2662919D01*
X3157480Y2658020D01*
X3156080Y2652919D01*
X3155380Y2647660D01*
X3155380Y2642340D01*
X3156080Y2637080D01*
X3157480Y2631980D01*
X3159560Y2627080D01*
X3162260Y2622520D01*
X3165539Y2618360D01*
X3169360Y2614660D01*
X3173620Y2611520D01*
X3178279Y2608980D01*
X3181240Y2607840D01*
X3182580Y2606980D01*
X3183480Y2605659D01*
X3183800Y2604100D01*
X3183800Y2353680D01*
X3183540Y2352280D01*
X3182820Y2351060D01*
X3181720Y2350180D01*
X3178620Y2348480D01*
X3174360Y2345340D01*
X3170539Y2341640D01*
X3167260Y2337480D01*
X3164560Y2332920D01*
X3162480Y2328020D01*
X3161080Y2322920D01*
X3160380Y2317660D01*
X3160380Y2312340D01*
X3161080Y2307080D01*
X3162480Y2301980D01*
X3164560Y2297080D01*
X3167260Y2292520D01*
X3170539Y2288360D01*
X3174360Y2284660D01*
X3178620Y2281520D01*
X3181720Y2279820D01*
X3182820Y2278940D01*
X3183540Y2277720D01*
X3183800Y2276320D01*
X3183800Y1803680D01*
X3183540Y1802280D01*
X3182820Y1801060D01*
X3181720Y1800180D01*
X3178620Y1798480D01*
X3174360Y1795340D01*
X3170539Y1791639D01*
X3167260Y1787480D01*
X3164560Y1782920D01*
X3162480Y1778020D01*
X3161080Y1772920D01*
X3160380Y1767660D01*
X3160380Y1762340D01*
X3161080Y1757080D01*
X3162480Y1751980D01*
X3164560Y1747080D01*
X3167260Y1742520D01*
X3170539Y1738360D01*
X3174360Y1734660D01*
X3178620Y1731519D01*
X3183279Y1728980D01*
X3186240Y1727840D01*
X3187580Y1726980D01*
X3188480Y1725660D01*
X3188800Y1724100D01*
X3188800Y1468680D01*
X3188540Y1467280D01*
X3187820Y1466060D01*
X3186720Y1465180D01*
X3183620Y1463480D01*
X3179360Y1460340D01*
X3175539Y1456639D01*
X3172260Y1452480D01*
X3169560Y1447920D01*
X3167480Y1443020D01*
X3166080Y1437920D01*
X3165380Y1432660D01*
X3165380Y1427340D01*
X3166080Y1422080D01*
X3167480Y1416980D01*
X3169560Y1412080D01*
X3172260Y1407520D01*
X3175539Y1403360D01*
X3179360Y1399660D01*
X3183620Y1396519D01*
X3186720Y1394820D01*
X3187820Y1393940D01*
X3188540Y1392720D01*
X3188800Y1391320D01*
X3188800Y1108680D01*
X3188540Y1107280D01*
X3187820Y1106060D01*
X3186720Y1105180D01*
X3183620Y1103480D01*
X3179360Y1100340D01*
X3175539Y1096640D01*
X3172260Y1092480D01*
X3169560Y1087920D01*
X3167480Y1083020D01*
X3166080Y1077920D01*
X3165380Y1072660D01*
X3165380Y1067340D01*
X3166080Y1062080D01*
X3167480Y1056980D01*
X3169560Y1052080D01*
X3172260Y1047520D01*
X3175539Y1043360D01*
X3179360Y1039659D01*
X3183620Y1036520D01*
X3188279Y1033980D01*
X3193240Y1032060D01*
X3198399Y1030840D01*
G37*
G36*
X3933860Y1046900D02*
G01*
X3941259Y1046900D01*
X3948639Y1047660D01*
X3955899Y1049140D01*
X3962980Y1051360D01*
X3969800Y1054300D01*
X3976280Y1057900D01*
X3982360Y1062120D01*
X3987980Y1066960D01*
X3993100Y1072320D01*
X3997620Y1078200D01*
X4001540Y1084480D01*
X4004820Y1091140D01*
X4007380Y1098100D01*
X4009240Y1105260D01*
X4010380Y1112600D01*
X4010740Y1120000D01*
X4010380Y1127400D01*
X4009240Y1134740D01*
X4007380Y1141900D01*
X4004820Y1148860D01*
X4001540Y1155520D01*
X3997620Y1161800D01*
X3993100Y1167680D01*
X3987980Y1173040D01*
X3982360Y1177880D01*
X3976280Y1182100D01*
X3969800Y1185700D01*
X3962980Y1188640D01*
X3955899Y1190860D01*
X3948639Y1192340D01*
X3941259Y1193100D01*
X3933860Y1193100D01*
X3926480Y1192340D01*
X3919220Y1190860D01*
X3912140Y1188640D01*
X3905320Y1185700D01*
X3898840Y1182100D01*
X3892760Y1177880D01*
X3887140Y1173040D01*
X3882020Y1167680D01*
X3877480Y1161800D01*
X3873560Y1155520D01*
X3870299Y1148860D01*
X3867720Y1141900D01*
X3865880Y1134740D01*
X3864740Y1127400D01*
X3864380Y1120000D01*
X3864740Y1112600D01*
X3865880Y1105260D01*
X3867720Y1098100D01*
X3870299Y1091140D01*
X3873560Y1084480D01*
X3877480Y1078200D01*
X3882020Y1072320D01*
X3887140Y1066960D01*
X3892760Y1062120D01*
X3898840Y1057900D01*
X3905320Y1054300D01*
X3912140Y1051360D01*
X3919220Y1049140D01*
X3926480Y1047660D01*
G37*
G36*
X4106600Y1059120D02*
G01*
X4130080Y1059120D01*
X4128780Y1061720D01*
X4125360Y1066900D01*
X4121360Y1071680D01*
X4116840Y1075940D01*
X4111840Y1079660D01*
X4106600Y1082680D01*
G37*
G36*
X4034800Y1059120D02*
G01*
X4058279Y1059120D01*
X4058279Y1082680D01*
X4053039Y1079660D01*
X4048060Y1075940D01*
X4043519Y1071680D01*
X4039520Y1066900D01*
X4036100Y1061720D01*
G37*
G36*
X452180Y1115740D02*
G01*
X453040Y1116120D01*
X458160Y1119220D01*
X462860Y1122900D01*
X467100Y1127140D01*
X470780Y1131840D01*
X473880Y1136960D01*
X474260Y1137820D01*
X452180Y1137820D01*
G37*
G36*
X407819Y1115740D02*
G01*
X407819Y1137820D01*
X385740Y1137820D01*
X386120Y1136960D01*
X389219Y1131840D01*
X392900Y1127140D01*
X397140Y1122900D01*
X401840Y1119220D01*
X406960Y1116120D01*
G37*
G36*
X3587559Y1178320D02*
G01*
X3593000Y1178660D01*
X3598340Y1179740D01*
X3603519Y1181480D01*
X3608399Y1183900D01*
X3612940Y1186920D01*
X3617040Y1190520D01*
X3620640Y1194620D01*
X3623660Y1199160D01*
X3626080Y1204040D01*
X3627820Y1209220D01*
X3628880Y1214560D01*
X3629240Y1220000D01*
X3628880Y1225440D01*
X3627820Y1230780D01*
X3626080Y1235960D01*
X3623660Y1240840D01*
X3620640Y1245380D01*
X3617040Y1249480D01*
X3612940Y1253080D01*
X3608399Y1256100D01*
X3603519Y1258520D01*
X3598340Y1260260D01*
X3593000Y1261340D01*
X3587559Y1261680D01*
X3582120Y1261340D01*
X3576760Y1260260D01*
X3571600Y1258520D01*
X3566720Y1256100D01*
X3562180Y1253080D01*
X3558080Y1249480D01*
X3554480Y1245380D01*
X3551460Y1240840D01*
X3549040Y1235960D01*
X3547300Y1230780D01*
X3546220Y1225440D01*
X3545880Y1220000D01*
X3546220Y1214560D01*
X3547300Y1209220D01*
X3549040Y1204040D01*
X3551460Y1199160D01*
X3554480Y1194620D01*
X3558080Y1190520D01*
X3562180Y1186920D01*
X3566720Y1183900D01*
X3571600Y1181480D01*
X3576760Y1179740D01*
X3582120Y1178660D01*
G37*
G36*
X452180Y1182180D02*
G01*
X474260Y1182180D01*
X473880Y1183040D01*
X470780Y1188160D01*
X467100Y1192860D01*
X462860Y1197100D01*
X458160Y1200780D01*
X453040Y1203880D01*
X452180Y1204260D01*
G37*
G36*
X385740Y1182180D02*
G01*
X407819Y1182180D01*
X407819Y1204260D01*
X406960Y1203880D01*
X401840Y1200780D01*
X397140Y1197100D01*
X392900Y1192860D01*
X389219Y1188160D01*
X386120Y1183040D01*
G37*
G36*
X2933660Y1194840D02*
G01*
X2939020Y1195020D01*
X2944320Y1195900D01*
X2949440Y1197500D01*
X2954320Y1199760D01*
X2958840Y1202640D01*
X2962940Y1206100D01*
X2966540Y1210100D01*
X2969580Y1214520D01*
X2972000Y1219300D01*
X2973759Y1224380D01*
X2974840Y1229640D01*
X2975200Y1235000D01*
X2974840Y1240360D01*
X2973759Y1245620D01*
X2972000Y1250700D01*
X2969580Y1255480D01*
X2966540Y1259900D01*
X2962940Y1263900D01*
X2958840Y1267360D01*
X2954320Y1270240D01*
X2949440Y1272500D01*
X2944320Y1274100D01*
X2939020Y1274980D01*
X2933660Y1275160D01*
X2928320Y1274640D01*
X2923100Y1273380D01*
X2918080Y1271460D01*
X2913380Y1268880D01*
X2909060Y1265700D01*
X2905200Y1261960D01*
X2901860Y1257740D01*
X2899120Y1253120D01*
X2897040Y1248180D01*
X2895620Y1243000D01*
X2894900Y1237680D01*
X2894900Y1232320D01*
X2895620Y1227000D01*
X2897040Y1221820D01*
X2899120Y1216880D01*
X2901860Y1212260D01*
X2905200Y1208040D01*
X2909060Y1204300D01*
X2913380Y1201120D01*
X2918080Y1198540D01*
X2923100Y1196620D01*
X2928320Y1195360D01*
G37*
G36*
X3705800Y1232620D02*
G01*
X3708399Y1233900D01*
X3712940Y1236920D01*
X3717040Y1240520D01*
X3720640Y1244620D01*
X3723660Y1249160D01*
X3724940Y1251760D01*
X3705800Y1251760D01*
G37*
G36*
X3669320Y1232620D02*
G01*
X3669320Y1251760D01*
X3650179Y1251760D01*
X3651460Y1249160D01*
X3654480Y1244620D01*
X3658080Y1240520D01*
X3662180Y1236920D01*
X3666720Y1233900D01*
G37*
G36*
X3587559Y1278320D02*
G01*
X3593000Y1278660D01*
X3598340Y1279740D01*
X3603519Y1281480D01*
X3608399Y1283899D01*
X3612940Y1286920D01*
X3617040Y1290520D01*
X3620640Y1294620D01*
X3623660Y1299160D01*
X3624860Y1301560D01*
X3625740Y1302740D01*
X3626980Y1303520D01*
X3628440Y1303800D01*
X3653039Y1303800D01*
X3654540Y1303520D01*
X3655820Y1302680D01*
X3656680Y1301459D01*
X3657040Y1299980D01*
X3656820Y1298480D01*
X3656060Y1297160D01*
X3654480Y1295380D01*
X3651460Y1290840D01*
X3650179Y1288240D01*
X3669320Y1288240D01*
X3669320Y1299800D01*
X3669620Y1301339D01*
X3670480Y1302620D01*
X3671780Y1303500D01*
X3673320Y1303800D01*
X3701800Y1303800D01*
X3703340Y1303500D01*
X3704640Y1302620D01*
X3705500Y1301339D01*
X3705800Y1299800D01*
X3705800Y1288240D01*
X3724940Y1288240D01*
X3723660Y1290840D01*
X3720640Y1295380D01*
X3719060Y1297160D01*
X3718300Y1298480D01*
X3718080Y1299980D01*
X3718440Y1301459D01*
X3719300Y1302680D01*
X3720580Y1303520D01*
X3722080Y1303800D01*
X3764800Y1303800D01*
X3768159Y1304139D01*
X3771200Y1305060D01*
X3773980Y1306540D01*
X3776440Y1308560D01*
X3778460Y1311020D01*
X3779940Y1313800D01*
X3780860Y1316840D01*
X3781200Y1320200D01*
X3781200Y2194800D01*
X3780860Y2198160D01*
X3779940Y2201200D01*
X3778460Y2203980D01*
X3776320Y2206600D01*
X3657380Y2325540D01*
X3656500Y2326840D01*
X3656200Y2328360D01*
X3656200Y2388440D01*
X3656560Y2390120D01*
X3657600Y2391480D01*
X3659120Y2392300D01*
X3660820Y2392400D01*
X3662420Y2391760D01*
X3666720Y2388900D01*
X3671600Y2386480D01*
X3676760Y2384740D01*
X3682120Y2383660D01*
X3687559Y2383320D01*
X3693000Y2383660D01*
X3698340Y2384740D01*
X3703519Y2386480D01*
X3708399Y2388900D01*
X3712940Y2391920D01*
X3717040Y2395520D01*
X3720640Y2399620D01*
X3723660Y2404160D01*
X3726080Y2409040D01*
X3727820Y2414220D01*
X3728880Y2419560D01*
X3729240Y2425000D01*
X3728880Y2430440D01*
X3727820Y2435780D01*
X3726080Y2440960D01*
X3723660Y2445840D01*
X3720640Y2450380D01*
X3717040Y2454480D01*
X3712940Y2458080D01*
X3708399Y2461100D01*
X3703519Y2463520D01*
X3698340Y2465260D01*
X3693000Y2466340D01*
X3687559Y2466680D01*
X3682120Y2466340D01*
X3676760Y2465260D01*
X3671600Y2463520D01*
X3666720Y2461100D01*
X3662420Y2458240D01*
X3660820Y2457600D01*
X3659120Y2457700D01*
X3657600Y2458520D01*
X3656560Y2459880D01*
X3656200Y2461560D01*
X3656200Y2488440D01*
X3656560Y2490120D01*
X3657600Y2491480D01*
X3659120Y2492300D01*
X3660820Y2492400D01*
X3662420Y2491760D01*
X3666720Y2488900D01*
X3669320Y2487620D01*
X3669320Y2506760D01*
X3660200Y2506760D01*
X3658660Y2507060D01*
X3657380Y2507920D01*
X3656500Y2509220D01*
X3656200Y2510760D01*
X3656200Y2522360D01*
X3655860Y2525720D01*
X3654940Y2528760D01*
X3653460Y2531540D01*
X3651320Y2534160D01*
X3649040Y2536420D01*
X3648180Y2537720D01*
X3647880Y2539240D01*
X3648180Y2540780D01*
X3648620Y2541420D01*
X3647820Y2540940D01*
X3646320Y2540700D01*
X3644860Y2541020D01*
X3643600Y2541860D01*
X3627919Y2557540D01*
X3627080Y2558760D01*
X3626760Y2560200D01*
X3626960Y2561660D01*
X3627820Y2564220D01*
X3628880Y2569560D01*
X3629240Y2575000D01*
X3628880Y2580440D01*
X3627820Y2585779D01*
X3626080Y2590960D01*
X3623660Y2595840D01*
X3620640Y2600380D01*
X3617040Y2604480D01*
X3612940Y2608080D01*
X3608399Y2611100D01*
X3603519Y2613519D01*
X3598340Y2615260D01*
X3593000Y2616340D01*
X3587559Y2616680D01*
X3582120Y2616340D01*
X3576760Y2615260D01*
X3574220Y2614400D01*
X3572760Y2614200D01*
X3571320Y2614520D01*
X3570100Y2615360D01*
X3539160Y2646320D01*
X3536540Y2648460D01*
X3533759Y2649940D01*
X3530720Y2650860D01*
X3527360Y2651200D01*
X3383680Y2651200D01*
X3382240Y2651460D01*
X3381000Y2652240D01*
X3380100Y2653399D01*
X3379180Y2655240D01*
X3376180Y2659620D01*
X3372620Y2663560D01*
X3368560Y2666980D01*
X3364080Y2669840D01*
X3359280Y2672060D01*
X3354200Y2673639D01*
X3348980Y2674520D01*
X3343680Y2674700D01*
X3338399Y2674160D01*
X3333240Y2672940D01*
X3328279Y2671019D01*
X3323620Y2668480D01*
X3319360Y2665340D01*
X3315539Y2661640D01*
X3312260Y2657480D01*
X3309560Y2652919D01*
X3307480Y2648020D01*
X3306080Y2642919D01*
X3305380Y2637660D01*
X3305380Y2632340D01*
X3306080Y2627080D01*
X3307480Y2621980D01*
X3309560Y2617080D01*
X3312260Y2612520D01*
X3315539Y2608360D01*
X3319360Y2604660D01*
X3323620Y2601520D01*
X3328279Y2598980D01*
X3333240Y2597060D01*
X3338399Y2595840D01*
X3343680Y2595299D01*
X3348980Y2595480D01*
X3354200Y2596360D01*
X3359280Y2597940D01*
X3364080Y2600160D01*
X3368560Y2603020D01*
X3372620Y2606440D01*
X3376180Y2610380D01*
X3379180Y2614760D01*
X3380100Y2616600D01*
X3381000Y2617760D01*
X3382240Y2618540D01*
X3383680Y2618800D01*
X3519200Y2618800D01*
X3520720Y2618500D01*
X3522020Y2617620D01*
X3547200Y2592460D01*
X3548039Y2591240D01*
X3548360Y2589800D01*
X3548159Y2588340D01*
X3547300Y2585779D01*
X3546220Y2580440D01*
X3545880Y2575000D01*
X3546220Y2569560D01*
X3547300Y2564220D01*
X3549040Y2559040D01*
X3551460Y2554160D01*
X3554480Y2549620D01*
X3558080Y2545520D01*
X3562180Y2541920D01*
X3566720Y2538900D01*
X3571600Y2536480D01*
X3576760Y2534740D01*
X3582120Y2533660D01*
X3587559Y2533320D01*
X3593000Y2533660D01*
X3598340Y2534740D01*
X3600899Y2535600D01*
X3602360Y2535800D01*
X3603800Y2535480D01*
X3605020Y2534640D01*
X3622620Y2517020D01*
X3623500Y2515720D01*
X3623800Y2514200D01*
X3623800Y2507380D01*
X3623519Y2505880D01*
X3622679Y2504600D01*
X3621460Y2503740D01*
X3619980Y2503380D01*
X3618480Y2503600D01*
X3617160Y2504360D01*
X3612940Y2508080D01*
X3608399Y2511100D01*
X3603519Y2513520D01*
X3598340Y2515260D01*
X3593000Y2516340D01*
X3587559Y2516680D01*
X3582120Y2516340D01*
X3576760Y2515260D01*
X3571600Y2513520D01*
X3566720Y2511100D01*
X3562180Y2508080D01*
X3558080Y2504480D01*
X3554480Y2500380D01*
X3551460Y2495840D01*
X3549040Y2490960D01*
X3547300Y2485780D01*
X3546220Y2480440D01*
X3545880Y2475000D01*
X3546220Y2469560D01*
X3547300Y2464220D01*
X3548159Y2461660D01*
X3548360Y2460200D01*
X3548039Y2458760D01*
X3547200Y2457540D01*
X3412020Y2322380D01*
X3410720Y2321500D01*
X3409200Y2321200D01*
X3388680Y2321200D01*
X3387240Y2321460D01*
X3386000Y2322240D01*
X3385100Y2323400D01*
X3384180Y2325240D01*
X3381180Y2329620D01*
X3377620Y2333560D01*
X3373560Y2336980D01*
X3369080Y2339840D01*
X3364280Y2342060D01*
X3359200Y2343640D01*
X3353980Y2344520D01*
X3348680Y2344700D01*
X3343399Y2344160D01*
X3338240Y2342940D01*
X3333279Y2341020D01*
X3328620Y2338480D01*
X3324360Y2335340D01*
X3320539Y2331640D01*
X3317260Y2327480D01*
X3314560Y2322920D01*
X3312480Y2318020D01*
X3311080Y2312920D01*
X3310380Y2307660D01*
X3310380Y2302340D01*
X3311080Y2297080D01*
X3312480Y2291980D01*
X3314560Y2287080D01*
X3317260Y2282520D01*
X3320539Y2278360D01*
X3324360Y2274660D01*
X3328620Y2271520D01*
X3333279Y2268980D01*
X3338240Y2267060D01*
X3343399Y2265840D01*
X3348680Y2265300D01*
X3353980Y2265480D01*
X3359200Y2266360D01*
X3364280Y2267940D01*
X3369080Y2270160D01*
X3373560Y2273020D01*
X3377620Y2276440D01*
X3381180Y2280380D01*
X3384180Y2284760D01*
X3385100Y2286600D01*
X3386000Y2287760D01*
X3387240Y2288540D01*
X3388680Y2288800D01*
X3417360Y2288800D01*
X3420720Y2289140D01*
X3423759Y2290060D01*
X3426540Y2291540D01*
X3429160Y2293680D01*
X3570100Y2434640D01*
X3571320Y2435480D01*
X3572760Y2435800D01*
X3574220Y2435600D01*
X3576760Y2434740D01*
X3582120Y2433660D01*
X3587559Y2433320D01*
X3593000Y2433660D01*
X3598340Y2434740D01*
X3603519Y2436480D01*
X3608399Y2438900D01*
X3612940Y2441920D01*
X3617160Y2445640D01*
X3618480Y2446400D01*
X3619980Y2446620D01*
X3621460Y2446260D01*
X3622679Y2445400D01*
X3623519Y2444120D01*
X3623800Y2442620D01*
X3623800Y2320200D01*
X3624140Y2316840D01*
X3625059Y2313800D01*
X3626540Y2311020D01*
X3628680Y2308400D01*
X3747620Y2189460D01*
X3748500Y2188160D01*
X3748800Y2186640D01*
X3748800Y1340200D01*
X3748500Y1338660D01*
X3747620Y1337380D01*
X3746340Y1336500D01*
X3744800Y1336200D01*
X3722080Y1336200D01*
X3720580Y1336480D01*
X3719300Y1337320D01*
X3718440Y1338540D01*
X3718080Y1340020D01*
X3718300Y1341519D01*
X3719060Y1342840D01*
X3720640Y1344620D01*
X3723660Y1349160D01*
X3726080Y1354040D01*
X3727820Y1359220D01*
X3728880Y1364560D01*
X3729240Y1370000D01*
X3728880Y1375440D01*
X3727820Y1380780D01*
X3726080Y1385960D01*
X3723660Y1390840D01*
X3720640Y1395380D01*
X3717040Y1399480D01*
X3712940Y1403080D01*
X3708399Y1406100D01*
X3703519Y1408520D01*
X3698340Y1410260D01*
X3693000Y1411339D01*
X3687559Y1411680D01*
X3682120Y1411339D01*
X3676760Y1410260D01*
X3671600Y1408520D01*
X3666720Y1406100D01*
X3662180Y1403080D01*
X3658080Y1399480D01*
X3654480Y1395380D01*
X3651460Y1390840D01*
X3649040Y1385960D01*
X3647300Y1380780D01*
X3646220Y1375440D01*
X3645880Y1370000D01*
X3646220Y1364560D01*
X3647300Y1359220D01*
X3649040Y1354040D01*
X3651460Y1349160D01*
X3654480Y1344620D01*
X3656060Y1342840D01*
X3656820Y1341519D01*
X3657040Y1340020D01*
X3656680Y1338540D01*
X3655820Y1337320D01*
X3654540Y1336480D01*
X3653039Y1336200D01*
X3628440Y1336200D01*
X3626980Y1336480D01*
X3625740Y1337260D01*
X3624860Y1338440D01*
X3623660Y1340840D01*
X3620640Y1345380D01*
X3617040Y1349480D01*
X3612940Y1353080D01*
X3608399Y1356100D01*
X3603519Y1358520D01*
X3598340Y1360260D01*
X3593000Y1361339D01*
X3587559Y1361680D01*
X3582120Y1361339D01*
X3576760Y1360260D01*
X3571600Y1358520D01*
X3566720Y1356100D01*
X3562180Y1353080D01*
X3558080Y1349480D01*
X3554480Y1345380D01*
X3551460Y1340840D01*
X3549040Y1335960D01*
X3547300Y1330780D01*
X3546220Y1325440D01*
X3545880Y1320000D01*
X3546220Y1314560D01*
X3547300Y1309220D01*
X3549040Y1304040D01*
X3551460Y1299160D01*
X3554480Y1294620D01*
X3558080Y1290520D01*
X3562180Y1286920D01*
X3566720Y1283899D01*
X3571600Y1281480D01*
X3576760Y1279740D01*
X3582120Y1278660D01*
G37*
G36*
X2933660Y1374840D02*
G01*
X2939020Y1375020D01*
X2944320Y1375900D01*
X2949440Y1377500D01*
X2954320Y1379760D01*
X2958840Y1382640D01*
X2962940Y1386100D01*
X2966540Y1390100D01*
X2969580Y1394520D01*
X2972000Y1399300D01*
X2972620Y1401120D01*
X2973460Y1402520D01*
X2974800Y1403460D01*
X2976400Y1403800D01*
X3021280Y1403800D01*
X3022799Y1403500D01*
X3024100Y1402620D01*
X3024960Y1401339D01*
X3025280Y1399800D01*
X3025280Y1390700D01*
X3025560Y1388200D01*
X3026300Y1386060D01*
X3027520Y1384120D01*
X3029120Y1382520D01*
X3031060Y1381300D01*
X3033200Y1380560D01*
X3035700Y1380280D01*
X3094300Y1380280D01*
X3096800Y1380560D01*
X3098940Y1381300D01*
X3100880Y1382520D01*
X3102480Y1384120D01*
X3103700Y1386060D01*
X3104440Y1388200D01*
X3104720Y1390700D01*
X3104720Y1449300D01*
X3104440Y1451800D01*
X3103700Y1453940D01*
X3102480Y1455880D01*
X3100880Y1457480D01*
X3098940Y1458700D01*
X3096800Y1459440D01*
X3094300Y1459720D01*
X3035700Y1459720D01*
X3033200Y1459440D01*
X3031060Y1458700D01*
X3029120Y1457480D01*
X3027520Y1455880D01*
X3026300Y1453940D01*
X3025560Y1451800D01*
X3025280Y1449300D01*
X3025280Y1440200D01*
X3024960Y1438660D01*
X3024100Y1437380D01*
X3022799Y1436500D01*
X3021280Y1436200D01*
X2971200Y1436200D01*
X2969920Y1436399D01*
X2968780Y1437000D01*
X2967900Y1437940D01*
X2966540Y1439900D01*
X2962940Y1443899D01*
X2958840Y1447360D01*
X2954320Y1450240D01*
X2949440Y1452500D01*
X2944320Y1454100D01*
X2939020Y1454980D01*
X2933660Y1455160D01*
X2928320Y1454640D01*
X2923100Y1453380D01*
X2918080Y1451459D01*
X2913380Y1448880D01*
X2909060Y1445700D01*
X2905200Y1441960D01*
X2901860Y1437740D01*
X2899120Y1433120D01*
X2897040Y1428180D01*
X2895620Y1423000D01*
X2894900Y1417680D01*
X2894900Y1412320D01*
X2895620Y1407000D01*
X2897040Y1401819D01*
X2899120Y1396879D01*
X2901860Y1392260D01*
X2905200Y1388040D01*
X2909060Y1384300D01*
X2913380Y1381120D01*
X2918080Y1378540D01*
X2923100Y1376620D01*
X2928320Y1375360D01*
G37*
G36*
X3587559Y1378320D02*
G01*
X3593000Y1378660D01*
X3598340Y1379740D01*
X3603519Y1381480D01*
X3608399Y1383899D01*
X3612940Y1386920D01*
X3617040Y1390520D01*
X3620640Y1394620D01*
X3623660Y1399160D01*
X3626080Y1404040D01*
X3627820Y1409220D01*
X3628880Y1414560D01*
X3629240Y1420000D01*
X3628880Y1425440D01*
X3627820Y1430780D01*
X3626080Y1435960D01*
X3623660Y1440840D01*
X3620640Y1445380D01*
X3617040Y1449480D01*
X3612940Y1453080D01*
X3608399Y1456100D01*
X3603519Y1458520D01*
X3598340Y1460260D01*
X3593000Y1461339D01*
X3587559Y1461680D01*
X3582120Y1461339D01*
X3576760Y1460260D01*
X3571600Y1458520D01*
X3566720Y1456100D01*
X3562180Y1453080D01*
X3558080Y1449480D01*
X3554480Y1445380D01*
X3551460Y1440840D01*
X3550260Y1438440D01*
X3549380Y1437260D01*
X3548120Y1436480D01*
X3546680Y1436200D01*
X3393680Y1436200D01*
X3392240Y1436459D01*
X3391000Y1437240D01*
X3390100Y1438400D01*
X3389180Y1440240D01*
X3386180Y1444620D01*
X3382620Y1448560D01*
X3378560Y1451980D01*
X3374080Y1454840D01*
X3369280Y1457060D01*
X3364200Y1458640D01*
X3358980Y1459520D01*
X3353680Y1459700D01*
X3348399Y1459160D01*
X3343240Y1457940D01*
X3338279Y1456020D01*
X3333620Y1453480D01*
X3329360Y1450340D01*
X3325539Y1446639D01*
X3322260Y1442480D01*
X3319560Y1437920D01*
X3317480Y1433020D01*
X3316080Y1427920D01*
X3315380Y1422660D01*
X3315380Y1417340D01*
X3316080Y1412080D01*
X3317480Y1406980D01*
X3319560Y1402080D01*
X3322260Y1397520D01*
X3325539Y1393360D01*
X3329360Y1389660D01*
X3333620Y1386519D01*
X3338279Y1383980D01*
X3343240Y1382060D01*
X3348399Y1380840D01*
X3353680Y1380300D01*
X3358980Y1380480D01*
X3364200Y1381360D01*
X3369280Y1382940D01*
X3374080Y1385160D01*
X3378560Y1388020D01*
X3382620Y1391440D01*
X3386180Y1395380D01*
X3389180Y1399760D01*
X3390100Y1401600D01*
X3391000Y1402760D01*
X3392240Y1403540D01*
X3393680Y1403800D01*
X3546680Y1403800D01*
X3548120Y1403520D01*
X3549380Y1402740D01*
X3550260Y1401560D01*
X3551460Y1399160D01*
X3554480Y1394620D01*
X3558080Y1390520D01*
X3562180Y1386920D01*
X3566720Y1383899D01*
X3571600Y1381480D01*
X3576760Y1379740D01*
X3582120Y1378660D01*
G37*
G36*
X3687559Y1428320D02*
G01*
X3693000Y1428660D01*
X3698340Y1429740D01*
X3703519Y1431480D01*
X3708399Y1433899D01*
X3712940Y1436920D01*
X3717040Y1440520D01*
X3720640Y1444620D01*
X3723660Y1449160D01*
X3726080Y1454040D01*
X3727820Y1459220D01*
X3728880Y1464560D01*
X3729240Y1470000D01*
X3728880Y1475440D01*
X3727820Y1480780D01*
X3726080Y1485960D01*
X3723660Y1490840D01*
X3720640Y1495380D01*
X3717040Y1499480D01*
X3712940Y1503080D01*
X3708399Y1506100D01*
X3703440Y1508560D01*
X3702260Y1509440D01*
X3701480Y1510700D01*
X3701200Y1512140D01*
X3701200Y1594800D01*
X3700860Y1598160D01*
X3699940Y1601200D01*
X3698460Y1603980D01*
X3696320Y1606600D01*
X3536600Y1766320D01*
X3533980Y1768460D01*
X3531200Y1769940D01*
X3528159Y1770860D01*
X3524800Y1771200D01*
X3388680Y1771200D01*
X3387240Y1771459D01*
X3386000Y1772240D01*
X3385100Y1773400D01*
X3384180Y1775240D01*
X3381180Y1779620D01*
X3377620Y1783560D01*
X3373560Y1786980D01*
X3369080Y1789840D01*
X3364280Y1792060D01*
X3359200Y1793640D01*
X3353980Y1794520D01*
X3348680Y1794700D01*
X3343399Y1794160D01*
X3338240Y1792940D01*
X3333279Y1791020D01*
X3328620Y1788480D01*
X3324360Y1785340D01*
X3320539Y1781639D01*
X3317260Y1777480D01*
X3314700Y1773160D01*
X3313800Y1772120D01*
X3312600Y1771440D01*
X3311259Y1771200D01*
X3295200Y1771200D01*
X3293660Y1771500D01*
X3292380Y1772380D01*
X3291500Y1773660D01*
X3291200Y1775200D01*
X3291200Y2704800D01*
X3291500Y2706340D01*
X3292380Y2707620D01*
X3293660Y2708500D01*
X3295200Y2708800D01*
X3553039Y2708800D01*
X3554540Y2708519D01*
X3555820Y2707679D01*
X3556680Y2706460D01*
X3557040Y2704980D01*
X3556820Y2703480D01*
X3556060Y2702160D01*
X3554480Y2700380D01*
X3551460Y2695840D01*
X3549040Y2690960D01*
X3547300Y2685779D01*
X3546220Y2680440D01*
X3545880Y2675000D01*
X3546220Y2669560D01*
X3547300Y2664220D01*
X3549040Y2659040D01*
X3551460Y2654160D01*
X3554480Y2649620D01*
X3558080Y2645520D01*
X3562180Y2641920D01*
X3566720Y2638900D01*
X3571600Y2636480D01*
X3576760Y2634740D01*
X3582120Y2633660D01*
X3587559Y2633320D01*
X3593000Y2633660D01*
X3598340Y2634740D01*
X3603519Y2636480D01*
X3608399Y2638900D01*
X3612940Y2641920D01*
X3617040Y2645520D01*
X3620640Y2649620D01*
X3623660Y2654160D01*
X3626080Y2659040D01*
X3627820Y2664220D01*
X3628880Y2669560D01*
X3629240Y2675000D01*
X3628880Y2680440D01*
X3627820Y2685779D01*
X3626080Y2690960D01*
X3623660Y2695840D01*
X3620640Y2700380D01*
X3619060Y2702160D01*
X3618300Y2703480D01*
X3618080Y2704980D01*
X3618440Y2706460D01*
X3619300Y2707679D01*
X3620580Y2708519D01*
X3622080Y2708800D01*
X3646680Y2708800D01*
X3648120Y2708519D01*
X3649380Y2707740D01*
X3650260Y2706560D01*
X3651460Y2704160D01*
X3654480Y2699620D01*
X3658080Y2695520D01*
X3662180Y2691920D01*
X3666720Y2688900D01*
X3671600Y2686480D01*
X3676760Y2684740D01*
X3682120Y2683660D01*
X3687559Y2683320D01*
X3693000Y2683660D01*
X3698340Y2684740D01*
X3703519Y2686480D01*
X3708399Y2688900D01*
X3712940Y2691920D01*
X3717040Y2695520D01*
X3720640Y2699620D01*
X3723660Y2704160D01*
X3726080Y2709040D01*
X3727820Y2714220D01*
X3728880Y2719560D01*
X3729240Y2725000D01*
X3728880Y2730440D01*
X3727820Y2735779D01*
X3726080Y2740960D01*
X3723660Y2745840D01*
X3720640Y2750380D01*
X3717040Y2754480D01*
X3712940Y2758080D01*
X3708399Y2761100D01*
X3703519Y2763519D01*
X3698340Y2765260D01*
X3693000Y2766340D01*
X3687559Y2766680D01*
X3682120Y2766340D01*
X3676760Y2765260D01*
X3671600Y2763519D01*
X3666720Y2761100D01*
X3662180Y2758080D01*
X3658080Y2754480D01*
X3654480Y2750380D01*
X3651460Y2745840D01*
X3650260Y2743440D01*
X3649380Y2742260D01*
X3648120Y2741480D01*
X3646680Y2741200D01*
X3622080Y2741200D01*
X3620580Y2741480D01*
X3619300Y2742320D01*
X3618440Y2743540D01*
X3618080Y2745020D01*
X3618300Y2746520D01*
X3619060Y2747840D01*
X3620640Y2749620D01*
X3623660Y2754160D01*
X3626080Y2759040D01*
X3627820Y2764220D01*
X3628880Y2769560D01*
X3629240Y2775000D01*
X3628880Y2780440D01*
X3627820Y2785779D01*
X3626080Y2790960D01*
X3623660Y2795840D01*
X3620640Y2800380D01*
X3617040Y2804480D01*
X3612940Y2808080D01*
X3608399Y2811100D01*
X3603519Y2813519D01*
X3598340Y2815260D01*
X3593000Y2816340D01*
X3587559Y2816680D01*
X3582120Y2816340D01*
X3576760Y2815260D01*
X3574220Y2814400D01*
X3572760Y2814200D01*
X3571320Y2814520D01*
X3570100Y2815360D01*
X3404160Y2981320D01*
X3401540Y2983460D01*
X3398759Y2984940D01*
X3395720Y2985860D01*
X3392360Y2986200D01*
X3383680Y2986200D01*
X3382240Y2986460D01*
X3381000Y2987240D01*
X3380100Y2988399D01*
X3379180Y2990240D01*
X3376180Y2994620D01*
X3372620Y2998560D01*
X3368560Y3001980D01*
X3364080Y3004840D01*
X3359280Y3007060D01*
X3354200Y3008639D01*
X3348980Y3009520D01*
X3343680Y3009700D01*
X3338399Y3009160D01*
X3333240Y3007940D01*
X3328279Y3006019D01*
X3323620Y3003480D01*
X3319360Y3000340D01*
X3315539Y2996640D01*
X3312260Y2992480D01*
X3309560Y2987919D01*
X3307480Y2983020D01*
X3306080Y2977919D01*
X3305380Y2972660D01*
X3305380Y2967340D01*
X3306080Y2962080D01*
X3307480Y2956980D01*
X3309560Y2952080D01*
X3312260Y2947520D01*
X3315539Y2943360D01*
X3319360Y2939660D01*
X3323620Y2936520D01*
X3328279Y2933980D01*
X3333240Y2932060D01*
X3338399Y2930840D01*
X3343680Y2930299D01*
X3348980Y2930480D01*
X3354200Y2931360D01*
X3359280Y2932940D01*
X3364080Y2935160D01*
X3368560Y2938020D01*
X3372620Y2941440D01*
X3376180Y2945380D01*
X3379180Y2949760D01*
X3380100Y2951600D01*
X3381000Y2952760D01*
X3382240Y2953540D01*
X3384200Y2953800D01*
X3385720Y2953500D01*
X3387020Y2952620D01*
X3547200Y2792460D01*
X3548039Y2791240D01*
X3548360Y2789800D01*
X3548159Y2788340D01*
X3547300Y2785779D01*
X3546220Y2780440D01*
X3545880Y2775000D01*
X3546220Y2769560D01*
X3547300Y2764220D01*
X3549040Y2759040D01*
X3551460Y2754160D01*
X3554480Y2749620D01*
X3556060Y2747840D01*
X3556820Y2746520D01*
X3557040Y2745020D01*
X3556680Y2743540D01*
X3555820Y2742320D01*
X3554540Y2741480D01*
X3553039Y2741200D01*
X3275200Y2741200D01*
X3271840Y2740860D01*
X3268800Y2739940D01*
X3266019Y2738460D01*
X3263560Y2736440D01*
X3261540Y2733980D01*
X3260059Y2731200D01*
X3259140Y2728159D01*
X3258800Y2724800D01*
X3258800Y1755200D01*
X3259140Y1751840D01*
X3260059Y1748800D01*
X3261540Y1746020D01*
X3263560Y1743560D01*
X3266019Y1741540D01*
X3268800Y1740060D01*
X3271840Y1739139D01*
X3275200Y1738800D01*
X3311259Y1738800D01*
X3312600Y1738560D01*
X3313800Y1737880D01*
X3314700Y1736840D01*
X3317260Y1732520D01*
X3320539Y1728360D01*
X3324360Y1724660D01*
X3328620Y1721519D01*
X3333279Y1718980D01*
X3338240Y1717060D01*
X3343399Y1715840D01*
X3348680Y1715300D01*
X3353980Y1715480D01*
X3359200Y1716360D01*
X3364280Y1717940D01*
X3369080Y1720160D01*
X3373560Y1723020D01*
X3377620Y1726440D01*
X3381180Y1730380D01*
X3384180Y1734760D01*
X3385100Y1736600D01*
X3386000Y1737760D01*
X3387240Y1738540D01*
X3388680Y1738800D01*
X3516640Y1738800D01*
X3518159Y1738500D01*
X3519460Y1737620D01*
X3667620Y1589460D01*
X3668500Y1588160D01*
X3668800Y1586639D01*
X3668800Y1509620D01*
X3668580Y1508320D01*
X3667960Y1507180D01*
X3667020Y1506279D01*
X3662180Y1503060D01*
X3658080Y1499480D01*
X3654480Y1495380D01*
X3651460Y1490840D01*
X3649040Y1485960D01*
X3647300Y1480780D01*
X3646220Y1475440D01*
X3645880Y1470000D01*
X3646220Y1464560D01*
X3647300Y1459220D01*
X3649040Y1454040D01*
X3651460Y1449160D01*
X3654480Y1444620D01*
X3658080Y1440520D01*
X3662180Y1436920D01*
X3666720Y1433899D01*
X3671600Y1431480D01*
X3676760Y1429740D01*
X3682120Y1428660D01*
G37*
G36*
X1424800Y1440740D02*
G01*
X1495200Y1440740D01*
X1497700Y1441020D01*
X1499840Y1441780D01*
X1501780Y1443000D01*
X1503380Y1444600D01*
X1504600Y1446540D01*
X1505360Y1448680D01*
X1505640Y1451160D01*
X1505640Y1568839D01*
X1505360Y1571320D01*
X1504600Y1573460D01*
X1503380Y1575400D01*
X1501780Y1577000D01*
X1499840Y1578220D01*
X1497700Y1578980D01*
X1495200Y1579259D01*
X1480200Y1579259D01*
X1478660Y1579560D01*
X1477380Y1580420D01*
X1476500Y1581720D01*
X1476200Y1583260D01*
X1476200Y1765240D01*
X1476480Y1766720D01*
X1477280Y1767980D01*
X1478500Y1768860D01*
X1481780Y1770400D01*
X1486560Y1773440D01*
X1490940Y1777060D01*
X1494820Y1781200D01*
X1498160Y1785780D01*
X1500900Y1790760D01*
X1502980Y1796040D01*
X1504400Y1801540D01*
X1505100Y1807160D01*
X1505100Y1812840D01*
X1504400Y1818460D01*
X1502980Y1823959D01*
X1500900Y1829240D01*
X1498160Y1834220D01*
X1494820Y1838800D01*
X1490940Y1842940D01*
X1486560Y1846560D01*
X1481780Y1849600D01*
X1476639Y1852020D01*
X1471240Y1853779D01*
X1465660Y1854840D01*
X1460000Y1855200D01*
X1454340Y1854840D01*
X1448760Y1853779D01*
X1443360Y1852020D01*
X1438220Y1849600D01*
X1433440Y1846560D01*
X1429060Y1842940D01*
X1425180Y1838800D01*
X1421840Y1834220D01*
X1419100Y1829240D01*
X1417020Y1823959D01*
X1415600Y1818460D01*
X1414900Y1812840D01*
X1414900Y1807160D01*
X1415600Y1801540D01*
X1417020Y1796040D01*
X1419100Y1790760D01*
X1421840Y1785780D01*
X1425180Y1781200D01*
X1429060Y1777060D01*
X1433440Y1773440D01*
X1438220Y1770400D01*
X1441500Y1768860D01*
X1442720Y1767980D01*
X1443520Y1766720D01*
X1443800Y1765240D01*
X1443800Y1583260D01*
X1443500Y1581720D01*
X1442620Y1580420D01*
X1441339Y1579560D01*
X1439800Y1579259D01*
X1424800Y1579259D01*
X1422300Y1578980D01*
X1420160Y1578220D01*
X1418220Y1577000D01*
X1416620Y1575400D01*
X1415400Y1573460D01*
X1414640Y1571320D01*
X1414360Y1568839D01*
X1414360Y1451160D01*
X1414640Y1448680D01*
X1415400Y1446540D01*
X1416620Y1444600D01*
X1418220Y1443000D01*
X1420160Y1441780D01*
X1422300Y1441020D01*
G37*
G36*
X1057140Y1440840D02*
G01*
X1062860Y1440840D01*
X1068540Y1441560D01*
X1074100Y1442980D01*
X1079420Y1445100D01*
X1084440Y1447860D01*
X1089080Y1451220D01*
X1093260Y1455140D01*
X1096920Y1459560D01*
X1099980Y1464400D01*
X1102420Y1469580D01*
X1104200Y1475040D01*
X1105260Y1480660D01*
X1105640Y1486500D01*
X1105640Y1533500D01*
X1105260Y1539340D01*
X1104200Y1544960D01*
X1102420Y1550420D01*
X1099980Y1555600D01*
X1096920Y1560440D01*
X1093260Y1564860D01*
X1089080Y1568779D01*
X1084440Y1572140D01*
X1079420Y1574900D01*
X1078720Y1575180D01*
X1077400Y1576040D01*
X1076520Y1577360D01*
X1076200Y1578899D01*
X1076200Y1765240D01*
X1076480Y1766720D01*
X1077280Y1767980D01*
X1078500Y1768860D01*
X1081780Y1770400D01*
X1086560Y1773440D01*
X1090940Y1777060D01*
X1094820Y1781200D01*
X1098160Y1785780D01*
X1100900Y1790760D01*
X1102980Y1796040D01*
X1104400Y1801540D01*
X1105100Y1807160D01*
X1105100Y1812840D01*
X1104400Y1818460D01*
X1102980Y1823959D01*
X1100900Y1829240D01*
X1098160Y1834220D01*
X1094820Y1838800D01*
X1090940Y1842940D01*
X1086560Y1846560D01*
X1081780Y1849600D01*
X1076640Y1852020D01*
X1071240Y1853779D01*
X1065660Y1854840D01*
X1060000Y1855200D01*
X1054340Y1854840D01*
X1048760Y1853779D01*
X1043360Y1852020D01*
X1038220Y1849600D01*
X1033439Y1846560D01*
X1029060Y1842940D01*
X1025180Y1838800D01*
X1021840Y1834220D01*
X1019100Y1829240D01*
X1017020Y1823959D01*
X1015600Y1818460D01*
X1014900Y1812840D01*
X1014900Y1807160D01*
X1015600Y1801540D01*
X1017020Y1796040D01*
X1019100Y1790760D01*
X1021840Y1785780D01*
X1025180Y1781200D01*
X1029060Y1777060D01*
X1033439Y1773440D01*
X1038220Y1770400D01*
X1041500Y1768860D01*
X1042720Y1767980D01*
X1043520Y1766720D01*
X1043800Y1765240D01*
X1043800Y1578899D01*
X1043480Y1577360D01*
X1042600Y1576040D01*
X1041280Y1575180D01*
X1040580Y1574900D01*
X1035560Y1572140D01*
X1030920Y1568779D01*
X1026740Y1564860D01*
X1023080Y1560440D01*
X1020020Y1555600D01*
X1017580Y1550420D01*
X1015800Y1544960D01*
X1014740Y1539340D01*
X1014360Y1533500D01*
X1014360Y1486500D01*
X1014740Y1480660D01*
X1015800Y1475040D01*
X1017580Y1469580D01*
X1020020Y1464400D01*
X1023080Y1459560D01*
X1026740Y1455140D01*
X1030920Y1451220D01*
X1035560Y1447860D01*
X1040580Y1445100D01*
X1045900Y1442980D01*
X1051460Y1441560D01*
G37*
G36*
X1357140Y1440840D02*
G01*
X1362860Y1440840D01*
X1368540Y1441560D01*
X1374100Y1442980D01*
X1379420Y1445100D01*
X1384440Y1447860D01*
X1389079Y1451220D01*
X1393260Y1455140D01*
X1396920Y1459560D01*
X1399980Y1464400D01*
X1402420Y1469580D01*
X1404199Y1475040D01*
X1405260Y1480660D01*
X1405640Y1486500D01*
X1405640Y1533500D01*
X1405260Y1539340D01*
X1404199Y1544960D01*
X1402420Y1550420D01*
X1399980Y1555600D01*
X1396920Y1560440D01*
X1393260Y1564860D01*
X1389079Y1568779D01*
X1384440Y1572140D01*
X1379420Y1574900D01*
X1378720Y1575180D01*
X1377400Y1576040D01*
X1376519Y1577360D01*
X1376200Y1578899D01*
X1376200Y1765240D01*
X1376480Y1766720D01*
X1377280Y1767980D01*
X1378500Y1768860D01*
X1381780Y1770400D01*
X1386560Y1773440D01*
X1390940Y1777060D01*
X1394820Y1781200D01*
X1398160Y1785780D01*
X1400900Y1790760D01*
X1402980Y1796040D01*
X1404400Y1801540D01*
X1405100Y1807160D01*
X1405100Y1812840D01*
X1404400Y1818460D01*
X1402980Y1823959D01*
X1400900Y1829240D01*
X1398160Y1834220D01*
X1394820Y1838800D01*
X1390940Y1842940D01*
X1386560Y1846560D01*
X1381780Y1849600D01*
X1376639Y1852020D01*
X1371240Y1853779D01*
X1365660Y1854840D01*
X1360000Y1855200D01*
X1354340Y1854840D01*
X1348760Y1853779D01*
X1343360Y1852020D01*
X1338220Y1849600D01*
X1333440Y1846560D01*
X1329060Y1842940D01*
X1325180Y1838800D01*
X1321840Y1834220D01*
X1319100Y1829240D01*
X1317020Y1823959D01*
X1315600Y1818460D01*
X1314900Y1812840D01*
X1314900Y1807160D01*
X1315600Y1801540D01*
X1317020Y1796040D01*
X1319100Y1790760D01*
X1321840Y1785780D01*
X1325180Y1781200D01*
X1329060Y1777060D01*
X1333440Y1773440D01*
X1338220Y1770400D01*
X1341500Y1768860D01*
X1342720Y1767980D01*
X1343520Y1766720D01*
X1343800Y1765240D01*
X1343800Y1578899D01*
X1343480Y1577360D01*
X1342600Y1576040D01*
X1341279Y1575180D01*
X1340580Y1574900D01*
X1335560Y1572140D01*
X1330920Y1568779D01*
X1326740Y1564860D01*
X1323080Y1560440D01*
X1320020Y1555600D01*
X1317580Y1550420D01*
X1315800Y1544960D01*
X1314740Y1539340D01*
X1314360Y1533500D01*
X1314360Y1486500D01*
X1314740Y1480660D01*
X1315800Y1475040D01*
X1317580Y1469580D01*
X1320020Y1464400D01*
X1323080Y1459560D01*
X1326740Y1455140D01*
X1330920Y1451220D01*
X1335560Y1447860D01*
X1340580Y1445100D01*
X1345900Y1442980D01*
X1351459Y1441560D01*
G37*
G36*
X1257140Y1440840D02*
G01*
X1262860Y1440840D01*
X1268540Y1441560D01*
X1274100Y1442980D01*
X1279420Y1445100D01*
X1284440Y1447860D01*
X1289079Y1451220D01*
X1293260Y1455140D01*
X1296920Y1459560D01*
X1299980Y1464400D01*
X1302420Y1469580D01*
X1304199Y1475040D01*
X1305260Y1480660D01*
X1305640Y1486500D01*
X1305640Y1533500D01*
X1305260Y1539340D01*
X1304199Y1544960D01*
X1302420Y1550420D01*
X1299980Y1555600D01*
X1296920Y1560440D01*
X1293260Y1564860D01*
X1289079Y1568779D01*
X1284440Y1572140D01*
X1279420Y1574900D01*
X1278720Y1575180D01*
X1277400Y1576040D01*
X1276520Y1577360D01*
X1276200Y1578899D01*
X1276200Y1765240D01*
X1276480Y1766720D01*
X1277280Y1767980D01*
X1278500Y1768860D01*
X1281780Y1770400D01*
X1286560Y1773440D01*
X1290940Y1777060D01*
X1294820Y1781200D01*
X1298160Y1785780D01*
X1300900Y1790760D01*
X1302980Y1796040D01*
X1304400Y1801540D01*
X1305100Y1807160D01*
X1305100Y1812840D01*
X1304400Y1818460D01*
X1302980Y1823959D01*
X1300900Y1829240D01*
X1298160Y1834220D01*
X1294820Y1838800D01*
X1290940Y1842940D01*
X1286560Y1846560D01*
X1281780Y1849600D01*
X1276640Y1852020D01*
X1271240Y1853779D01*
X1265660Y1854840D01*
X1260000Y1855200D01*
X1254340Y1854840D01*
X1248760Y1853779D01*
X1243360Y1852020D01*
X1238220Y1849600D01*
X1233440Y1846560D01*
X1229060Y1842940D01*
X1225180Y1838800D01*
X1221840Y1834220D01*
X1219100Y1829240D01*
X1217020Y1823959D01*
X1215600Y1818460D01*
X1214900Y1812840D01*
X1214900Y1807160D01*
X1215600Y1801540D01*
X1217020Y1796040D01*
X1219100Y1790760D01*
X1221840Y1785780D01*
X1225180Y1781200D01*
X1229060Y1777060D01*
X1233440Y1773440D01*
X1238220Y1770400D01*
X1241500Y1768860D01*
X1242720Y1767980D01*
X1243520Y1766720D01*
X1243800Y1765240D01*
X1243800Y1578899D01*
X1243480Y1577360D01*
X1242600Y1576040D01*
X1241280Y1575180D01*
X1240580Y1574900D01*
X1235560Y1572140D01*
X1230920Y1568779D01*
X1226740Y1564860D01*
X1223080Y1560440D01*
X1220020Y1555600D01*
X1217580Y1550420D01*
X1215800Y1544960D01*
X1214740Y1539340D01*
X1214360Y1533500D01*
X1214360Y1486500D01*
X1214740Y1480660D01*
X1215800Y1475040D01*
X1217580Y1469580D01*
X1220020Y1464400D01*
X1223080Y1459560D01*
X1226740Y1455140D01*
X1230920Y1451220D01*
X1235560Y1447860D01*
X1240580Y1445100D01*
X1245900Y1442980D01*
X1251460Y1441560D01*
G37*
G36*
X1157140Y1440840D02*
G01*
X1162860Y1440840D01*
X1168540Y1441560D01*
X1174100Y1442980D01*
X1179420Y1445100D01*
X1184440Y1447860D01*
X1189080Y1451220D01*
X1193260Y1455140D01*
X1196920Y1459560D01*
X1199980Y1464400D01*
X1202420Y1469580D01*
X1204200Y1475040D01*
X1205260Y1480660D01*
X1205640Y1486500D01*
X1205640Y1533500D01*
X1205260Y1539340D01*
X1204200Y1544960D01*
X1202420Y1550420D01*
X1199980Y1555600D01*
X1196920Y1560440D01*
X1193260Y1564860D01*
X1189080Y1568779D01*
X1184440Y1572140D01*
X1179420Y1574900D01*
X1178720Y1575180D01*
X1177400Y1576040D01*
X1176520Y1577360D01*
X1176200Y1578899D01*
X1176200Y1765240D01*
X1176480Y1766720D01*
X1177280Y1767980D01*
X1178500Y1768860D01*
X1181780Y1770400D01*
X1186560Y1773440D01*
X1190940Y1777060D01*
X1194820Y1781200D01*
X1198160Y1785780D01*
X1200900Y1790760D01*
X1202980Y1796040D01*
X1204400Y1801540D01*
X1205100Y1807160D01*
X1205100Y1812840D01*
X1204400Y1818460D01*
X1202980Y1823959D01*
X1200900Y1829240D01*
X1198160Y1834220D01*
X1194820Y1838800D01*
X1190940Y1842940D01*
X1186560Y1846560D01*
X1181780Y1849600D01*
X1176640Y1852020D01*
X1171240Y1853779D01*
X1165660Y1854840D01*
X1160000Y1855200D01*
X1154340Y1854840D01*
X1148760Y1853779D01*
X1143360Y1852020D01*
X1138220Y1849600D01*
X1133440Y1846560D01*
X1129060Y1842940D01*
X1125180Y1838800D01*
X1121840Y1834220D01*
X1119100Y1829240D01*
X1117020Y1823959D01*
X1115600Y1818460D01*
X1114900Y1812840D01*
X1114900Y1807160D01*
X1115600Y1801540D01*
X1117020Y1796040D01*
X1119100Y1790760D01*
X1121840Y1785780D01*
X1125180Y1781200D01*
X1129060Y1777060D01*
X1133440Y1773440D01*
X1138220Y1770400D01*
X1141500Y1768860D01*
X1142720Y1767980D01*
X1143520Y1766720D01*
X1143800Y1765240D01*
X1143800Y1578899D01*
X1143480Y1577360D01*
X1142600Y1576040D01*
X1141280Y1575180D01*
X1140580Y1574900D01*
X1135560Y1572140D01*
X1130920Y1568779D01*
X1126740Y1564860D01*
X1123080Y1560440D01*
X1120020Y1555600D01*
X1117580Y1550420D01*
X1115800Y1544960D01*
X1114740Y1539340D01*
X1114360Y1533500D01*
X1114360Y1486500D01*
X1114740Y1480660D01*
X1115800Y1475040D01*
X1117580Y1469580D01*
X1120020Y1464400D01*
X1123080Y1459560D01*
X1126740Y1455140D01*
X1130920Y1451220D01*
X1135560Y1447860D01*
X1140580Y1445100D01*
X1145900Y1442980D01*
X1151460Y1441560D01*
G37*
G36*
X957140Y1440840D02*
G01*
X962860Y1440840D01*
X968540Y1441560D01*
X974100Y1442980D01*
X979419Y1445100D01*
X984440Y1447860D01*
X989080Y1451220D01*
X993259Y1455140D01*
X996919Y1459560D01*
X999980Y1464400D01*
X1002420Y1469580D01*
X1004200Y1475040D01*
X1005260Y1480660D01*
X1005639Y1486500D01*
X1005639Y1533500D01*
X1005260Y1539340D01*
X1004200Y1544960D01*
X1002420Y1550420D01*
X999980Y1555600D01*
X996919Y1560440D01*
X993259Y1564860D01*
X989080Y1568779D01*
X984440Y1572140D01*
X979419Y1574900D01*
X978720Y1575180D01*
X977400Y1576040D01*
X976520Y1577360D01*
X976200Y1578899D01*
X976200Y1765240D01*
X976480Y1766720D01*
X977280Y1767980D01*
X978500Y1768860D01*
X981780Y1770400D01*
X986560Y1773440D01*
X990939Y1777060D01*
X994820Y1781200D01*
X998160Y1785780D01*
X1000900Y1790760D01*
X1002980Y1796040D01*
X1004400Y1801540D01*
X1005100Y1807160D01*
X1005100Y1812840D01*
X1004400Y1818460D01*
X1002980Y1823959D01*
X1000900Y1829240D01*
X998160Y1834220D01*
X994820Y1838800D01*
X990939Y1842940D01*
X986560Y1846560D01*
X981780Y1849600D01*
X976640Y1852020D01*
X971240Y1853779D01*
X965660Y1854840D01*
X960000Y1855200D01*
X954340Y1854840D01*
X948760Y1853779D01*
X943360Y1852020D01*
X938220Y1849600D01*
X933439Y1846560D01*
X929060Y1842940D01*
X925180Y1838800D01*
X921840Y1834220D01*
X919100Y1829240D01*
X917020Y1823959D01*
X915600Y1818460D01*
X914900Y1812840D01*
X914900Y1807160D01*
X915600Y1801540D01*
X917020Y1796040D01*
X919100Y1790760D01*
X921840Y1785780D01*
X925180Y1781200D01*
X929060Y1777060D01*
X933439Y1773440D01*
X938220Y1770400D01*
X941500Y1768860D01*
X942720Y1767980D01*
X943520Y1766720D01*
X943800Y1765240D01*
X943800Y1578899D01*
X943480Y1577360D01*
X942600Y1576040D01*
X941280Y1575180D01*
X940580Y1574900D01*
X935560Y1572140D01*
X930920Y1568779D01*
X926740Y1564860D01*
X923080Y1560440D01*
X920020Y1555600D01*
X917580Y1550420D01*
X915800Y1544960D01*
X914740Y1539340D01*
X914360Y1533500D01*
X914360Y1486500D01*
X914740Y1480660D01*
X915800Y1475040D01*
X917580Y1469580D01*
X920020Y1464400D01*
X923080Y1459560D01*
X926740Y1455140D01*
X930920Y1451220D01*
X935560Y1447860D01*
X940580Y1445100D01*
X945900Y1442980D01*
X951460Y1441560D01*
G37*
G36*
X3587559Y1478320D02*
G01*
X3593000Y1478660D01*
X3598340Y1479740D01*
X3603519Y1481480D01*
X3608399Y1483899D01*
X3612940Y1486920D01*
X3617040Y1490520D01*
X3620640Y1494620D01*
X3623660Y1499160D01*
X3626080Y1504040D01*
X3627820Y1509220D01*
X3628880Y1514560D01*
X3629240Y1520000D01*
X3628880Y1525440D01*
X3627820Y1530780D01*
X3626080Y1535960D01*
X3623660Y1540840D01*
X3620640Y1545380D01*
X3617040Y1549480D01*
X3612940Y1553080D01*
X3608399Y1556100D01*
X3603519Y1558520D01*
X3598340Y1560260D01*
X3593000Y1561339D01*
X3587559Y1561680D01*
X3582120Y1561339D01*
X3576760Y1560260D01*
X3571600Y1558520D01*
X3566720Y1556100D01*
X3562180Y1553080D01*
X3558080Y1549480D01*
X3554480Y1545380D01*
X3551460Y1540840D01*
X3549040Y1535960D01*
X3547300Y1530780D01*
X3546220Y1525440D01*
X3545880Y1520000D01*
X3546220Y1514560D01*
X3547300Y1509220D01*
X3549040Y1504040D01*
X3551460Y1499160D01*
X3554480Y1494620D01*
X3558080Y1490520D01*
X3562180Y1486920D01*
X3566720Y1483899D01*
X3571600Y1481480D01*
X3576760Y1479740D01*
X3582120Y1478660D01*
G37*
G36*
X3933860Y1496900D02*
G01*
X3941259Y1496900D01*
X3948639Y1497660D01*
X3955899Y1499139D01*
X3962980Y1501360D01*
X3969800Y1504300D01*
X3976280Y1507900D01*
X3982360Y1512120D01*
X3987980Y1516960D01*
X3993100Y1522320D01*
X3997620Y1528200D01*
X4001540Y1534480D01*
X4004820Y1541140D01*
X4007380Y1548100D01*
X4009240Y1555260D01*
X4010380Y1562600D01*
X4010740Y1570000D01*
X4010380Y1577400D01*
X4009240Y1584740D01*
X4007380Y1591900D01*
X4004820Y1598860D01*
X4001540Y1605520D01*
X3997620Y1611800D01*
X3993100Y1617680D01*
X3987980Y1623040D01*
X3982360Y1627880D01*
X3976280Y1632100D01*
X3969800Y1635700D01*
X3962980Y1638640D01*
X3955899Y1640860D01*
X3948639Y1642340D01*
X3941259Y1643100D01*
X3933860Y1643100D01*
X3926480Y1642340D01*
X3919220Y1640860D01*
X3912140Y1638640D01*
X3905320Y1635700D01*
X3898840Y1632100D01*
X3892760Y1627880D01*
X3887140Y1623040D01*
X3882020Y1617680D01*
X3877480Y1611800D01*
X3873560Y1605520D01*
X3870299Y1598860D01*
X3867720Y1591900D01*
X3865880Y1584740D01*
X3864740Y1577400D01*
X3864380Y1570000D01*
X3864740Y1562600D01*
X3865880Y1555260D01*
X3867720Y1548100D01*
X3870299Y1541140D01*
X3873560Y1534480D01*
X3877480Y1528200D01*
X3882020Y1522320D01*
X3887140Y1516960D01*
X3892760Y1512120D01*
X3898840Y1507900D01*
X3905320Y1504300D01*
X3912140Y1501360D01*
X3919220Y1499139D01*
X3926480Y1497660D01*
G37*
G36*
X430000Y1510440D02*
G01*
X435980Y1510800D01*
X441860Y1511879D01*
X447580Y1513660D01*
X453040Y1516120D01*
X458160Y1519220D01*
X462860Y1522900D01*
X467100Y1527140D01*
X470780Y1531840D01*
X473880Y1536960D01*
X476340Y1542420D01*
X478120Y1548140D01*
X479200Y1554019D01*
X479560Y1560000D01*
X479200Y1565980D01*
X478120Y1571860D01*
X476340Y1577580D01*
X473880Y1583040D01*
X470780Y1588160D01*
X467100Y1592860D01*
X462860Y1597100D01*
X458160Y1600780D01*
X453040Y1603880D01*
X447580Y1606339D01*
X444020Y1607460D01*
X442540Y1608280D01*
X441560Y1609640D01*
X441200Y1611279D01*
X441200Y1730360D01*
X441500Y1731900D01*
X442380Y1733200D01*
X443660Y1734060D01*
X445200Y1734360D01*
X460200Y1734360D01*
X462700Y1734640D01*
X464840Y1735400D01*
X466780Y1736620D01*
X468380Y1738220D01*
X469600Y1740160D01*
X470360Y1742300D01*
X470640Y1744800D01*
X470640Y1815200D01*
X470360Y1817700D01*
X469600Y1819840D01*
X468380Y1821780D01*
X466780Y1823380D01*
X464840Y1824600D01*
X462700Y1825360D01*
X460200Y1825640D01*
X389799Y1825640D01*
X387299Y1825360D01*
X385160Y1824600D01*
X383220Y1823380D01*
X381620Y1821780D01*
X380400Y1819840D01*
X379640Y1817700D01*
X379360Y1815200D01*
X379360Y1744800D01*
X379640Y1742300D01*
X380400Y1740160D01*
X381620Y1738220D01*
X383220Y1736620D01*
X385160Y1735400D01*
X387299Y1734640D01*
X389799Y1734360D01*
X404799Y1734360D01*
X406340Y1734060D01*
X407620Y1733200D01*
X408500Y1731900D01*
X408800Y1730360D01*
X408800Y1607240D01*
X408560Y1605900D01*
X407900Y1604720D01*
X406860Y1603820D01*
X401840Y1600780D01*
X397140Y1597100D01*
X392900Y1592860D01*
X389219Y1588160D01*
X386120Y1583040D01*
X383660Y1577580D01*
X381880Y1571860D01*
X380800Y1565980D01*
X380439Y1560000D01*
X380800Y1554019D01*
X381880Y1548140D01*
X383660Y1542420D01*
X386120Y1536960D01*
X389219Y1531840D01*
X392900Y1527140D01*
X397140Y1522900D01*
X401840Y1519220D01*
X406960Y1516120D01*
X412420Y1513660D01*
X418140Y1511879D01*
X424020Y1510800D01*
G37*
G36*
X2933660Y1549840D02*
G01*
X2939020Y1550020D01*
X2944320Y1550900D01*
X2949440Y1552500D01*
X2954320Y1554760D01*
X2958840Y1557640D01*
X2962940Y1561100D01*
X2966540Y1565100D01*
X2969580Y1569520D01*
X2972000Y1574300D01*
X2973759Y1579379D01*
X2974840Y1584640D01*
X2975200Y1590000D01*
X2974840Y1595360D01*
X2973759Y1600620D01*
X2972000Y1605700D01*
X2969580Y1610480D01*
X2966540Y1614900D01*
X2962940Y1618899D01*
X2958840Y1622360D01*
X2954320Y1625240D01*
X2949440Y1627500D01*
X2944320Y1629100D01*
X2939020Y1629980D01*
X2933660Y1630160D01*
X2928320Y1629640D01*
X2923100Y1628380D01*
X2918080Y1626459D01*
X2913380Y1623880D01*
X2909060Y1620700D01*
X2905200Y1616960D01*
X2901860Y1612740D01*
X2899120Y1608120D01*
X2897040Y1603180D01*
X2895620Y1598000D01*
X2894900Y1592680D01*
X2894900Y1587320D01*
X2895620Y1582000D01*
X2897040Y1576819D01*
X2899120Y1571879D01*
X2901860Y1567260D01*
X2905200Y1563040D01*
X2909060Y1559300D01*
X2913380Y1556120D01*
X2918080Y1553540D01*
X2923100Y1551620D01*
X2928320Y1550360D01*
G37*
G36*
X4058279Y1607320D02*
G01*
X4058279Y1630880D01*
X4034800Y1630880D01*
X4036100Y1628280D01*
X4039520Y1623100D01*
X4043519Y1618320D01*
X4048060Y1614060D01*
X4053039Y1610340D01*
G37*
G36*
X4106600Y1607320D02*
G01*
X4111840Y1610340D01*
X4116840Y1614060D01*
X4121360Y1618320D01*
X4125360Y1623100D01*
X4128780Y1628280D01*
X4130080Y1630880D01*
X4106600Y1630880D01*
G37*
G36*
X4106600Y1679199D02*
G01*
X4130080Y1679199D01*
X4128780Y1681780D01*
X4125360Y1686980D01*
X4121360Y1691759D01*
X4116840Y1696020D01*
X4111840Y1699740D01*
X4106600Y1702760D01*
G37*
G36*
X4034800Y1679199D02*
G01*
X4058279Y1679199D01*
X4058279Y1702760D01*
X4053039Y1699740D01*
X4048060Y1696020D01*
X4043519Y1691759D01*
X4039520Y1686980D01*
X4036100Y1681780D01*
G37*
G36*
X2938660Y1714840D02*
G01*
X2944020Y1715020D01*
X2949320Y1715900D01*
X2954440Y1717500D01*
X2959320Y1719760D01*
X2963840Y1722640D01*
X2967940Y1726100D01*
X2971540Y1730100D01*
X2974580Y1734520D01*
X2975640Y1736600D01*
X2976520Y1737760D01*
X2977760Y1738540D01*
X2979200Y1738800D01*
X3016280Y1738800D01*
X3017799Y1738500D01*
X3019100Y1737620D01*
X3019960Y1736339D01*
X3020280Y1734800D01*
X3020280Y1725700D01*
X3020560Y1723200D01*
X3021300Y1721060D01*
X3022520Y1719120D01*
X3024120Y1717520D01*
X3026060Y1716300D01*
X3028200Y1715560D01*
X3030700Y1715280D01*
X3089300Y1715280D01*
X3091800Y1715560D01*
X3093940Y1716300D01*
X3095880Y1717520D01*
X3097480Y1719120D01*
X3098700Y1721060D01*
X3099440Y1723200D01*
X3099720Y1725700D01*
X3099720Y1784300D01*
X3099440Y1786800D01*
X3098700Y1788940D01*
X3097480Y1790880D01*
X3095880Y1792480D01*
X3093940Y1793700D01*
X3091800Y1794440D01*
X3089300Y1794720D01*
X3030700Y1794720D01*
X3028200Y1794440D01*
X3026060Y1793700D01*
X3024120Y1792480D01*
X3022520Y1790880D01*
X3021300Y1788940D01*
X3020560Y1786800D01*
X3020280Y1784300D01*
X3020280Y1775200D01*
X3019960Y1773660D01*
X3019100Y1772380D01*
X3017799Y1771500D01*
X3016280Y1771200D01*
X2979200Y1771200D01*
X2977760Y1771459D01*
X2976520Y1772240D01*
X2975640Y1773400D01*
X2974580Y1775480D01*
X2971540Y1779900D01*
X2967940Y1783899D01*
X2963840Y1787360D01*
X2959320Y1790240D01*
X2954440Y1792500D01*
X2949320Y1794100D01*
X2944020Y1794980D01*
X2938660Y1795160D01*
X2933320Y1794640D01*
X2928100Y1793380D01*
X2923080Y1791459D01*
X2918380Y1788880D01*
X2914060Y1785700D01*
X2910200Y1781960D01*
X2906860Y1777740D01*
X2904120Y1773120D01*
X2902040Y1768180D01*
X2900620Y1763000D01*
X2899900Y1757680D01*
X2899900Y1752320D01*
X2900620Y1747000D01*
X2902040Y1741819D01*
X2904120Y1736879D01*
X2906860Y1732260D01*
X2910200Y1728040D01*
X2914060Y1724300D01*
X2918380Y1721120D01*
X2923080Y1718540D01*
X2928100Y1716620D01*
X2933320Y1715360D01*
G37*
G36*
X522140Y1734460D02*
G01*
X527860Y1734460D01*
X533540Y1735180D01*
X539100Y1736600D01*
X544420Y1738720D01*
X549440Y1741480D01*
X554080Y1744840D01*
X558260Y1748760D01*
X561920Y1753180D01*
X564980Y1758020D01*
X567420Y1763200D01*
X569200Y1768660D01*
X570260Y1774280D01*
X570620Y1780000D01*
X570260Y1785720D01*
X569200Y1791339D01*
X567420Y1796800D01*
X564980Y1801980D01*
X561920Y1806819D01*
X558260Y1811240D01*
X554080Y1815160D01*
X549440Y1818520D01*
X544420Y1821279D01*
X543720Y1821560D01*
X542400Y1822420D01*
X541520Y1823720D01*
X541200Y1825280D01*
X541200Y2254800D01*
X541500Y2256340D01*
X542380Y2257620D01*
X543660Y2258500D01*
X545200Y2258800D01*
X767840Y2258800D01*
X769160Y2258580D01*
X770320Y2257940D01*
X771220Y2256940D01*
X773439Y2253440D01*
X777060Y2249060D01*
X781200Y2245180D01*
X785780Y2241840D01*
X790759Y2239100D01*
X796040Y2237020D01*
X801540Y2235600D01*
X807159Y2234900D01*
X812840Y2234900D01*
X818460Y2235600D01*
X823960Y2237020D01*
X829240Y2239100D01*
X834220Y2241840D01*
X838800Y2245180D01*
X842940Y2249060D01*
X846560Y2253440D01*
X849599Y2258220D01*
X851140Y2261500D01*
X852020Y2262720D01*
X853280Y2263520D01*
X854760Y2263800D01*
X1314800Y2263800D01*
X1316339Y2263500D01*
X1317620Y2262620D01*
X1318500Y2261340D01*
X1318800Y2259800D01*
X1318800Y2065200D01*
X1319139Y2061840D01*
X1320060Y2058800D01*
X1321540Y2056020D01*
X1323680Y2053400D01*
X1378400Y1998680D01*
X1381020Y1996540D01*
X1383800Y1995060D01*
X1386840Y1994139D01*
X1390200Y1993800D01*
X2199800Y1993800D01*
X2203160Y1994139D01*
X2206200Y1995060D01*
X2208980Y1996540D01*
X2211440Y1998560D01*
X2213460Y2001020D01*
X2214940Y2003800D01*
X2215860Y2006840D01*
X2216200Y2010200D01*
X2216200Y2108340D01*
X2216380Y2109540D01*
X2216920Y2110620D01*
X2219220Y2113900D01*
X2220860Y2117400D01*
X2221860Y2121140D01*
X2222200Y2125000D01*
X2221860Y2128860D01*
X2220860Y2132600D01*
X2219220Y2136100D01*
X2217000Y2139260D01*
X2214260Y2142000D01*
X2211100Y2144220D01*
X2207600Y2145860D01*
X2203860Y2146860D01*
X2200000Y2147200D01*
X2196140Y2146860D01*
X2192400Y2145860D01*
X2188900Y2144220D01*
X2185740Y2142000D01*
X2183000Y2139260D01*
X2180780Y2136100D01*
X2179140Y2132600D01*
X2178140Y2128860D01*
X2177800Y2125000D01*
X2178140Y2121140D01*
X2179140Y2117400D01*
X2180780Y2113900D01*
X2183080Y2110620D01*
X2183620Y2109540D01*
X2183800Y2108340D01*
X2183800Y2030200D01*
X2183500Y2028660D01*
X2182620Y2027380D01*
X2181340Y2026500D01*
X2179800Y2026200D01*
X1398360Y2026200D01*
X1396840Y2026500D01*
X1395540Y2027380D01*
X1352380Y2070540D01*
X1351500Y2071840D01*
X1351200Y2073360D01*
X1351200Y2279800D01*
X1350860Y2283160D01*
X1349940Y2286200D01*
X1348460Y2288980D01*
X1346440Y2291440D01*
X1343980Y2293460D01*
X1341200Y2294940D01*
X1338160Y2295860D01*
X1334800Y2296200D01*
X854760Y2296200D01*
X853280Y2296480D01*
X852020Y2297280D01*
X851140Y2298500D01*
X849599Y2301780D01*
X846560Y2306560D01*
X842940Y2310940D01*
X838800Y2314820D01*
X834220Y2318160D01*
X829240Y2320900D01*
X823960Y2322980D01*
X818460Y2324400D01*
X812840Y2325100D01*
X807159Y2325100D01*
X801540Y2324400D01*
X796040Y2322980D01*
X790759Y2320900D01*
X785780Y2318160D01*
X781200Y2314820D01*
X777060Y2310940D01*
X773439Y2306560D01*
X770400Y2301780D01*
X767980Y2296640D01*
X767120Y2293960D01*
X766280Y2292520D01*
X764940Y2291540D01*
X763300Y2291200D01*
X525200Y2291200D01*
X521840Y2290860D01*
X518800Y2289940D01*
X516019Y2288460D01*
X513560Y2286440D01*
X511540Y2283980D01*
X510060Y2281200D01*
X509140Y2278160D01*
X508800Y2274800D01*
X508800Y1825280D01*
X508480Y1823720D01*
X507600Y1822420D01*
X506280Y1821560D01*
X505580Y1821279D01*
X500560Y1818520D01*
X495920Y1815160D01*
X491740Y1811240D01*
X488080Y1806819D01*
X485020Y1801980D01*
X482580Y1796800D01*
X480800Y1791339D01*
X479739Y1785720D01*
X479380Y1780000D01*
X479739Y1774280D01*
X480800Y1768660D01*
X482580Y1763200D01*
X485020Y1758020D01*
X488080Y1753180D01*
X491740Y1748760D01*
X495920Y1744840D01*
X500560Y1741480D01*
X505580Y1738720D01*
X510900Y1736600D01*
X516460Y1735180D01*
G37*
G36*
X811919Y1750820D02*
G01*
X819539Y1751380D01*
X827080Y1752680D01*
X834479Y1754680D01*
X841620Y1757400D01*
X848480Y1760780D01*
X854980Y1764820D01*
X861060Y1769460D01*
X866680Y1774680D01*
X871740Y1780400D01*
X876240Y1786600D01*
X880120Y1793200D01*
X883340Y1800140D01*
X885879Y1807360D01*
X887720Y1814780D01*
X888820Y1822360D01*
X889200Y1830000D01*
X888820Y1837640D01*
X887720Y1845220D01*
X885879Y1852640D01*
X883340Y1859860D01*
X880120Y1866800D01*
X876240Y1873400D01*
X871740Y1879600D01*
X866680Y1885320D01*
X861060Y1890540D01*
X854980Y1895180D01*
X848480Y1899220D01*
X841620Y1902600D01*
X834479Y1905320D01*
X827080Y1907320D01*
X819539Y1908620D01*
X811919Y1909180D01*
X804260Y1908980D01*
X796660Y1908060D01*
X789200Y1906420D01*
X781919Y1904040D01*
X774900Y1901000D01*
X768220Y1897280D01*
X761919Y1892920D01*
X756060Y1888000D01*
X750720Y1882520D01*
X745920Y1876540D01*
X741740Y1870140D01*
X738180Y1863380D01*
X735300Y1856279D01*
X733100Y1848959D01*
X731640Y1841440D01*
X730900Y1833820D01*
X730900Y1826180D01*
X731640Y1818560D01*
X733100Y1811040D01*
X735300Y1803720D01*
X738180Y1796620D01*
X741740Y1789860D01*
X745920Y1783460D01*
X750720Y1777480D01*
X756060Y1772000D01*
X761919Y1767080D01*
X768220Y1762720D01*
X774900Y1759000D01*
X781919Y1755960D01*
X789200Y1753580D01*
X796660Y1751940D01*
X804260Y1751020D01*
G37*
G36*
X1611920Y1750820D02*
G01*
X1619540Y1751380D01*
X1627080Y1752680D01*
X1634480Y1754680D01*
X1641620Y1757400D01*
X1648480Y1760780D01*
X1654980Y1764820D01*
X1661060Y1769460D01*
X1666680Y1774680D01*
X1671740Y1780400D01*
X1676240Y1786600D01*
X1680120Y1793200D01*
X1683340Y1800140D01*
X1685880Y1807360D01*
X1687720Y1814780D01*
X1688820Y1822360D01*
X1689199Y1830000D01*
X1688820Y1837640D01*
X1687720Y1845220D01*
X1685880Y1852640D01*
X1683340Y1859860D01*
X1680120Y1866800D01*
X1676240Y1873400D01*
X1671740Y1879600D01*
X1666680Y1885320D01*
X1661060Y1890540D01*
X1654980Y1895180D01*
X1648480Y1899220D01*
X1641620Y1902600D01*
X1634480Y1905320D01*
X1627080Y1907320D01*
X1619540Y1908620D01*
X1611920Y1909180D01*
X1604259Y1908980D01*
X1596660Y1908060D01*
X1589199Y1906420D01*
X1581920Y1904040D01*
X1574900Y1901000D01*
X1568220Y1897280D01*
X1561920Y1892920D01*
X1556060Y1888000D01*
X1550720Y1882520D01*
X1545920Y1876540D01*
X1541740Y1870140D01*
X1538180Y1863380D01*
X1535300Y1856279D01*
X1533100Y1848959D01*
X1531639Y1841440D01*
X1530900Y1833820D01*
X1530900Y1826180D01*
X1531639Y1818560D01*
X1533100Y1811040D01*
X1535300Y1803720D01*
X1538180Y1796620D01*
X1541740Y1789860D01*
X1545920Y1783460D01*
X1550720Y1777480D01*
X1556060Y1772000D01*
X1561920Y1767080D01*
X1568220Y1762720D01*
X1574900Y1759000D01*
X1581920Y1755960D01*
X1589199Y1753580D01*
X1596660Y1751940D01*
X1604259Y1751020D01*
G37*
G36*
X790000Y2039520D02*
G01*
X790000Y2060000D01*
X769560Y2060000D01*
X770400Y2058220D01*
X773439Y2053440D01*
X777060Y2049060D01*
X781200Y2045180D01*
X785780Y2041840D01*
G37*
G36*
X1590000Y2039520D02*
G01*
X1590000Y2060000D01*
X1569560Y2060000D01*
X1570400Y2058220D01*
X1573440Y2053440D01*
X1577060Y2049060D01*
X1581200Y2045180D01*
X1585780Y2041840D01*
G37*
G36*
X1630000Y2039520D02*
G01*
X1634220Y2041840D01*
X1638800Y2045180D01*
X1642940Y2049060D01*
X1646560Y2053440D01*
X1649600Y2058220D01*
X1650440Y2060000D01*
X1630000Y2060000D01*
G37*
G36*
X830000Y2039520D02*
G01*
X834220Y2041840D01*
X838800Y2045180D01*
X842940Y2049060D01*
X846560Y2053440D01*
X849599Y2058220D01*
X850440Y2060000D01*
X830000Y2060000D01*
G37*
G36*
X2933660Y2084840D02*
G01*
X2939020Y2085020D01*
X2944320Y2085900D01*
X2949440Y2087500D01*
X2954320Y2089760D01*
X2958840Y2092640D01*
X2962940Y2096100D01*
X2966540Y2100100D01*
X2969580Y2104520D01*
X2972000Y2109300D01*
X2973759Y2114380D01*
X2974840Y2119640D01*
X2975200Y2125000D01*
X2974840Y2130360D01*
X2973759Y2135620D01*
X2972000Y2140700D01*
X2969580Y2145480D01*
X2966540Y2149900D01*
X2962940Y2153900D01*
X2958840Y2157360D01*
X2954320Y2160240D01*
X2949440Y2162500D01*
X2944320Y2164100D01*
X2939020Y2164980D01*
X2933660Y2165160D01*
X2928320Y2164640D01*
X2923100Y2163380D01*
X2918080Y2161460D01*
X2913380Y2158880D01*
X2909060Y2155700D01*
X2905200Y2151960D01*
X2901860Y2147740D01*
X2899120Y2143120D01*
X2897040Y2138180D01*
X2895620Y2133000D01*
X2894900Y2127680D01*
X2894900Y2122320D01*
X2895620Y2117000D01*
X2897040Y2111820D01*
X2899120Y2106880D01*
X2901860Y2102260D01*
X2905200Y2098040D01*
X2909060Y2094300D01*
X2913380Y2091120D01*
X2918080Y2088540D01*
X2923100Y2086620D01*
X2928320Y2085360D01*
G37*
G36*
X830000Y2100000D02*
G01*
X850440Y2100000D01*
X849599Y2101780D01*
X846560Y2106560D01*
X842940Y2110940D01*
X838800Y2114820D01*
X834220Y2118160D01*
X830000Y2120480D01*
G37*
G36*
X1630000Y2100000D02*
G01*
X1650440Y2100000D01*
X1649600Y2101780D01*
X1646560Y2106560D01*
X1642940Y2110940D01*
X1638800Y2114820D01*
X1634220Y2118160D01*
X1630000Y2120480D01*
G37*
G36*
X1569560Y2100000D02*
G01*
X1590000Y2100000D01*
X1590000Y2120480D01*
X1585780Y2118160D01*
X1581200Y2114820D01*
X1577060Y2110940D01*
X1573440Y2106560D01*
X1570400Y2101780D01*
G37*
G36*
X769560Y2100000D02*
G01*
X790000Y2100000D01*
X790000Y2120480D01*
X785780Y2118160D01*
X781200Y2114820D01*
X777060Y2110940D01*
X773439Y2106560D01*
X770400Y2101780D01*
G37*
G36*
X807159Y2134900D02*
G01*
X812840Y2134900D01*
X818460Y2135600D01*
X823960Y2137020D01*
X829240Y2139100D01*
X834220Y2141840D01*
X838800Y2145180D01*
X842940Y2149060D01*
X846560Y2153440D01*
X849599Y2158220D01*
X852020Y2163360D01*
X853780Y2168760D01*
X854840Y2174340D01*
X855200Y2180000D01*
X854840Y2185660D01*
X853780Y2191240D01*
X852020Y2196640D01*
X849599Y2201780D01*
X846560Y2206560D01*
X842940Y2210940D01*
X838800Y2214820D01*
X834220Y2218160D01*
X829240Y2220900D01*
X823960Y2222980D01*
X818460Y2224400D01*
X812840Y2225100D01*
X807159Y2225100D01*
X801540Y2224400D01*
X796040Y2222980D01*
X790759Y2220900D01*
X785780Y2218160D01*
X781200Y2214820D01*
X777060Y2210940D01*
X773439Y2206560D01*
X770400Y2201780D01*
X767980Y2196640D01*
X766220Y2191240D01*
X765160Y2185660D01*
X764800Y2180000D01*
X765160Y2174340D01*
X766220Y2168760D01*
X767980Y2163360D01*
X770400Y2158220D01*
X773439Y2153440D01*
X777060Y2149060D01*
X781200Y2145180D01*
X785780Y2141840D01*
X790759Y2139100D01*
X796040Y2137020D01*
X801540Y2135600D01*
G37*
G36*
X1607160Y2134900D02*
G01*
X1612840Y2134900D01*
X1618460Y2135600D01*
X1623959Y2137020D01*
X1629240Y2139100D01*
X1634220Y2141840D01*
X1638800Y2145180D01*
X1642940Y2149060D01*
X1646560Y2153440D01*
X1649600Y2158220D01*
X1652020Y2163360D01*
X1653779Y2168760D01*
X1654840Y2174340D01*
X1655200Y2180000D01*
X1654840Y2185660D01*
X1653779Y2191240D01*
X1652020Y2196640D01*
X1649600Y2201780D01*
X1646560Y2206560D01*
X1642940Y2210940D01*
X1638800Y2214820D01*
X1634220Y2218160D01*
X1629240Y2220900D01*
X1623959Y2222980D01*
X1618460Y2224400D01*
X1612840Y2225100D01*
X1607160Y2225100D01*
X1601540Y2224400D01*
X1596040Y2222980D01*
X1590760Y2220900D01*
X1585780Y2218160D01*
X1581200Y2214820D01*
X1577060Y2210940D01*
X1573440Y2206560D01*
X1570400Y2201780D01*
X1567980Y2196640D01*
X1566220Y2191240D01*
X1565160Y2185660D01*
X1564800Y2180000D01*
X1565160Y2174340D01*
X1566220Y2168760D01*
X1567980Y2163360D01*
X1570400Y2158220D01*
X1573440Y2153440D01*
X1577060Y2149060D01*
X1581200Y2145180D01*
X1585780Y2141840D01*
X1590760Y2139100D01*
X1596040Y2137020D01*
X1601540Y2135600D01*
G37*
G36*
X4058279Y2242240D02*
G01*
X4058279Y2265800D01*
X4034800Y2265800D01*
X4036100Y2263220D01*
X4039520Y2258020D01*
X4043519Y2253240D01*
X4048060Y2248980D01*
X4053039Y2245260D01*
G37*
G36*
X4106600Y2242240D02*
G01*
X4111840Y2245260D01*
X4116840Y2248980D01*
X4121360Y2253240D01*
X4125360Y2258020D01*
X4128780Y2263220D01*
X4130080Y2265800D01*
X4106600Y2265800D01*
G37*
G36*
X2938660Y2259840D02*
G01*
X2944020Y2260020D01*
X2949320Y2260900D01*
X2954440Y2262500D01*
X2959320Y2264760D01*
X2963840Y2267640D01*
X2967940Y2271100D01*
X2971540Y2275100D01*
X2974580Y2279520D01*
X2977000Y2284300D01*
X2977620Y2286120D01*
X2978460Y2287520D01*
X2979800Y2288460D01*
X2981400Y2288800D01*
X3016280Y2288800D01*
X3017799Y2288500D01*
X3019100Y2287620D01*
X3019960Y2286340D01*
X3020280Y2284800D01*
X3020280Y2275700D01*
X3020560Y2273200D01*
X3021300Y2271060D01*
X3022520Y2269120D01*
X3024120Y2267520D01*
X3026060Y2266300D01*
X3028200Y2265560D01*
X3030700Y2265280D01*
X3089300Y2265280D01*
X3091800Y2265560D01*
X3093940Y2266300D01*
X3095880Y2267520D01*
X3097480Y2269120D01*
X3098700Y2271060D01*
X3099440Y2273200D01*
X3099720Y2275700D01*
X3099720Y2334300D01*
X3099440Y2336800D01*
X3098700Y2338940D01*
X3097480Y2340880D01*
X3095880Y2342480D01*
X3093940Y2343700D01*
X3091800Y2344440D01*
X3089300Y2344720D01*
X3030700Y2344720D01*
X3028200Y2344440D01*
X3026060Y2343700D01*
X3024120Y2342480D01*
X3022520Y2340880D01*
X3021300Y2338940D01*
X3020560Y2336800D01*
X3020280Y2334300D01*
X3020280Y2325200D01*
X3019960Y2323660D01*
X3019100Y2322380D01*
X3017799Y2321500D01*
X3016280Y2321200D01*
X2976200Y2321200D01*
X2974920Y2321400D01*
X2973780Y2322000D01*
X2972900Y2322940D01*
X2971540Y2324900D01*
X2967940Y2328900D01*
X2963840Y2332360D01*
X2959320Y2335240D01*
X2954440Y2337500D01*
X2949320Y2339100D01*
X2944020Y2339980D01*
X2938660Y2340160D01*
X2933320Y2339640D01*
X2928100Y2338380D01*
X2923080Y2336460D01*
X2918380Y2333880D01*
X2914060Y2330700D01*
X2910200Y2326960D01*
X2906860Y2322740D01*
X2904120Y2318120D01*
X2902040Y2313180D01*
X2900620Y2308000D01*
X2899900Y2302680D01*
X2899900Y2297320D01*
X2900620Y2292000D01*
X2902040Y2286820D01*
X2904120Y2281880D01*
X2906860Y2277260D01*
X2910200Y2273040D01*
X2914060Y2269300D01*
X2918380Y2266120D01*
X2923080Y2263540D01*
X2928100Y2261620D01*
X2933320Y2260360D01*
G37*
G36*
X3933860Y2301900D02*
G01*
X3941259Y2301900D01*
X3948639Y2302660D01*
X3955899Y2304140D01*
X3962980Y2306360D01*
X3969800Y2309300D01*
X3976280Y2312900D01*
X3982360Y2317120D01*
X3987980Y2321960D01*
X3993100Y2327320D01*
X3997620Y2333200D01*
X4001540Y2339480D01*
X4004820Y2346140D01*
X4007380Y2353100D01*
X4009240Y2360260D01*
X4010380Y2367600D01*
X4010740Y2375000D01*
X4010380Y2382400D01*
X4009240Y2389740D01*
X4007380Y2396900D01*
X4004820Y2403860D01*
X4001540Y2410520D01*
X3997620Y2416800D01*
X3993100Y2422680D01*
X3987980Y2428040D01*
X3982360Y2432880D01*
X3976280Y2437100D01*
X3969800Y2440700D01*
X3962980Y2443640D01*
X3955899Y2445860D01*
X3948639Y2447340D01*
X3941259Y2448100D01*
X3933860Y2448100D01*
X3926480Y2447340D01*
X3919220Y2445860D01*
X3912140Y2443640D01*
X3905320Y2440700D01*
X3898840Y2437100D01*
X3892760Y2432880D01*
X3887140Y2428040D01*
X3882020Y2422680D01*
X3877480Y2416800D01*
X3873560Y2410520D01*
X3870299Y2403860D01*
X3867720Y2396900D01*
X3865880Y2389740D01*
X3864740Y2382400D01*
X3864380Y2375000D01*
X3864740Y2367600D01*
X3865880Y2360260D01*
X3867720Y2353100D01*
X3870299Y2346140D01*
X3873560Y2339480D01*
X3877480Y2333200D01*
X3882020Y2327320D01*
X3887140Y2321960D01*
X3892760Y2317120D01*
X3898840Y2312900D01*
X3905320Y2309300D01*
X3912140Y2306360D01*
X3919220Y2304140D01*
X3926480Y2302660D01*
G37*
G36*
X4106600Y2314120D02*
G01*
X4130080Y2314120D01*
X4128780Y2316720D01*
X4125360Y2321900D01*
X4121360Y2326680D01*
X4116840Y2330940D01*
X4111840Y2334660D01*
X4106600Y2337680D01*
G37*
G36*
X4034800Y2314120D02*
G01*
X4058279Y2314120D01*
X4058279Y2337680D01*
X4053039Y2334660D01*
X4048060Y2330940D01*
X4043519Y2326680D01*
X4039520Y2321900D01*
X4036100Y2316720D01*
G37*
G36*
X807159Y2334900D02*
G01*
X812840Y2334900D01*
X818460Y2335600D01*
X823960Y2337020D01*
X829240Y2339100D01*
X834220Y2341840D01*
X838800Y2345180D01*
X842940Y2349060D01*
X846560Y2353440D01*
X849599Y2358220D01*
X851140Y2361500D01*
X852020Y2362720D01*
X853280Y2363520D01*
X854760Y2363800D01*
X1464800Y2363800D01*
X1468160Y2364140D01*
X1471200Y2365060D01*
X1473980Y2366540D01*
X1476440Y2368560D01*
X1478460Y2371020D01*
X1479940Y2373800D01*
X1480860Y2376840D01*
X1481200Y2380200D01*
X1481200Y2809800D01*
X1481500Y2811340D01*
X1482380Y2812620D01*
X1483660Y2813500D01*
X1485200Y2813800D01*
X1570920Y2813800D01*
X1572400Y2813519D01*
X1573660Y2812720D01*
X1574540Y2811500D01*
X1574920Y2810059D01*
X1574720Y2808560D01*
X1574000Y2807260D01*
X1573440Y2806560D01*
X1570400Y2801780D01*
X1567980Y2796640D01*
X1566220Y2791240D01*
X1565160Y2785659D01*
X1564800Y2780000D01*
X1565160Y2774340D01*
X1566220Y2768759D01*
X1567980Y2763360D01*
X1570400Y2758220D01*
X1573440Y2753440D01*
X1577060Y2749060D01*
X1581200Y2745179D01*
X1585780Y2741840D01*
X1590760Y2739100D01*
X1596040Y2737020D01*
X1601540Y2735600D01*
X1607160Y2734900D01*
X1612840Y2734900D01*
X1618460Y2735600D01*
X1623959Y2737020D01*
X1629240Y2739100D01*
X1634220Y2741840D01*
X1638800Y2745179D01*
X1642940Y2749060D01*
X1646560Y2753440D01*
X1649600Y2758220D01*
X1652020Y2763360D01*
X1653779Y2768759D01*
X1654840Y2774340D01*
X1655200Y2780000D01*
X1654840Y2785659D01*
X1653779Y2791240D01*
X1652020Y2796640D01*
X1649600Y2801780D01*
X1646560Y2806560D01*
X1646000Y2807260D01*
X1645280Y2808560D01*
X1645080Y2810059D01*
X1645460Y2811500D01*
X1646339Y2812720D01*
X1647600Y2813519D01*
X1649079Y2813800D01*
X2249800Y2813800D01*
X2253160Y2814140D01*
X2256200Y2815059D01*
X2258980Y2816540D01*
X2261440Y2818560D01*
X2263460Y2821019D01*
X2264940Y2823800D01*
X2265860Y2826840D01*
X2266200Y2830200D01*
X2266200Y3084800D01*
X2266500Y3086340D01*
X2267380Y3087620D01*
X2268660Y3088500D01*
X2270200Y3088800D01*
X3094800Y3088800D01*
X3096340Y3088500D01*
X3097620Y3087620D01*
X3098500Y3086340D01*
X3098800Y3084800D01*
X3098800Y3009220D01*
X3098500Y3007679D01*
X3097620Y3006380D01*
X3096340Y3005520D01*
X3094800Y3005220D01*
X3093260Y3005520D01*
X3091980Y3006380D01*
X3090880Y3007480D01*
X3088940Y3008700D01*
X3086800Y3009440D01*
X3084300Y3009720D01*
X3025700Y3009720D01*
X3023200Y3009440D01*
X3021060Y3008700D01*
X3019120Y3007480D01*
X3017520Y3005880D01*
X3016300Y3003940D01*
X3015560Y3001800D01*
X3015280Y2999300D01*
X3015280Y2990200D01*
X3014960Y2988660D01*
X3014100Y2987380D01*
X3012799Y2986500D01*
X3011280Y2986200D01*
X2961200Y2986200D01*
X2959920Y2986400D01*
X2958780Y2987000D01*
X2957900Y2987940D01*
X2956540Y2989900D01*
X2952940Y2993900D01*
X2948840Y2997360D01*
X2944320Y3000240D01*
X2939440Y3002500D01*
X2934320Y3004100D01*
X2929020Y3004980D01*
X2923660Y3005160D01*
X2918320Y3004640D01*
X2912940Y3003320D01*
X2911440Y3003060D01*
X2909940Y3003380D01*
X2908680Y3004240D01*
X2856600Y3056320D01*
X2853980Y3058460D01*
X2851200Y3059940D01*
X2848159Y3060860D01*
X2844800Y3061200D01*
X2320200Y3061200D01*
X2316840Y3060860D01*
X2313800Y3059940D01*
X2311020Y3058460D01*
X2308560Y3056440D01*
X2306540Y3053980D01*
X2305060Y3051200D01*
X2304140Y3048159D01*
X2303800Y3044800D01*
X2303800Y2400200D01*
X2303500Y2398660D01*
X2302620Y2397380D01*
X2301340Y2396500D01*
X2299800Y2396200D01*
X1654760Y2396200D01*
X1653280Y2396480D01*
X1652020Y2397280D01*
X1651140Y2398500D01*
X1649600Y2401780D01*
X1646560Y2406560D01*
X1642940Y2410940D01*
X1638800Y2414820D01*
X1634220Y2418160D01*
X1629240Y2420900D01*
X1623959Y2422980D01*
X1618460Y2424400D01*
X1612840Y2425100D01*
X1607160Y2425100D01*
X1601540Y2424400D01*
X1596040Y2422980D01*
X1590760Y2420900D01*
X1585780Y2418160D01*
X1581200Y2414820D01*
X1577060Y2410940D01*
X1573440Y2406560D01*
X1570400Y2401780D01*
X1567980Y2396640D01*
X1566220Y2391240D01*
X1565160Y2385660D01*
X1564800Y2380000D01*
X1565160Y2374340D01*
X1566220Y2368760D01*
X1567980Y2363360D01*
X1570400Y2358220D01*
X1573440Y2353440D01*
X1577060Y2349060D01*
X1581200Y2345180D01*
X1585780Y2341840D01*
X1590760Y2339100D01*
X1596040Y2337020D01*
X1601540Y2335600D01*
X1607160Y2334900D01*
X1612840Y2334900D01*
X1618460Y2335600D01*
X1623959Y2337020D01*
X1629240Y2339100D01*
X1634220Y2341840D01*
X1638800Y2345180D01*
X1642940Y2349060D01*
X1646560Y2353440D01*
X1649600Y2358220D01*
X1651140Y2361500D01*
X1652020Y2362720D01*
X1653280Y2363520D01*
X1654760Y2363800D01*
X2319800Y2363800D01*
X2323160Y2364140D01*
X2326200Y2365060D01*
X2328980Y2366540D01*
X2331440Y2368560D01*
X2333460Y2371020D01*
X2334940Y2373800D01*
X2335860Y2376840D01*
X2336200Y2380200D01*
X2336200Y3024800D01*
X2336500Y3026340D01*
X2337380Y3027620D01*
X2338660Y3028500D01*
X2340200Y3028800D01*
X2836640Y3028800D01*
X2838159Y3028500D01*
X2839460Y3027620D01*
X2885800Y2981300D01*
X2886600Y2980160D01*
X2886940Y2978800D01*
X2886820Y2977420D01*
X2885620Y2973000D01*
X2884900Y2967679D01*
X2884900Y2962320D01*
X2885620Y2957000D01*
X2887040Y2951820D01*
X2889120Y2946880D01*
X2891860Y2942260D01*
X2895200Y2938039D01*
X2899060Y2934300D01*
X2903380Y2931120D01*
X2908080Y2928540D01*
X2913100Y2926620D01*
X2918320Y2925360D01*
X2923660Y2924840D01*
X2929020Y2925020D01*
X2934320Y2925899D01*
X2939440Y2927500D01*
X2944320Y2929760D01*
X2948840Y2932640D01*
X2952940Y2936100D01*
X2956540Y2940100D01*
X2959580Y2944520D01*
X2962000Y2949300D01*
X2962620Y2951120D01*
X2963460Y2952520D01*
X2964800Y2953460D01*
X2966400Y2953800D01*
X3011280Y2953800D01*
X3012799Y2953500D01*
X3014100Y2952620D01*
X3014960Y2951340D01*
X3015280Y2949800D01*
X3015280Y2940700D01*
X3015560Y2938200D01*
X3016300Y2936060D01*
X3017520Y2934120D01*
X3019120Y2932520D01*
X3021060Y2931300D01*
X3023200Y2930560D01*
X3025700Y2930280D01*
X3084300Y2930280D01*
X3086800Y2930560D01*
X3088940Y2931300D01*
X3090880Y2932520D01*
X3091980Y2933620D01*
X3093260Y2934480D01*
X3094800Y2934780D01*
X3096340Y2934480D01*
X3097620Y2933620D01*
X3098500Y2932320D01*
X3098800Y2930779D01*
X3098800Y2803360D01*
X3098500Y2801840D01*
X3097620Y2800539D01*
X3043680Y2746600D01*
X3041540Y2743980D01*
X3040059Y2741200D01*
X3039140Y2738159D01*
X3038800Y2734800D01*
X3038800Y2678720D01*
X3038500Y2677200D01*
X3037620Y2675899D01*
X3036340Y2675040D01*
X3034800Y2674720D01*
X3025700Y2674720D01*
X3023200Y2674440D01*
X3021060Y2673700D01*
X3019120Y2672480D01*
X3017520Y2670880D01*
X3016300Y2668940D01*
X3015560Y2666800D01*
X3015280Y2664300D01*
X3015280Y2655200D01*
X3014960Y2653660D01*
X3014100Y2652380D01*
X3012799Y2651500D01*
X3011280Y2651200D01*
X2974200Y2651200D01*
X2972760Y2651460D01*
X2971520Y2652240D01*
X2970640Y2653399D01*
X2969580Y2655480D01*
X2966540Y2659900D01*
X2962940Y2663900D01*
X2958840Y2667360D01*
X2954320Y2670240D01*
X2949440Y2672500D01*
X2944320Y2674100D01*
X2939020Y2674980D01*
X2933660Y2675160D01*
X2928320Y2674640D01*
X2923100Y2673380D01*
X2918080Y2671460D01*
X2913380Y2668880D01*
X2909060Y2665700D01*
X2905200Y2661960D01*
X2901860Y2657740D01*
X2899120Y2653120D01*
X2897040Y2648180D01*
X2895620Y2643000D01*
X2894900Y2637679D01*
X2894900Y2632320D01*
X2895620Y2627000D01*
X2897040Y2621820D01*
X2899120Y2616880D01*
X2901860Y2612260D01*
X2905200Y2608039D01*
X2909060Y2604300D01*
X2913380Y2601120D01*
X2918080Y2598540D01*
X2923100Y2596620D01*
X2928320Y2595360D01*
X2933660Y2594840D01*
X2939020Y2595020D01*
X2944320Y2595899D01*
X2949440Y2597500D01*
X2954320Y2599760D01*
X2958840Y2602640D01*
X2962940Y2606100D01*
X2966540Y2610100D01*
X2969580Y2614520D01*
X2970640Y2616600D01*
X2971520Y2617760D01*
X2972760Y2618540D01*
X2974200Y2618800D01*
X3011280Y2618800D01*
X3012799Y2618500D01*
X3014100Y2617620D01*
X3014960Y2616340D01*
X3015280Y2614800D01*
X3015280Y2605700D01*
X3015560Y2603200D01*
X3016300Y2601060D01*
X3017520Y2599120D01*
X3019120Y2597520D01*
X3021060Y2596300D01*
X3023200Y2595560D01*
X3025700Y2595280D01*
X3084300Y2595280D01*
X3086800Y2595560D01*
X3088940Y2596300D01*
X3090880Y2597520D01*
X3092480Y2599120D01*
X3093700Y2601060D01*
X3094440Y2603200D01*
X3094720Y2605700D01*
X3094720Y2664300D01*
X3094440Y2666800D01*
X3093700Y2668940D01*
X3092480Y2670880D01*
X3090880Y2672480D01*
X3088940Y2673700D01*
X3086800Y2674440D01*
X3084300Y2674720D01*
X3075200Y2674720D01*
X3073660Y2675040D01*
X3072380Y2675899D01*
X3071500Y2677200D01*
X3071200Y2678720D01*
X3071200Y2726640D01*
X3071500Y2728159D01*
X3072380Y2729460D01*
X3126320Y2783399D01*
X3128460Y2786019D01*
X3129940Y2788800D01*
X3130860Y2791840D01*
X3131200Y2795200D01*
X3131200Y3104800D01*
X3130860Y3108159D01*
X3129940Y3111200D01*
X3128460Y3113980D01*
X3126440Y3116440D01*
X3123980Y3118460D01*
X3121200Y3119940D01*
X3118159Y3120860D01*
X3114800Y3121200D01*
X2250200Y3121200D01*
X2246840Y3120860D01*
X2243800Y3119940D01*
X2241020Y3118460D01*
X2238560Y3116440D01*
X2236540Y3113980D01*
X2235060Y3111200D01*
X2234140Y3108159D01*
X2233800Y3104800D01*
X2233800Y2850200D01*
X2233500Y2848660D01*
X2232620Y2847380D01*
X2231340Y2846500D01*
X2229800Y2846200D01*
X1649079Y2846200D01*
X1647600Y2846480D01*
X1646339Y2847280D01*
X1645460Y2848500D01*
X1645080Y2849940D01*
X1645280Y2851440D01*
X1646000Y2852740D01*
X1646560Y2853440D01*
X1649600Y2858220D01*
X1652020Y2863360D01*
X1653779Y2868759D01*
X1654840Y2874340D01*
X1655200Y2880000D01*
X1654840Y2885659D01*
X1653779Y2891240D01*
X1652020Y2896640D01*
X1649600Y2901780D01*
X1646560Y2906560D01*
X1642940Y2910940D01*
X1638800Y2914820D01*
X1634220Y2918159D01*
X1629240Y2920899D01*
X1623959Y2922980D01*
X1618460Y2924400D01*
X1612840Y2925100D01*
X1607160Y2925100D01*
X1601540Y2924400D01*
X1596040Y2922980D01*
X1590760Y2920899D01*
X1585780Y2918159D01*
X1581200Y2914820D01*
X1577060Y2910940D01*
X1573440Y2906560D01*
X1570400Y2901780D01*
X1567980Y2896640D01*
X1566220Y2891240D01*
X1565160Y2885659D01*
X1564800Y2880000D01*
X1565160Y2874340D01*
X1566220Y2868759D01*
X1567980Y2863360D01*
X1570400Y2858220D01*
X1573440Y2853440D01*
X1574000Y2852740D01*
X1574720Y2851440D01*
X1574920Y2849940D01*
X1574540Y2848500D01*
X1573660Y2847280D01*
X1572400Y2846480D01*
X1570920Y2846200D01*
X1465200Y2846200D01*
X1461840Y2845860D01*
X1458800Y2844940D01*
X1456020Y2843460D01*
X1453560Y2841440D01*
X1451540Y2838980D01*
X1450060Y2836200D01*
X1449139Y2833159D01*
X1448800Y2829800D01*
X1448800Y2400200D01*
X1448500Y2398660D01*
X1447620Y2397380D01*
X1446339Y2396500D01*
X1444800Y2396200D01*
X854760Y2396200D01*
X853280Y2396480D01*
X852020Y2397280D01*
X851140Y2398500D01*
X849599Y2401780D01*
X846560Y2406560D01*
X842940Y2410940D01*
X838800Y2414820D01*
X834220Y2418160D01*
X829240Y2420900D01*
X823960Y2422980D01*
X818460Y2424400D01*
X812840Y2425100D01*
X807159Y2425100D01*
X801540Y2424400D01*
X796040Y2422980D01*
X790759Y2420900D01*
X785780Y2418160D01*
X781200Y2414820D01*
X777060Y2410940D01*
X773439Y2406560D01*
X770400Y2401780D01*
X767980Y2396640D01*
X766220Y2391240D01*
X765160Y2385660D01*
X764800Y2380000D01*
X765160Y2374340D01*
X766220Y2368760D01*
X767980Y2363360D01*
X770400Y2358220D01*
X773439Y2353440D01*
X777060Y2349060D01*
X781200Y2345180D01*
X785780Y2341840D01*
X790759Y2339100D01*
X796040Y2337020D01*
X801540Y2335600D01*
G37*
G36*
X2933660Y2429840D02*
G01*
X2939020Y2430020D01*
X2944320Y2430900D01*
X2949440Y2432500D01*
X2954320Y2434760D01*
X2958840Y2437640D01*
X2962940Y2441100D01*
X2966540Y2445100D01*
X2969580Y2449520D01*
X2972000Y2454300D01*
X2973759Y2459380D01*
X2974840Y2464640D01*
X2975200Y2470000D01*
X2974840Y2475360D01*
X2973759Y2480620D01*
X2972000Y2485700D01*
X2969580Y2490480D01*
X2966540Y2494900D01*
X2962940Y2498900D01*
X2958840Y2502360D01*
X2954320Y2505240D01*
X2949440Y2507500D01*
X2944320Y2509100D01*
X2939020Y2509980D01*
X2933660Y2510160D01*
X2928320Y2509640D01*
X2923100Y2508380D01*
X2918080Y2506460D01*
X2913380Y2503880D01*
X2909060Y2500700D01*
X2905200Y2496960D01*
X2901860Y2492740D01*
X2899120Y2488120D01*
X2897040Y2483180D01*
X2895620Y2478000D01*
X2894900Y2472680D01*
X2894900Y2467320D01*
X2895620Y2462000D01*
X2897040Y2456820D01*
X2899120Y2451880D01*
X2901860Y2447260D01*
X2905200Y2443040D01*
X2909060Y2439300D01*
X2913380Y2436120D01*
X2918080Y2433540D01*
X2923100Y2431620D01*
X2928320Y2430360D01*
G37*
G36*
X1607160Y2434900D02*
G01*
X1612840Y2434900D01*
X1618460Y2435600D01*
X1623959Y2437020D01*
X1629240Y2439100D01*
X1634220Y2441840D01*
X1638800Y2445180D01*
X1642940Y2449060D01*
X1646560Y2453440D01*
X1649600Y2458220D01*
X1652020Y2463360D01*
X1653779Y2468760D01*
X1654840Y2474340D01*
X1655200Y2480000D01*
X1654840Y2485660D01*
X1653779Y2491240D01*
X1652020Y2496640D01*
X1649600Y2501780D01*
X1646560Y2506560D01*
X1642940Y2510940D01*
X1638800Y2514820D01*
X1634220Y2518160D01*
X1629240Y2520900D01*
X1623959Y2522980D01*
X1618460Y2524400D01*
X1612840Y2525100D01*
X1607160Y2525100D01*
X1601540Y2524400D01*
X1596040Y2522980D01*
X1590760Y2520900D01*
X1585780Y2518160D01*
X1581200Y2514820D01*
X1577060Y2510940D01*
X1573440Y2506560D01*
X1570400Y2501780D01*
X1567980Y2496640D01*
X1566220Y2491240D01*
X1565160Y2485660D01*
X1564800Y2480000D01*
X1565160Y2474340D01*
X1566220Y2468760D01*
X1567980Y2463360D01*
X1570400Y2458220D01*
X1573440Y2453440D01*
X1577060Y2449060D01*
X1581200Y2445180D01*
X1585780Y2441840D01*
X1590760Y2439100D01*
X1596040Y2437020D01*
X1601540Y2435600D01*
G37*
G36*
X807159Y2434900D02*
G01*
X812840Y2434900D01*
X818460Y2435600D01*
X823960Y2437020D01*
X829240Y2439100D01*
X834220Y2441840D01*
X838800Y2445180D01*
X842940Y2449060D01*
X846560Y2453440D01*
X849599Y2458220D01*
X852020Y2463360D01*
X853780Y2468760D01*
X854840Y2474340D01*
X855200Y2480000D01*
X854840Y2485660D01*
X853780Y2491240D01*
X852020Y2496640D01*
X849599Y2501780D01*
X846560Y2506560D01*
X842940Y2510940D01*
X838800Y2514820D01*
X834220Y2518160D01*
X829240Y2520900D01*
X823960Y2522980D01*
X818460Y2524400D01*
X812840Y2525100D01*
X807159Y2525100D01*
X801540Y2524400D01*
X796040Y2522980D01*
X790759Y2520900D01*
X785780Y2518160D01*
X781200Y2514820D01*
X777060Y2510940D01*
X773439Y2506560D01*
X770400Y2501780D01*
X767980Y2496640D01*
X766220Y2491240D01*
X765160Y2485660D01*
X764800Y2480000D01*
X765160Y2474340D01*
X766220Y2468760D01*
X767980Y2463360D01*
X770400Y2458220D01*
X773439Y2453440D01*
X777060Y2449060D01*
X781200Y2445180D01*
X785780Y2441840D01*
X790759Y2439100D01*
X796040Y2437020D01*
X801540Y2435600D01*
G37*
G36*
X3705800Y2487620D02*
G01*
X3708399Y2488900D01*
X3712940Y2491920D01*
X3717040Y2495520D01*
X3720640Y2499620D01*
X3723660Y2504160D01*
X3724940Y2506760D01*
X3705800Y2506760D01*
G37*
G36*
X487740Y2519520D02*
G01*
X552260Y2519520D01*
X554740Y2519800D01*
X556900Y2520560D01*
X558820Y2521760D01*
X560440Y2523380D01*
X561640Y2525300D01*
X562400Y2527460D01*
X562680Y2529940D01*
X562680Y2554800D01*
X562980Y2556340D01*
X563860Y2557620D01*
X565140Y2558500D01*
X566680Y2558800D01*
X767840Y2558800D01*
X769160Y2558580D01*
X770320Y2557940D01*
X771220Y2556940D01*
X773439Y2553440D01*
X777060Y2549060D01*
X781200Y2545180D01*
X785780Y2541840D01*
X790759Y2539100D01*
X796040Y2537020D01*
X801540Y2535600D01*
X807159Y2534900D01*
X812840Y2534900D01*
X818460Y2535600D01*
X823960Y2537020D01*
X829240Y2539100D01*
X834220Y2541840D01*
X838800Y2545180D01*
X842940Y2549060D01*
X846560Y2553440D01*
X849599Y2558220D01*
X852020Y2563360D01*
X853780Y2568759D01*
X854840Y2574340D01*
X855200Y2580000D01*
X854840Y2585659D01*
X853780Y2591240D01*
X852020Y2596640D01*
X849599Y2601780D01*
X846560Y2606560D01*
X842940Y2610940D01*
X838800Y2614820D01*
X834220Y2618159D01*
X829240Y2620899D01*
X823960Y2622980D01*
X818460Y2624400D01*
X812840Y2625100D01*
X807159Y2625100D01*
X801540Y2624400D01*
X796040Y2622980D01*
X790759Y2620899D01*
X785780Y2618159D01*
X781200Y2614820D01*
X777060Y2610940D01*
X773439Y2606560D01*
X770400Y2601780D01*
X767980Y2596640D01*
X767120Y2593960D01*
X766280Y2592520D01*
X764940Y2591540D01*
X763300Y2591200D01*
X566680Y2591200D01*
X565140Y2591500D01*
X563860Y2592380D01*
X562980Y2593660D01*
X562680Y2595200D01*
X562680Y2620059D01*
X562400Y2622540D01*
X561640Y2624700D01*
X560440Y2626620D01*
X558820Y2628240D01*
X556900Y2629440D01*
X554740Y2630200D01*
X552260Y2630480D01*
X487740Y2630480D01*
X485260Y2630200D01*
X483100Y2629440D01*
X481180Y2628240D01*
X479560Y2626620D01*
X478360Y2624700D01*
X477600Y2622540D01*
X477320Y2620059D01*
X477320Y2529940D01*
X477600Y2527460D01*
X478360Y2525300D01*
X479560Y2523380D01*
X481180Y2521760D01*
X483100Y2520560D01*
X485260Y2519800D01*
G37*
G36*
X438740Y2523960D02*
G01*
X441340Y2525240D01*
X445980Y2528360D01*
X450180Y2532040D01*
X453860Y2536220D01*
X456960Y2540860D01*
X459420Y2545880D01*
X460780Y2549860D01*
X438740Y2549860D01*
G37*
G36*
X401260Y2523960D02*
G01*
X401260Y2549860D01*
X379219Y2549860D01*
X380580Y2545880D01*
X383040Y2540860D01*
X386140Y2536220D01*
X389820Y2532040D01*
X394020Y2528360D01*
X398660Y2525240D01*
G37*
G36*
X1607160Y2534900D02*
G01*
X1612840Y2534900D01*
X1618460Y2535600D01*
X1623959Y2537020D01*
X1629240Y2539100D01*
X1634220Y2541840D01*
X1638800Y2545180D01*
X1642940Y2549060D01*
X1646560Y2553440D01*
X1649600Y2558220D01*
X1652020Y2563360D01*
X1653779Y2568759D01*
X1654840Y2574340D01*
X1655200Y2580000D01*
X1654840Y2585659D01*
X1653779Y2591240D01*
X1652020Y2596640D01*
X1649600Y2601780D01*
X1646560Y2606560D01*
X1642940Y2610940D01*
X1638800Y2614820D01*
X1634220Y2618159D01*
X1629240Y2620899D01*
X1623959Y2622980D01*
X1618460Y2624400D01*
X1612840Y2625100D01*
X1607160Y2625100D01*
X1601540Y2624400D01*
X1596040Y2622980D01*
X1590760Y2620899D01*
X1585780Y2618159D01*
X1581200Y2614820D01*
X1577060Y2610940D01*
X1573440Y2606560D01*
X1570400Y2601780D01*
X1567980Y2596640D01*
X1566220Y2591240D01*
X1565160Y2585659D01*
X1564800Y2580000D01*
X1565160Y2574340D01*
X1566220Y2568759D01*
X1567980Y2563360D01*
X1570400Y2558220D01*
X1573440Y2553440D01*
X1577060Y2549060D01*
X1581200Y2545180D01*
X1585780Y2541840D01*
X1590760Y2539100D01*
X1596040Y2537020D01*
X1601540Y2535600D01*
G37*
G36*
X3649700Y2542520D02*
G01*
X3650340Y2542940D01*
X3651880Y2543240D01*
X3669320Y2543240D01*
X3669320Y2562380D01*
X3666720Y2561100D01*
X3662180Y2558080D01*
X3658080Y2554480D01*
X3654480Y2550380D01*
X3651460Y2545840D01*
X3650020Y2542920D01*
G37*
G36*
X3705800Y2543240D02*
G01*
X3724940Y2543240D01*
X3723660Y2545840D01*
X3720640Y2550380D01*
X3717040Y2554480D01*
X3712940Y2558080D01*
X3708399Y2561100D01*
X3705800Y2562380D01*
G37*
G36*
X3687559Y2583320D02*
G01*
X3693000Y2583660D01*
X3698340Y2584740D01*
X3703519Y2586480D01*
X3708399Y2588900D01*
X3712940Y2591920D01*
X3717040Y2595520D01*
X3720640Y2599620D01*
X3723660Y2604160D01*
X3726080Y2609040D01*
X3727820Y2614220D01*
X3728880Y2619560D01*
X3729240Y2625000D01*
X3728880Y2630440D01*
X3727820Y2635779D01*
X3726080Y2640960D01*
X3723660Y2645840D01*
X3720640Y2650380D01*
X3717040Y2654480D01*
X3712940Y2658080D01*
X3708399Y2661100D01*
X3703519Y2663519D01*
X3698340Y2665260D01*
X3693000Y2666340D01*
X3687559Y2666680D01*
X3682120Y2666340D01*
X3676760Y2665260D01*
X3671600Y2663519D01*
X3666720Y2661100D01*
X3662180Y2658080D01*
X3658080Y2654480D01*
X3654480Y2650380D01*
X3651460Y2645840D01*
X3649040Y2640960D01*
X3647300Y2635779D01*
X3646220Y2630440D01*
X3645880Y2625000D01*
X3646220Y2619560D01*
X3647300Y2614220D01*
X3649040Y2609040D01*
X3651460Y2604160D01*
X3654480Y2599620D01*
X3658080Y2595520D01*
X3662180Y2591920D01*
X3666720Y2588900D01*
X3671600Y2586480D01*
X3676760Y2584740D01*
X3682120Y2583660D01*
G37*
G36*
X438740Y2600140D02*
G01*
X460780Y2600140D01*
X459420Y2604120D01*
X456960Y2609140D01*
X453860Y2613780D01*
X450180Y2617960D01*
X445980Y2621640D01*
X441340Y2624740D01*
X438740Y2626019D01*
G37*
G36*
X379219Y2600140D02*
G01*
X401260Y2600140D01*
X401260Y2626019D01*
X398660Y2624740D01*
X394020Y2621640D01*
X389820Y2617960D01*
X386140Y2613780D01*
X383040Y2609140D01*
X380580Y2604120D01*
G37*
G36*
X807159Y2634900D02*
G01*
X812840Y2634900D01*
X818460Y2635600D01*
X823960Y2637020D01*
X829240Y2639100D01*
X834220Y2641840D01*
X838800Y2645179D01*
X842940Y2649060D01*
X846560Y2653440D01*
X849599Y2658220D01*
X852020Y2663360D01*
X853780Y2668759D01*
X854840Y2674340D01*
X855200Y2680000D01*
X854840Y2685659D01*
X853780Y2691240D01*
X852020Y2696640D01*
X849599Y2701780D01*
X846560Y2706560D01*
X842940Y2710940D01*
X838800Y2714820D01*
X834220Y2718159D01*
X829240Y2720899D01*
X823960Y2722980D01*
X818460Y2724400D01*
X812840Y2725100D01*
X807159Y2725100D01*
X801540Y2724400D01*
X796040Y2722980D01*
X790759Y2720899D01*
X785780Y2718159D01*
X781200Y2714820D01*
X777060Y2710940D01*
X773439Y2706560D01*
X770400Y2701780D01*
X767980Y2696640D01*
X766220Y2691240D01*
X765160Y2685659D01*
X764800Y2680000D01*
X765160Y2674340D01*
X766220Y2668759D01*
X767980Y2663360D01*
X770400Y2658220D01*
X773439Y2653440D01*
X777060Y2649060D01*
X781200Y2645179D01*
X785780Y2641840D01*
X790759Y2639100D01*
X796040Y2637020D01*
X801540Y2635600D01*
G37*
G36*
X1607160Y2634900D02*
G01*
X1612840Y2634900D01*
X1618460Y2635600D01*
X1623959Y2637020D01*
X1629240Y2639100D01*
X1634220Y2641840D01*
X1638800Y2645179D01*
X1642940Y2649060D01*
X1646560Y2653440D01*
X1649600Y2658220D01*
X1652020Y2663360D01*
X1653779Y2668759D01*
X1654840Y2674340D01*
X1655200Y2680000D01*
X1654840Y2685659D01*
X1653779Y2691240D01*
X1652020Y2696640D01*
X1649600Y2701780D01*
X1646560Y2706560D01*
X1642940Y2710940D01*
X1638800Y2714820D01*
X1634220Y2718159D01*
X1629240Y2720899D01*
X1623959Y2722980D01*
X1618460Y2724400D01*
X1612840Y2725100D01*
X1607160Y2725100D01*
X1601540Y2724400D01*
X1596040Y2722980D01*
X1590760Y2720899D01*
X1585780Y2718159D01*
X1581200Y2714820D01*
X1577060Y2710940D01*
X1573440Y2706560D01*
X1570400Y2701780D01*
X1567980Y2696640D01*
X1566220Y2691240D01*
X1565160Y2685659D01*
X1564800Y2680000D01*
X1565160Y2674340D01*
X1566220Y2668759D01*
X1567980Y2663360D01*
X1570400Y2658220D01*
X1573440Y2653440D01*
X1577060Y2649060D01*
X1581200Y2645179D01*
X1585780Y2641840D01*
X1590760Y2639100D01*
X1596040Y2637020D01*
X1601540Y2635600D01*
G37*
G36*
X807159Y2734900D02*
G01*
X812840Y2734900D01*
X818460Y2735600D01*
X823960Y2737020D01*
X829240Y2739100D01*
X834220Y2741840D01*
X838800Y2745179D01*
X842940Y2749060D01*
X846560Y2753440D01*
X849599Y2758220D01*
X852020Y2763360D01*
X853780Y2768759D01*
X854840Y2774340D01*
X855200Y2780000D01*
X854840Y2785659D01*
X853780Y2791240D01*
X852020Y2796640D01*
X849599Y2801780D01*
X846560Y2806560D01*
X842940Y2810940D01*
X838800Y2814820D01*
X834220Y2818159D01*
X829240Y2820899D01*
X823960Y2822980D01*
X818460Y2824400D01*
X812840Y2825100D01*
X807159Y2825100D01*
X801540Y2824400D01*
X796040Y2822980D01*
X790759Y2820899D01*
X785780Y2818159D01*
X781200Y2814820D01*
X777060Y2810940D01*
X773439Y2806560D01*
X770400Y2801780D01*
X767980Y2796640D01*
X766220Y2791240D01*
X765160Y2785659D01*
X764800Y2780000D01*
X765160Y2774340D01*
X766220Y2768759D01*
X767980Y2763360D01*
X770400Y2758220D01*
X773439Y2753440D01*
X777060Y2749060D01*
X781200Y2745179D01*
X785780Y2741840D01*
X790759Y2739100D01*
X796040Y2737020D01*
X801540Y2735600D01*
G37*
G36*
X3933860Y2751900D02*
G01*
X3941259Y2751900D01*
X3948639Y2752660D01*
X3955899Y2754140D01*
X3962980Y2756360D01*
X3969800Y2759300D01*
X3976280Y2762900D01*
X3982360Y2767120D01*
X3987980Y2771960D01*
X3993100Y2777320D01*
X3997620Y2783200D01*
X4001540Y2789480D01*
X4004820Y2796139D01*
X4007380Y2803100D01*
X4009240Y2810260D01*
X4010380Y2817600D01*
X4010740Y2825000D01*
X4010380Y2832400D01*
X4009240Y2839740D01*
X4007380Y2846900D01*
X4004820Y2853860D01*
X4001540Y2860520D01*
X3997620Y2866800D01*
X3993100Y2872679D01*
X3987980Y2878039D01*
X3982360Y2882880D01*
X3976280Y2887100D01*
X3969800Y2890700D01*
X3962980Y2893639D01*
X3955899Y2895860D01*
X3948639Y2897340D01*
X3941259Y2898100D01*
X3933860Y2898100D01*
X3926480Y2897340D01*
X3919220Y2895860D01*
X3912140Y2893639D01*
X3905320Y2890700D01*
X3898840Y2887100D01*
X3892760Y2882880D01*
X3887140Y2878039D01*
X3882020Y2872679D01*
X3877480Y2866800D01*
X3873560Y2860520D01*
X3870299Y2853860D01*
X3867720Y2846900D01*
X3865880Y2839740D01*
X3864740Y2832400D01*
X3864380Y2825000D01*
X3864740Y2817600D01*
X3865880Y2810260D01*
X3867720Y2803100D01*
X3870299Y2796139D01*
X3873560Y2789480D01*
X3877480Y2783200D01*
X3882020Y2777320D01*
X3887140Y2771960D01*
X3892760Y2767120D01*
X3898840Y2762900D01*
X3905320Y2759300D01*
X3912140Y2756360D01*
X3919220Y2754140D01*
X3926480Y2752660D01*
G37*
G36*
X2923660Y2759840D02*
G01*
X2929020Y2760020D01*
X2934320Y2760899D01*
X2939440Y2762500D01*
X2944320Y2764760D01*
X2948840Y2767640D01*
X2952940Y2771100D01*
X2956540Y2775100D01*
X2959580Y2779520D01*
X2962000Y2784300D01*
X2963759Y2789380D01*
X2964840Y2794640D01*
X2965200Y2800000D01*
X2964840Y2805360D01*
X2963759Y2810620D01*
X2962000Y2815700D01*
X2959580Y2820480D01*
X2956540Y2824900D01*
X2952940Y2828900D01*
X2948840Y2832360D01*
X2944320Y2835240D01*
X2939440Y2837500D01*
X2934320Y2839100D01*
X2929020Y2839980D01*
X2923660Y2840160D01*
X2918320Y2839640D01*
X2913100Y2838380D01*
X2908080Y2836460D01*
X2903380Y2833880D01*
X2899060Y2830700D01*
X2895200Y2826960D01*
X2891860Y2822740D01*
X2889120Y2818120D01*
X2887040Y2813180D01*
X2885620Y2808000D01*
X2884900Y2802679D01*
X2884900Y2797320D01*
X2885620Y2792000D01*
X2887040Y2786820D01*
X2889120Y2781880D01*
X2891860Y2777260D01*
X2895200Y2773039D01*
X2899060Y2769300D01*
X2903380Y2766120D01*
X2908080Y2763540D01*
X2913100Y2761620D01*
X2918320Y2760360D01*
G37*
G36*
X807159Y2834900D02*
G01*
X812840Y2834900D01*
X818460Y2835600D01*
X823960Y2837020D01*
X829240Y2839100D01*
X834220Y2841840D01*
X838800Y2845179D01*
X842940Y2849060D01*
X846560Y2853440D01*
X849599Y2858220D01*
X852020Y2863360D01*
X853780Y2868759D01*
X854840Y2874340D01*
X855200Y2880000D01*
X854840Y2885659D01*
X853780Y2891240D01*
X852020Y2896640D01*
X849599Y2901780D01*
X846560Y2906560D01*
X842940Y2910940D01*
X838800Y2914820D01*
X834220Y2918159D01*
X829240Y2920899D01*
X823960Y2922980D01*
X818460Y2924400D01*
X812840Y2925100D01*
X807159Y2925100D01*
X801540Y2924400D01*
X796040Y2922980D01*
X790759Y2920899D01*
X785780Y2918159D01*
X781200Y2914820D01*
X777060Y2910940D01*
X773439Y2906560D01*
X770400Y2901780D01*
X767980Y2896640D01*
X766220Y2891240D01*
X765160Y2885659D01*
X764800Y2880000D01*
X765160Y2874340D01*
X766220Y2868759D01*
X767980Y2863360D01*
X770400Y2858220D01*
X773439Y2853440D01*
X777060Y2849060D01*
X781200Y2845179D01*
X785780Y2841840D01*
X790759Y2839100D01*
X796040Y2837020D01*
X801540Y2835600D01*
G37*
G36*
X4106600Y2862320D02*
G01*
X4111840Y2865340D01*
X4116840Y2869060D01*
X4121360Y2873320D01*
X4125360Y2878100D01*
X4128780Y2883279D01*
X4130080Y2885880D01*
X4106600Y2885880D01*
G37*
G36*
X4058279Y2862320D02*
G01*
X4058279Y2885880D01*
X4034800Y2885880D01*
X4036100Y2883279D01*
X4039520Y2878100D01*
X4043519Y2873320D01*
X4048060Y2869060D01*
X4053039Y2865340D01*
G37*
G36*
X4106600Y2934200D02*
G01*
X4130080Y2934200D01*
X4128780Y2936780D01*
X4125360Y2941980D01*
X4121360Y2946760D01*
X4116840Y2951019D01*
X4111840Y2954740D01*
X4106600Y2957760D01*
G37*
G36*
X4034800Y2934200D02*
G01*
X4058279Y2934200D01*
X4058279Y2957760D01*
X4053039Y2954740D01*
X4048060Y2951019D01*
X4043519Y2946760D01*
X4039520Y2941980D01*
X4036100Y2936780D01*
G37*
G36*
X1607160Y2934900D02*
G01*
X1612840Y2934900D01*
X1618460Y2935600D01*
X1623959Y2937020D01*
X1629240Y2939100D01*
X1634220Y2941840D01*
X1638800Y2945179D01*
X1642940Y2949060D01*
X1646560Y2953440D01*
X1649600Y2958220D01*
X1652020Y2963360D01*
X1653779Y2968759D01*
X1654840Y2974340D01*
X1655200Y2980000D01*
X1654840Y2985659D01*
X1653779Y2991240D01*
X1652020Y2996640D01*
X1649600Y3001780D01*
X1646560Y3006560D01*
X1642940Y3010940D01*
X1638800Y3014820D01*
X1634220Y3018159D01*
X1629240Y3020899D01*
X1623959Y3022980D01*
X1618460Y3024400D01*
X1612840Y3025100D01*
X1607160Y3025100D01*
X1601540Y3024400D01*
X1596040Y3022980D01*
X1590760Y3020899D01*
X1585780Y3018159D01*
X1581200Y3014820D01*
X1577060Y3010940D01*
X1573440Y3006560D01*
X1570400Y3001780D01*
X1567980Y2996640D01*
X1566220Y2991240D01*
X1565160Y2985659D01*
X1564800Y2980000D01*
X1565160Y2974340D01*
X1566220Y2968759D01*
X1567980Y2963360D01*
X1570400Y2958220D01*
X1573440Y2953440D01*
X1577060Y2949060D01*
X1581200Y2945179D01*
X1585780Y2941840D01*
X1590760Y2939100D01*
X1596040Y2937020D01*
X1601540Y2935600D01*
G37*
G36*
X807159Y2934900D02*
G01*
X812840Y2934900D01*
X818460Y2935600D01*
X823960Y2937020D01*
X829240Y2939100D01*
X834220Y2941840D01*
X838800Y2945179D01*
X842940Y2949060D01*
X846560Y2953440D01*
X849599Y2958220D01*
X852020Y2963360D01*
X853780Y2968759D01*
X854840Y2974340D01*
X855200Y2980000D01*
X854840Y2985659D01*
X853780Y2991240D01*
X852020Y2996640D01*
X849599Y3001780D01*
X846560Y3006560D01*
X842940Y3010940D01*
X838800Y3014820D01*
X834220Y3018159D01*
X829240Y3020899D01*
X823960Y3022980D01*
X818460Y3024400D01*
X812840Y3025100D01*
X807159Y3025100D01*
X801540Y3024400D01*
X796040Y3022980D01*
X790759Y3020899D01*
X785780Y3018159D01*
X781200Y3014820D01*
X777060Y3010940D01*
X773439Y3006560D01*
X770400Y3001780D01*
X767980Y2996640D01*
X766220Y2991240D01*
X765160Y2985659D01*
X764800Y2980000D01*
X765160Y2974340D01*
X766220Y2968759D01*
X767980Y2963360D01*
X770400Y2958220D01*
X773439Y2953440D01*
X777060Y2949060D01*
X781200Y2945179D01*
X785780Y2941840D01*
X790759Y2939100D01*
X796040Y2937020D01*
X801540Y2935600D01*
G37*
G36*
X811919Y3050820D02*
G01*
X819539Y3051380D01*
X827080Y3052679D01*
X834479Y3054680D01*
X841620Y3057400D01*
X848480Y3060779D01*
X854980Y3064820D01*
X861060Y3069460D01*
X866680Y3074680D01*
X871740Y3080400D01*
X876240Y3086600D01*
X880120Y3093200D01*
X883340Y3100140D01*
X885879Y3107360D01*
X887720Y3114780D01*
X888820Y3122360D01*
X889200Y3130000D01*
X888820Y3137640D01*
X887720Y3145220D01*
X885879Y3152640D01*
X883340Y3159860D01*
X880120Y3166800D01*
X876240Y3173399D01*
X871740Y3179600D01*
X866680Y3185320D01*
X861060Y3190539D01*
X854980Y3195179D01*
X848480Y3199220D01*
X841620Y3202600D01*
X834479Y3205320D01*
X827080Y3207320D01*
X819539Y3208620D01*
X811919Y3209180D01*
X804260Y3208980D01*
X796660Y3208060D01*
X789200Y3206420D01*
X781919Y3204040D01*
X774900Y3201000D01*
X768220Y3197280D01*
X761919Y3192919D01*
X756060Y3188000D01*
X750720Y3182520D01*
X745920Y3176540D01*
X741740Y3170140D01*
X738180Y3163380D01*
X735300Y3156280D01*
X733100Y3148960D01*
X731640Y3141440D01*
X730900Y3133820D01*
X730900Y3126180D01*
X731640Y3118560D01*
X733100Y3111040D01*
X735300Y3103720D01*
X738180Y3096620D01*
X741740Y3089860D01*
X745920Y3083460D01*
X750720Y3077480D01*
X756060Y3072000D01*
X761919Y3067080D01*
X768220Y3062720D01*
X774900Y3059000D01*
X781919Y3055960D01*
X789200Y3053580D01*
X796660Y3051940D01*
X804260Y3051019D01*
G37*
G36*
X1611920Y3050820D02*
G01*
X1619540Y3051380D01*
X1627080Y3052679D01*
X1634480Y3054680D01*
X1641620Y3057400D01*
X1648480Y3060779D01*
X1654980Y3064820D01*
X1661060Y3069460D01*
X1666680Y3074680D01*
X1671740Y3080400D01*
X1676240Y3086600D01*
X1680120Y3093200D01*
X1683340Y3100140D01*
X1685880Y3107360D01*
X1687720Y3114780D01*
X1688820Y3122360D01*
X1689199Y3130000D01*
X1688820Y3137640D01*
X1687720Y3145220D01*
X1685880Y3152640D01*
X1683340Y3159860D01*
X1680120Y3166800D01*
X1676240Y3173399D01*
X1671740Y3179600D01*
X1666680Y3185320D01*
X1661060Y3190539D01*
X1654980Y3195179D01*
X1648480Y3199220D01*
X1641620Y3202600D01*
X1634480Y3205320D01*
X1627080Y3207320D01*
X1619540Y3208620D01*
X1611920Y3209180D01*
X1604259Y3208980D01*
X1596660Y3208060D01*
X1589199Y3206420D01*
X1581920Y3204040D01*
X1574900Y3201000D01*
X1568220Y3197280D01*
X1561920Y3192919D01*
X1556060Y3188000D01*
X1550720Y3182520D01*
X1545920Y3176540D01*
X1541740Y3170140D01*
X1538180Y3163380D01*
X1535300Y3156280D01*
X1533100Y3148960D01*
X1531639Y3141440D01*
X1530900Y3133820D01*
X1530900Y3126180D01*
X1531639Y3118560D01*
X1533100Y3111040D01*
X1535300Y3103720D01*
X1538180Y3096620D01*
X1541740Y3089860D01*
X1545920Y3083460D01*
X1550720Y3077480D01*
X1556060Y3072000D01*
X1561920Y3067080D01*
X1568220Y3062720D01*
X1574900Y3059000D01*
X1581920Y3055960D01*
X1589199Y3053580D01*
X1596660Y3051940D01*
X1604259Y3051019D01*
G37*
G36*
X406300Y3131900D02*
G01*
X413700Y3131900D01*
X421079Y3132660D01*
X428340Y3134140D01*
X435420Y3136360D01*
X442239Y3139300D01*
X448720Y3142900D01*
X454799Y3147120D01*
X460420Y3151960D01*
X465540Y3157320D01*
X470060Y3163200D01*
X474000Y3169480D01*
X477260Y3176139D01*
X479840Y3183100D01*
X481680Y3190260D01*
X482819Y3197600D01*
X483180Y3205000D01*
X482819Y3212400D01*
X481680Y3219740D01*
X479840Y3226900D01*
X477260Y3233860D01*
X474000Y3240520D01*
X470060Y3246800D01*
X465540Y3252679D01*
X460420Y3258039D01*
X454799Y3262880D01*
X448720Y3267100D01*
X442239Y3270700D01*
X435420Y3273639D01*
X428340Y3275860D01*
X421079Y3277340D01*
X413700Y3278100D01*
X406300Y3278100D01*
X398920Y3277340D01*
X391659Y3275860D01*
X384580Y3273639D01*
X377760Y3270700D01*
X371280Y3267100D01*
X365200Y3262880D01*
X359580Y3258039D01*
X354460Y3252679D01*
X349940Y3246800D01*
X346000Y3240520D01*
X342740Y3233860D01*
X340160Y3226900D01*
X338320Y3219740D01*
X337180Y3212400D01*
X336820Y3205000D01*
X337180Y3197600D01*
X338320Y3190260D01*
X340160Y3183100D01*
X342740Y3176139D01*
X346000Y3169480D01*
X349940Y3163200D01*
X354460Y3157320D01*
X359580Y3151960D01*
X365200Y3147120D01*
X371280Y3142900D01*
X377760Y3139300D01*
X384580Y3136360D01*
X391659Y3134140D01*
X398920Y3132660D01*
G37*
G36*
X4241300Y3136900D02*
G01*
X4248700Y3136900D01*
X4256080Y3137660D01*
X4263340Y3139140D01*
X4270420Y3141360D01*
X4277240Y3144300D01*
X4283720Y3147900D01*
X4289800Y3152120D01*
X4295420Y3156960D01*
X4300540Y3162320D01*
X4305060Y3168200D01*
X4309000Y3174480D01*
X4312260Y3181139D01*
X4314840Y3188100D01*
X4316680Y3195260D01*
X4317820Y3202600D01*
X4318180Y3210000D01*
X4317820Y3217400D01*
X4316680Y3224740D01*
X4314840Y3231900D01*
X4312260Y3238860D01*
X4309000Y3245520D01*
X4305060Y3251800D01*
X4300540Y3257679D01*
X4295420Y3263039D01*
X4289800Y3267880D01*
X4283720Y3272100D01*
X4277240Y3275700D01*
X4270420Y3278639D01*
X4263340Y3280860D01*
X4256080Y3282340D01*
X4248700Y3283100D01*
X4241300Y3283100D01*
X4233920Y3282340D01*
X4226660Y3280860D01*
X4219580Y3278639D01*
X4212760Y3275700D01*
X4206280Y3272100D01*
X4200200Y3267880D01*
X4194580Y3263039D01*
X4189460Y3257679D01*
X4184940Y3251800D01*
X4181000Y3245520D01*
X4177740Y3238860D01*
X4175160Y3231900D01*
X4173320Y3224740D01*
X4172180Y3217400D01*
X4171820Y3210000D01*
X4172180Y3202600D01*
X4173320Y3195260D01*
X4175160Y3188100D01*
X4177740Y3181139D01*
X4181000Y3174480D01*
X4184940Y3168200D01*
X4189460Y3162320D01*
X4194580Y3156960D01*
X4200200Y3152120D01*
X4206280Y3147900D01*
X4212760Y3144300D01*
X4219580Y3141360D01*
X4226660Y3139140D01*
X4233920Y3137660D01*
G37*

%LPD*%
D10*
X3587559Y1320000D02*
G01*
X3765000Y1320000D01*
X3765000Y2195000D01*
X3640000Y2320000D01*
X3640000Y2522559D01*
X3587559Y2575000D01*
X3350000Y1755000D02*
G01*
X3275000Y1755000D01*
X3275000Y2725000D01*
X3687559Y2725000D01*
X3355000Y1060000D02*
G01*
X3577559Y1060000D01*
X3687559Y1170000D01*
X3355000Y1420000D02*
G01*
X3587559Y1420000D01*
X3350000Y1755000D02*
G01*
X3525000Y1755000D01*
X3685000Y1595000D01*
X3685000Y1472559D01*
X3687559Y1470000D01*
X3350000Y2305000D02*
G01*
X3417559Y2305000D01*
X3587559Y2475000D01*
X3345000Y2635000D02*
G01*
X3527559Y2635000D01*
X3587559Y2575000D01*
X3345000Y2970000D02*
G01*
X3392559Y2970000D01*
X3587559Y2775000D01*
X3687559Y1270000D02*
G01*
X4082439Y1270000D01*
X3687559Y2525000D02*
G01*
X4082439Y2525000D01*
X4082439Y1655039D02*
G01*
X4082439Y1034960D01*
X4082439Y2289960D02*
G01*
X4082439Y1655039D01*
X4082439Y2910039D02*
G01*
X4082439Y2289960D01*
X2925000Y2965000D02*
G01*
X2930000Y2970000D01*
X3055000Y2970000D01*
X2935000Y2635000D02*
G01*
X3055000Y2635000D01*
X2940000Y2300000D02*
G01*
X2945000Y2305000D01*
X3060000Y2305000D01*
X2940000Y1755000D02*
G01*
X3060000Y1755000D01*
X2935000Y1415000D02*
G01*
X2940000Y1420000D01*
X3065000Y1420000D01*
X2935000Y1060000D02*
G01*
X3095000Y1060000D01*
X3205000Y1070000D02*
G01*
X3205000Y1430000D01*
X3205000Y1430000D02*
G01*
X3205000Y1760000D01*
X3200000Y1765000D01*
X3200000Y1765000D02*
G01*
X3200000Y2315000D01*
X3200000Y2315000D02*
G01*
X3200000Y2685000D01*
X3195000Y2645000D02*
G01*
X3195000Y2980000D01*
X2935000Y885000D02*
G01*
X3180000Y885000D01*
X3355000Y1060000D01*
X2535000Y2635000D02*
G01*
X2405000Y2635000D01*
X2405000Y2965000D01*
X2525000Y2965000D01*
X2535000Y2635000D02*
G01*
X2405000Y2635000D01*
X2540000Y2300000D02*
G01*
X2405000Y2300000D01*
X2405000Y2635000D01*
X2540000Y1755000D02*
G01*
X2405000Y1755000D01*
X2405000Y2300000D01*
X2535000Y1415000D02*
G01*
X2405000Y1415000D01*
X2405000Y1755000D01*
X2535000Y1060000D02*
G01*
X2405000Y1060000D01*
X2405000Y1415000D01*
X2525000Y2800000D02*
G01*
X2645000Y2800000D01*
X2645000Y2470000D01*
X2535000Y2470000D01*
X2535000Y2125000D02*
G01*
X2645000Y2125000D01*
X2645000Y2470000D01*
X2535000Y1590000D02*
G01*
X2645000Y1590000D01*
X2645000Y2120000D01*
X2535000Y1235000D02*
G01*
X2645000Y1235000D01*
X2645000Y1590000D01*
X2535000Y885000D02*
G01*
X2645000Y885000D01*
X2645000Y1235000D01*
X810000Y2580000D02*
G01*
X805000Y2575000D01*
X520000Y2575000D01*
X960000Y1810000D02*
G01*
X960000Y1510000D01*
X1060000Y1810000D02*
G01*
X1060000Y1510000D01*
X1160000Y1810000D02*
G01*
X1160000Y1510000D01*
X1260000Y1810000D02*
G01*
X1260000Y1510000D01*
X1360000Y1810000D02*
G01*
X1360000Y1510000D01*
X1460000Y1810000D02*
G01*
X1460000Y1510000D01*
X425000Y1780000D02*
G01*
X425000Y1565000D01*
X430000Y1560000D01*
X525000Y1780000D02*
G01*
X525000Y2275000D01*
X805000Y2275000D01*
X810000Y2280000D01*
X810000Y2280000D02*
G01*
X1335000Y2280000D01*
X1335000Y2065000D01*
X1390000Y2010000D01*
X2200000Y2010000D01*
X2200000Y2125000D01*
X1610000Y2280000D02*
G01*
X1611148Y2278850D01*
X2405000Y2278850D01*
X1610000Y2380000D02*
G01*
X2320000Y2380000D01*
X2320000Y3045000D01*
X2845000Y3045000D01*
X2925000Y2965000D01*
X810000Y2080000D02*
G01*
X590000Y1860000D01*
X590000Y1160000D01*
X430000Y1160000D01*
X810000Y2380000D02*
G01*
X1465000Y2380000D01*
X1465000Y2830000D01*
X2250000Y2830000D01*
X2250000Y3105000D01*
X3115000Y3105000D01*
X3115000Y2795000D01*
X3055000Y2735000D01*
X3055000Y2635000D01*
D11*
G01*
X4082439Y2289960D03*
G01*
X4082439Y2910039D03*
D12*
G01*
X3687559Y2425000D03*
G01*
X3587559Y2475000D03*
G01*
X3687559Y2525000D03*
G01*
X3587559Y2575000D03*
G01*
X3687559Y2625000D03*
G01*
X3587559Y2675000D03*
G01*
X3687559Y2725000D03*
G01*
X3587559Y2775000D03*
D11*
G01*
X4082439Y1034960D03*
G01*
X4082439Y1655039D03*
D12*
G01*
X3687559Y1170000D03*
G01*
X3587559Y1220000D03*
G01*
X3687559Y1270000D03*
G01*
X3587559Y1320000D03*
G01*
X3687559Y1370000D03*
G01*
X3587559Y1420000D03*
G01*
X3687559Y1470000D03*
G01*
X3587559Y1520000D03*
D13*
G01*
X1610000Y3130000D03*
D14*
G01*
X1610000Y2080000D03*
G01*
X1610000Y2180000D03*
G01*
X1610000Y2280000D03*
G01*
X1610000Y2380000D03*
G01*
X1610000Y2480000D03*
G01*
X1610000Y2580000D03*
G01*
X1610000Y2680000D03*
G01*
X1610000Y2780000D03*
G01*
X1610000Y2880000D03*
G01*
X1610000Y2980000D03*
D13*
G01*
X1610000Y1830000D03*
D14*
G01*
X1460000Y1810000D03*
G01*
X960000Y1810000D03*
G01*
X1060000Y1810000D03*
G01*
X1160000Y1810000D03*
G01*
X1260000Y1810000D03*
G01*
X1360000Y1810000D03*
D13*
G01*
X810000Y1830000D03*
D14*
G01*
X810000Y2080000D03*
G01*
X810000Y2980000D03*
G01*
X810000Y2880000D03*
G01*
X810000Y2780000D03*
G01*
X810000Y2680000D03*
G01*
X810000Y2580000D03*
G01*
X810000Y2480000D03*
G01*
X810000Y2380000D03*
G01*
X810000Y2280000D03*
G01*
X810000Y2180000D03*
G01*
X810000Y2080000D03*
D13*
G01*
X810000Y3130000D03*
D15*
G01*
X520000Y2575000D03*
D16*
G01*
X420000Y2575000D03*
D17*
G01*
X525000Y1780000D03*
D18*
G01*
X425000Y1780000D03*
D19*
G01*
X960000Y1510000D03*
G01*
X1060000Y1510000D03*
G01*
X1160000Y1510000D03*
G01*
X1260000Y1510000D03*
G01*
X1360000Y1510000D03*
D20*
G01*
X1460000Y1510000D03*
D21*
G01*
X3060000Y2305000D03*
D22*
G01*
X3200000Y2315000D03*
G01*
X3350000Y2305000D03*
D21*
G01*
X3055000Y2635000D03*
D22*
G01*
X3195000Y2645000D03*
G01*
X3345000Y2635000D03*
D21*
G01*
X3055000Y2970000D03*
D22*
G01*
X3195000Y2980000D03*
G01*
X3345000Y2970000D03*
D21*
G01*
X3060000Y1755000D03*
D22*
G01*
X3200000Y1765000D03*
G01*
X3350000Y1755000D03*
D21*
G01*
X3065000Y1420000D03*
D22*
G01*
X3205000Y1430000D03*
G01*
X3355000Y1420000D03*
D21*
G01*
X3065000Y1060000D03*
D22*
G01*
X3205000Y1070000D03*
G01*
X3355000Y1060000D03*
D23*
G01*
X2540000Y2300000D03*
G01*
X2940000Y2300000D03*
G01*
X2535000Y2125000D03*
G01*
X2935000Y2125000D03*
G01*
X2535000Y2635000D03*
G01*
X2935000Y2635000D03*
G01*
X2535000Y2470000D03*
G01*
X2935000Y2470000D03*
G01*
X2525000Y2965000D03*
G01*
X2925000Y2965000D03*
G01*
X2525000Y2800000D03*
G01*
X2925000Y2800000D03*
G01*
X2535000Y1590000D03*
G01*
X2935000Y1590000D03*
G01*
X2540000Y1755000D03*
G01*
X2940000Y1755000D03*
G01*
X2535000Y1235000D03*
G01*
X2935000Y1235000D03*
G01*
X2535000Y1415000D03*
G01*
X2935000Y1415000D03*
G01*
X2535000Y885000D03*
G01*
X2935000Y885000D03*
G01*
X2535000Y1060000D03*
G01*
X2935000Y1060000D03*
D24*
G01*
X430000Y1560000D03*
G01*
X430000Y1160000D03*
D25*
G01*
X2200000Y2125000D03*
M02*
